STARTFONT 2.1
FONT -Efont-Biwidth-Medium-R-Normal--16-160-75-75-P-80-ISO10646-1
SIZE 16 75 75
FONTBOUNDINGBOX 16 16 0 -2
STARTPROPERTIES 18
COPYRIGHT "(c) Copyright 2000-2003 /efont/ The Electronic Font Open Laboratory."
FOUNDRY "Efont"
FAMILY_NAME "Biwidth"
WEIGHT_NAME "Medium"
SLANT "R"
SETWIDTH_NAME "Normal"
ADD_STYLE_NAME ""
PIXEL_SIZE 16
POINT_SIZE 160
RESOLUTION_X 75
RESOLUTION_Y 75
AVERAGE_WIDTH 80
CHARSET_REGISTRY "ISO10646"
CHARSET_ENCODING "1"
_MULE_BASELINE_OFFSET -3
FONT_ASCENT 14
FONT_DESCENT 2
DEFAULT_CHAR 12288
ENDPROPERTIES
CHARS 2775
STARTCHAR U+0000
ENCODING 0
SWIDTH 500 0
DWIDTH 8 0
BBX 8 16 0 -2
BITMAP 
00
55
00
41
00
41
00
41
00
41
00
41
00
55
00
00
ENDCHAR
STARTCHAR U+0020
ENCODING 32
SWIDTH 500 0
DWIDTH 8 0
BBX 8 16 0 -2
BITMAP 
00
00
00
00
00
00
00
00
00
00
00
00
00
00
00
00
ENDCHAR
STARTCHAR U+0021
ENCODING 33
SWIDTH 500 0
DWIDTH 8 0
BBX 8 16 0 -2
BITMAP 
00
00
00
00
08
08
08
08
08
08
08
00
08
08
00
00
ENDCHAR
STARTCHAR U+0022
ENCODING 34
SWIDTH 500 0
DWIDTH 8 0
BBX 8 16 0 -2
BITMAP 
00
00
24
24
24
24
00
00
00
00
00
00
00
00
00
00
ENDCHAR
STARTCHAR U+0023
ENCODING 35
SWIDTH 500 0
DWIDTH 8 0
BBX 8 16 0 -2
BITMAP 
00
00
00
00
12
12
12
7E
24
24
7E
48
48
48
00
00
ENDCHAR
STARTCHAR U+0024
ENCODING 36
SWIDTH 500 0
DWIDTH 8 0
BBX 8 16 0 -2
BITMAP 
00
00
00
00
08
3E
49
48
38
0E
09
49
3E
08
00
00
ENDCHAR
STARTCHAR U+0025
ENCODING 37
SWIDTH 500 0
DWIDTH 8 0
BBX 8 16 0 -2
BITMAP 
00
00
00
00
31
4A
4A
34
08
08
16
29
29
46
00
00
ENDCHAR
STARTCHAR U+0026
ENCODING 38
SWIDTH 500 0
DWIDTH 8 0
BBX 8 16 0 -2
BITMAP 
00
00
00
00
1C
22
22
22
1C
39
45
42
46
39
00
00
ENDCHAR
STARTCHAR U+0027
ENCODING 39
SWIDTH 500 0
DWIDTH 8 0
BBX 8 16 0 -2
BITMAP 
00
00
08
08
08
08
00
00
00
00
00
00
00
00
00
00
ENDCHAR
STARTCHAR U+0028
ENCODING 40
SWIDTH 500 0
DWIDTH 8 0
BBX 8 16 0 -2
BITMAP 
00
00
00
04
08
08
10
10
10
10
10
10
08
08
04
00
ENDCHAR
STARTCHAR U+0029
ENCODING 41
SWIDTH 500 0
DWIDTH 8 0
BBX 8 16 0 -2
BITMAP 
00
00
00
20
10
10
08
08
08
08
08
08
10
10
20
00
ENDCHAR
STARTCHAR U+002A
ENCODING 42
SWIDTH 500 0
DWIDTH 8 0
BBX 8 16 0 -2
BITMAP 
00
00
00
00
00
00
08
49
2A
1C
2A
49
08
00
00
00
ENDCHAR
STARTCHAR U+002B
ENCODING 43
SWIDTH 500 0
DWIDTH 8 0
BBX 8 16 0 -2
BITMAP 
00
00
00
00
00
00
08
08
08
7F
08
08
08
00
00
00
ENDCHAR
STARTCHAR U+002C
ENCODING 44
SWIDTH 500 0
DWIDTH 8 0
BBX 8 16 0 -2
BITMAP 
00
00
00
00
00
00
00
00
00
00
00
00
18
08
08
10
ENDCHAR
STARTCHAR U+002D
ENCODING 45
SWIDTH 500 0
DWIDTH 8 0
BBX 8 16 0 -2
BITMAP 
00
00
00
00
00
00
00
00
00
7E
00
00
00
00
00
00
ENDCHAR
STARTCHAR U+002E
ENCODING 46
SWIDTH 500 0
DWIDTH 8 0
BBX 8 16 0 -2
BITMAP 
00
00
00
00
00
00
00
00
00
00
00
00
18
18
00
00
ENDCHAR
STARTCHAR U+002F
ENCODING 47
SWIDTH 500 0
DWIDTH 8 0
BBX 8 16 0 -2
BITMAP 
00
00
00
00
02
02
04
08
08
10
10
20
40
40
00
00
ENDCHAR
STARTCHAR U+0030
ENCODING 48
SWIDTH 500 0
DWIDTH 8 0
BBX 8 16 0 -2
BITMAP 
00
00
00
00
18
24
42
42
42
42
42
42
24
18
00
00
ENDCHAR
STARTCHAR U+0031
ENCODING 49
SWIDTH 500 0
DWIDTH 8 0
BBX 8 16 0 -2
BITMAP 
00
00
00
00
08
18
28
08
08
08
08
08
08
3E
00
00
ENDCHAR
STARTCHAR U+0032
ENCODING 50
SWIDTH 500 0
DWIDTH 8 0
BBX 8 16 0 -2
BITMAP 
00
00
00
00
3C
42
42
02
0C
10
20
40
40
7E
00
00
ENDCHAR
STARTCHAR U+0033
ENCODING 51
SWIDTH 500 0
DWIDTH 8 0
BBX 8 16 0 -2
BITMAP 
00
00
00
00
3C
42
42
02
1C
02
02
42
42
3C
00
00
ENDCHAR
STARTCHAR U+0034
ENCODING 52
SWIDTH 500 0
DWIDTH 8 0
BBX 8 16 0 -2
BITMAP 
00
00
00
00
04
0C
14
24
44
44
7E
04
04
04
00
00
ENDCHAR
STARTCHAR U+0035
ENCODING 53
SWIDTH 500 0
DWIDTH 8 0
BBX 8 16 0 -2
BITMAP 
00
00
00
00
7E
40
40
40
7C
02
02
02
42
3C
00
00
ENDCHAR
STARTCHAR U+0036
ENCODING 54
SWIDTH 500 0
DWIDTH 8 0
BBX 8 16 0 -2
BITMAP 
00
00
00
00
1C
20
40
40
7C
42
42
42
42
3C
00
00
ENDCHAR
STARTCHAR U+0037
ENCODING 55
SWIDTH 500 0
DWIDTH 8 0
BBX 8 16 0 -2
BITMAP 
00
00
00
00
7E
02
02
04
04
04
08
08
08
08
00
00
ENDCHAR
STARTCHAR U+0038
ENCODING 56
SWIDTH 500 0
DWIDTH 8 0
BBX 8 16 0 -2
BITMAP 
00
00
00
00
3C
42
42
42
3C
42
42
42
42
3C
00
00
ENDCHAR
STARTCHAR U+0039
ENCODING 57
SWIDTH 500 0
DWIDTH 8 0
BBX 8 16 0 -2
BITMAP 
00
00
00
00
3C
42
42
42
3E
02
02
02
04
38
00
00
ENDCHAR
STARTCHAR U+003A
ENCODING 58
SWIDTH 500 0
DWIDTH 8 0
BBX 8 16 0 -2
BITMAP 
00
00
00
00
00
00
18
18
00
00
00
18
18
00
00
00
ENDCHAR
STARTCHAR U+003B
ENCODING 59
SWIDTH 500 0
DWIDTH 8 0
BBX 8 16 0 -2
BITMAP 
00
00
00
00
00
00
18
18
00
00
00
18
08
08
10
00
ENDCHAR
STARTCHAR U+003C
ENCODING 60
SWIDTH 500 0
DWIDTH 8 0
BBX 8 16 0 -2
BITMAP 
00
00
00
00
00
02
04
08
10
20
10
08
04
02
00
00
ENDCHAR
STARTCHAR U+003D
ENCODING 61
SWIDTH 500 0
DWIDTH 8 0
BBX 8 16 0 -2
BITMAP 
00
00
00
00
00
00
00
7E
00
00
00
7E
00
00
00
00
ENDCHAR
STARTCHAR U+003E
ENCODING 62
SWIDTH 500 0
DWIDTH 8 0
BBX 8 16 0 -2
BITMAP 
00
00
00
00
00
40
20
10
08
04
08
10
20
40
00
00
ENDCHAR
STARTCHAR U+003F
ENCODING 63
SWIDTH 500 0
DWIDTH 8 0
BBX 8 16 0 -2
BITMAP 
00
00
00
00
3C
42
42
02
04
08
08
00
08
08
00
00
ENDCHAR
STARTCHAR U+0040
ENCODING 64
SWIDTH 500 0
DWIDTH 8 0
BBX 8 16 0 -2
BITMAP 
00
00
00
00
1C
22
4A
56
52
52
52
4E
20
1E
00
00
ENDCHAR
STARTCHAR U+0041
ENCODING 65
SWIDTH 500 0
DWIDTH 8 0
BBX 8 16 0 -2
BITMAP 
00
00
00
00
18
24
24
42
42
7E
42
42
42
42
00
00
ENDCHAR
STARTCHAR U+0042
ENCODING 66
SWIDTH 500 0
DWIDTH 8 0
BBX 8 16 0 -2
BITMAP 
00
00
00
00
7C
42
42
42
7C
42
42
42
42
7C
00
00
ENDCHAR
STARTCHAR U+0043
ENCODING 67
SWIDTH 500 0
DWIDTH 8 0
BBX 8 16 0 -2
BITMAP 
00
00
00
00
3C
42
42
40
40
40
40
42
42
3C
00
00
ENDCHAR
STARTCHAR U+0044
ENCODING 68
SWIDTH 500 0
DWIDTH 8 0
BBX 8 16 0 -2
BITMAP 
00
00
00
00
78
44
42
42
42
42
42
42
44
78
00
00
ENDCHAR
STARTCHAR U+0045
ENCODING 69
SWIDTH 500 0
DWIDTH 8 0
BBX 8 16 0 -2
BITMAP 
00
00
00
00
7E
40
40
40
7C
40
40
40
40
7E
00
00
ENDCHAR
STARTCHAR U+0046
ENCODING 70
SWIDTH 500 0
DWIDTH 8 0
BBX 8 16 0 -2
BITMAP 
00
00
00
00
7E
40
40
40
7C
40
40
40
40
40
00
00
ENDCHAR
STARTCHAR U+0047
ENCODING 71
SWIDTH 500 0
DWIDTH 8 0
BBX 8 16 0 -2
BITMAP 
00
00
00
00
3C
42
42
40
40
4E
42
42
46
3A
00
00
ENDCHAR
STARTCHAR U+0048
ENCODING 72
SWIDTH 500 0
DWIDTH 8 0
BBX 8 16 0 -2
BITMAP 
00
00
00
00
42
42
42
42
7E
42
42
42
42
42
00
00
ENDCHAR
STARTCHAR U+0049
ENCODING 73
SWIDTH 500 0
DWIDTH 8 0
BBX 8 16 0 -2
BITMAP 
00
00
00
00
3E
08
08
08
08
08
08
08
08
3E
00
00
ENDCHAR
STARTCHAR U+004A
ENCODING 74
SWIDTH 500 0
DWIDTH 8 0
BBX 8 16 0 -2
BITMAP 
00
00
00
00
1F
04
04
04
04
04
04
44
44
38
00
00
ENDCHAR
STARTCHAR U+004B
ENCODING 75
SWIDTH 500 0
DWIDTH 8 0
BBX 8 16 0 -2
BITMAP 
00
00
00
00
42
44
48
50
60
60
50
48
44
42
00
00
ENDCHAR
STARTCHAR U+004C
ENCODING 76
SWIDTH 500 0
DWIDTH 8 0
BBX 8 16 0 -2
BITMAP 
00
00
00
00
40
40
40
40
40
40
40
40
40
7E
00
00
ENDCHAR
STARTCHAR U+004D
ENCODING 77
SWIDTH 500 0
DWIDTH 8 0
BBX 8 16 0 -2
BITMAP 
00
00
00
00
42
42
66
66
5A
5A
42
42
42
42
00
00
ENDCHAR
STARTCHAR U+004E
ENCODING 78
SWIDTH 500 0
DWIDTH 8 0
BBX 8 16 0 -2
BITMAP 
00
00
00
00
42
62
62
52
52
4A
4A
46
46
42
00
00
ENDCHAR
STARTCHAR U+004F
ENCODING 79
SWIDTH 500 0
DWIDTH 8 0
BBX 8 16 0 -2
BITMAP 
00
00
00
00
3C
42
42
42
42
42
42
42
42
3C
00
00
ENDCHAR
STARTCHAR U+0050
ENCODING 80
SWIDTH 500 0
DWIDTH 8 0
BBX 8 16 0 -2
BITMAP 
00
00
00
00
7C
42
42
42
7C
40
40
40
40
40
00
00
ENDCHAR
STARTCHAR U+0051
ENCODING 81
SWIDTH 500 0
DWIDTH 8 0
BBX 8 16 0 -2
BITMAP 
00
00
00
00
3C
42
42
42
42
42
42
5A
66
3C
03
00
ENDCHAR
STARTCHAR U+0052
ENCODING 82
SWIDTH 500 0
DWIDTH 8 0
BBX 8 16 0 -2
BITMAP 
00
00
00
00
7C
42
42
42
7C
48
44
44
42
42
00
00
ENDCHAR
STARTCHAR U+0053
ENCODING 83
SWIDTH 500 0
DWIDTH 8 0
BBX 8 16 0 -2
BITMAP 
00
00
00
00
3C
42
42
40
30
0C
02
42
42
3C
00
00
ENDCHAR
STARTCHAR U+0054
ENCODING 84
SWIDTH 500 0
DWIDTH 8 0
BBX 8 16 0 -2
BITMAP 
00
00
00
00
7F
08
08
08
08
08
08
08
08
08
00
00
ENDCHAR
STARTCHAR U+0055
ENCODING 85
SWIDTH 500 0
DWIDTH 8 0
BBX 8 16 0 -2
BITMAP 
00
00
00
00
42
42
42
42
42
42
42
42
42
3C
00
00
ENDCHAR
STARTCHAR U+0056
ENCODING 86
SWIDTH 500 0
DWIDTH 8 0
BBX 8 16 0 -2
BITMAP 
00
00
00
00
41
41
41
22
22
22
14
14
08
08
00
00
ENDCHAR
STARTCHAR U+0057
ENCODING 87
SWIDTH 500 0
DWIDTH 8 0
BBX 8 16 0 -2
BITMAP 
00
00
00
00
42
42
42
42
5A
5A
66
66
42
42
00
00
ENDCHAR
STARTCHAR U+0058
ENCODING 88
SWIDTH 500 0
DWIDTH 8 0
BBX 8 16 0 -2
BITMAP 
00
00
00
00
42
42
24
24
18
18
24
24
42
42
00
00
ENDCHAR
STARTCHAR U+0059
ENCODING 89
SWIDTH 500 0
DWIDTH 8 0
BBX 8 16 0 -2
BITMAP 
00
00
00
00
41
41
22
22
14
08
08
08
08
08
00
00
ENDCHAR
STARTCHAR U+005A
ENCODING 90
SWIDTH 500 0
DWIDTH 8 0
BBX 8 16 0 -2
BITMAP 
00
00
00
00
7E
02
02
04
08
10
20
40
40
7E
00
00
ENDCHAR
STARTCHAR U+005B
ENCODING 91
SWIDTH 500 0
DWIDTH 8 0
BBX 8 16 0 -2
BITMAP 
00
00
00
0E
08
08
08
08
08
08
08
08
08
08
0E
00
ENDCHAR
STARTCHAR U+005C
ENCODING 92
SWIDTH 500 0
DWIDTH 8 0
BBX 8 16 0 -2
BITMAP 
00
00
00
00
40
40
20
10
10
08
08
04
02
02
00
00
ENDCHAR
STARTCHAR U+005D
ENCODING 93
SWIDTH 500 0
DWIDTH 8 0
BBX 8 16 0 -2
BITMAP 
00
00
00
70
10
10
10
10
10
10
10
10
10
10
70
00
ENDCHAR
STARTCHAR U+005E
ENCODING 94
SWIDTH 500 0
DWIDTH 8 0
BBX 8 16 0 -2
BITMAP 
00
00
18
24
42
00
00
00
00
00
00
00
00
00
00
00
ENDCHAR
STARTCHAR U+005F
ENCODING 95
SWIDTH 500 0
DWIDTH 8 0
BBX 8 16 0 -2
BITMAP 
00
00
00
00
00
00
00
00
00
00
00
00
00
00
7F
00
ENDCHAR
STARTCHAR U+0060
ENCODING 96
SWIDTH 500 0
DWIDTH 8 0
BBX 8 16 0 -2
BITMAP 
00
00
18
10
10
08
00
00
00
00
00
00
00
00
00
00
ENDCHAR
STARTCHAR U+0061
ENCODING 97
SWIDTH 500 0
DWIDTH 8 0
BBX 8 16 0 -2
BITMAP 
00
00
00
00
00
00
3C
42
02
3E
42
42
46
3A
00
00
ENDCHAR
STARTCHAR U+0062
ENCODING 98
SWIDTH 500 0
DWIDTH 8 0
BBX 8 16 0 -2
BITMAP 
00
00
00
40
40
40
5C
62
42
42
42
42
62
5C
00
00
ENDCHAR
STARTCHAR U+0063
ENCODING 99
SWIDTH 500 0
DWIDTH 8 0
BBX 8 16 0 -2
BITMAP 
00
00
00
00
00
00
3C
42
40
40
40
40
42
3C
00
00
ENDCHAR
STARTCHAR U+0064
ENCODING 100
SWIDTH 500 0
DWIDTH 8 0
BBX 8 16 0 -2
BITMAP 
00
00
00
02
02
02
3A
46
42
42
42
42
46
3A
00
00
ENDCHAR
STARTCHAR U+0065
ENCODING 101
SWIDTH 500 0
DWIDTH 8 0
BBX 8 16 0 -2
BITMAP 
00
00
00
00
00
00
3C
42
42
7E
40
40
42
3C
00
00
ENDCHAR
STARTCHAR U+0066
ENCODING 102
SWIDTH 500 0
DWIDTH 8 0
BBX 8 16 0 -2
BITMAP 
00
00
00
0C
10
10
10
7C
10
10
10
10
10
10
00
00
ENDCHAR
STARTCHAR U+0067
ENCODING 103
SWIDTH 500 0
DWIDTH 8 0
BBX 8 16 0 -2
BITMAP 
00
00
00
00
00
02
3A
44
44
44
38
20
3C
42
42
3C
ENDCHAR
STARTCHAR U+0068
ENCODING 104
SWIDTH 500 0
DWIDTH 8 0
BBX 8 16 0 -2
BITMAP 
00
00
00
40
40
40
5C
62
42
42
42
42
42
42
00
00
ENDCHAR
STARTCHAR U+0069
ENCODING 105
SWIDTH 500 0
DWIDTH 8 0
BBX 8 16 0 -2
BITMAP 
00
00
00
08
08
00
18
08
08
08
08
08
08
3E
00
00
ENDCHAR
STARTCHAR U+006A
ENCODING 106
SWIDTH 500 0
DWIDTH 8 0
BBX 8 16 0 -2
BITMAP 
00
00
00
04
04
00
0C
04
04
04
04
04
04
04
48
30
ENDCHAR
STARTCHAR U+006B
ENCODING 107
SWIDTH 500 0
DWIDTH 8 0
BBX 8 16 0 -2
BITMAP 
00
00
00
00
40
40
44
48
50
60
50
48
44
42
00
00
ENDCHAR
STARTCHAR U+006C
ENCODING 108
SWIDTH 500 0
DWIDTH 8 0
BBX 8 16 0 -2
BITMAP 
00
00
00
00
18
08
08
08
08
08
08
08
08
3E
00
00
ENDCHAR
STARTCHAR U+006D
ENCODING 109
SWIDTH 500 0
DWIDTH 8 0
BBX 8 16 0 -2
BITMAP 
00
00
00
00
00
00
76
49
49
49
49
49
49
49
00
00
ENDCHAR
STARTCHAR U+006E
ENCODING 110
SWIDTH 500 0
DWIDTH 8 0
BBX 8 16 0 -2
BITMAP 
00
00
00
00
00
00
5C
62
42
42
42
42
42
42
00
00
ENDCHAR
STARTCHAR U+006F
ENCODING 111
SWIDTH 500 0
DWIDTH 8 0
BBX 8 16 0 -2
BITMAP 
00
00
00
00
00
00
3C
42
42
42
42
42
42
3C
00
00
ENDCHAR
STARTCHAR U+0070
ENCODING 112
SWIDTH 500 0
DWIDTH 8 0
BBX 8 16 0 -2
BITMAP 
00
00
00
00
00
00
5C
62
42
42
42
42
62
5C
40
40
ENDCHAR
STARTCHAR U+0071
ENCODING 113
SWIDTH 500 0
DWIDTH 8 0
BBX 8 16 0 -2
BITMAP 
00
00
00
00
00
00
3A
46
42
42
42
42
46
3A
02
02
ENDCHAR
STARTCHAR U+0072
ENCODING 114
SWIDTH 500 0
DWIDTH 8 0
BBX 8 16 0 -2
BITMAP 
00
00
00
00
00
00
5C
62
42
40
40
40
40
40
00
00
ENDCHAR
STARTCHAR U+0073
ENCODING 115
SWIDTH 500 0
DWIDTH 8 0
BBX 8 16 0 -2
BITMAP 
00
00
00
00
00
00
3C
42
40
30
0C
02
42
3C
00
00
ENDCHAR
STARTCHAR U+0074
ENCODING 116
SWIDTH 500 0
DWIDTH 8 0
BBX 8 16 0 -2
BITMAP 
00
00
00
00
10
10
7C
10
10
10
10
10
10
0C
00
00
ENDCHAR
STARTCHAR U+0075
ENCODING 117
SWIDTH 500 0
DWIDTH 8 0
BBX 8 16 0 -2
BITMAP 
00
00
00
00
00
00
42
42
42
42
42
42
46
3A
00
00
ENDCHAR
STARTCHAR U+0076
ENCODING 118
SWIDTH 500 0
DWIDTH 8 0
BBX 8 16 0 -2
BITMAP 
00
00
00
00
00
00
42
42
42
24
24
24
18
18
00
00
ENDCHAR
STARTCHAR U+0077
ENCODING 119
SWIDTH 500 0
DWIDTH 8 0
BBX 8 16 0 -2
BITMAP 
00
00
00
00
00
00
41
49
49
49
49
49
49
36
00
00
ENDCHAR
STARTCHAR U+0078
ENCODING 120
SWIDTH 500 0
DWIDTH 8 0
BBX 8 16 0 -2
BITMAP 
00
00
00
00
00
00
42
42
24
18
18
24
42
42
00
00
ENDCHAR
STARTCHAR U+0079
ENCODING 121
SWIDTH 500 0
DWIDTH 8 0
BBX 8 16 0 -2
BITMAP 
00
00
00
00
00
00
42
42
42
42
42
26
1A
02
02
3C
ENDCHAR
STARTCHAR U+007A
ENCODING 122
SWIDTH 500 0
DWIDTH 8 0
BBX 8 16 0 -2
BITMAP 
00
00
00
00
00
00
7E
02
04
08
10
20
40
7E
00
00
ENDCHAR
STARTCHAR U+007B
ENCODING 123
SWIDTH 500 0
DWIDTH 8 0
BBX 8 16 0 -2
BITMAP 
00
00
00
0C
10
10
08
08
10
10
08
08
10
10
0C
00
ENDCHAR
STARTCHAR U+007C
ENCODING 124
SWIDTH 500 0
DWIDTH 8 0
BBX 8 16 0 -2
BITMAP 
00
00
08
08
08
08
08
08
08
08
08
08
08
08
08
08
ENDCHAR
STARTCHAR U+007D
ENCODING 125
SWIDTH 500 0
DWIDTH 8 0
BBX 8 16 0 -2
BITMAP 
00
00
00
30
08
08
10
10
08
08
10
10
08
08
30
00
ENDCHAR
STARTCHAR U+007E
ENCODING 126
SWIDTH 500 0
DWIDTH 8 0
BBX 8 16 0 -2
BITMAP 
00
00
00
31
49
46
00
00
00
00
00
00
00
00
00
00
ENDCHAR
STARTCHAR U+00B0
ENCODING 176
SWIDTH 500 0
DWIDTH 8 0
BBX 8 16 0 -2
BITMAP 
10
28
28
10
00
00
00
00
00
00
00
00
00
00
00
00
ENDCHAR
STARTCHAR U+00B5
ENCODING 181
SWIDTH 500 0
DWIDTH 8 0
BBX 8 16 0 -2
BITMAP 
00
00
00
00
00
00
00
00
22
22
22
22
36
2A
20
20
ENDCHAR
STARTCHAR U+00B7
ENCODING 183
SWIDTH 500 0
DWIDTH 8 0
BBX 8 16 0 -2
BITMAP 
00
00
00
00
00
00
00
00
18
18
00
00
00
00
00
00
ENDCHAR
STARTCHAR U+03A9
ENCODING 937
SWIDTH 500 0
DWIDTH 8 0
BBX 8 16 0 -2
BITMAP 
00
00
00
00
3E
41
41
41
41
41
22
14
14
77
00
00
ENDCHAR
STARTCHAR U+3000
ENCODING 12288
SWIDTH 1000 0
DWIDTH 16 0
BBX 16 16 0 -2
BITMAP 
0000
0000
0000
0000
0000
0000
0000
0000
0000
0000
0000
0000
0000
0000
0000
0000
ENDCHAR
STARTCHAR U+3001
ENCODING 12289
SWIDTH 1000 0
DWIDTH 16 0
BBX 16 16 0 -2
BITMAP 
0000
0000
0000
0000
0000
0000
0000
0000
0000
0000
0000
0000
2000
1000
0800
0800
ENDCHAR
STARTCHAR U+3002
ENCODING 12290
SWIDTH 1000 0
DWIDTH 16 0
BBX 16 16 0 -2
BITMAP 
0000
0000
0000
0000
0000
0000
0000
0000
0000
0000
0000
3000
4800
4800
3000
0000
ENDCHAR
STARTCHAR U+3003
ENCODING 12291
SWIDTH 1000 0
DWIDTH 16 0
BBX 16 16 0 -2
BITMAP 
0000
0000
0000
0000
0110
0110
0110
0220
0220
0440
0880
0000
0000
0000
0000
0000
ENDCHAR
STARTCHAR U+3005
ENCODING 12293
SWIDTH 1000 0
DWIDTH 16 0
BBX 16 16 0 -2
BITMAP 
0000
0100
0100
0100
01F8
0108
0208
0210
0410
09A0
1060
0010
0008
0008
0000
0000
ENDCHAR
STARTCHAR U+3006
ENCODING 12294
SWIDTH 1000 0
DWIDTH 16 0
BBX 16 16 0 -2
BITMAP 
0000
0002
0002
0004
0008
0190
0260
0440
04A0
0900
0A00
0C00
0800
1000
1000
0000
ENDCHAR
STARTCHAR U+3007
ENCODING 12295
SWIDTH 1000 0
DWIDTH 16 0
BBX 16 16 0 -2
BITMAP 
0000
03C0
0C30
1008
2004
2004
4002
4002
4002
4002
2004
2004
1008
0C30
03C0
0000
ENDCHAR
STARTCHAR U+3008
ENCODING 12296
SWIDTH 1000 0
DWIDTH 16 0
BBX 16 16 0 -2
BITMAP 
0008
0008
0010
0010
0020
0020
0040
0080
0080
0040
0020
0020
0010
0010
0008
0008
ENDCHAR
STARTCHAR U+3009
ENCODING 12297
SWIDTH 1000 0
DWIDTH 16 0
BBX 16 16 0 -2
BITMAP 
1000
1000
0800
0800
0400
0400
0200
0100
0100
0200
0400
0400
0800
0800
1000
1000
ENDCHAR
STARTCHAR U+300A
ENCODING 12298
SWIDTH 500 0
DWIDTH 8 0
BBX 8 16 0 -2
BITMAP 
05
06
06
0A
0C
0C
14
18
18
14
0C
0C
0A
06
06
05
ENDCHAR
STARTCHAR U+300B
ENCODING 12299
SWIDTH 500 0
DWIDTH 8 0
BBX 8 16 0 -2
BITMAP 
A0
60
60
50
30
30
28
18
18
28
30
30
50
60
60
A0
ENDCHAR
STARTCHAR U+300C
ENCODING 12300
SWIDTH 1000 0
DWIDTH 16 0
BBX 16 16 0 -2
BITMAP 
00F8
0080
0080
0080
0080
0080
0080
0080
0080
0080
0080
0000
0000
0000
0000
0000
ENDCHAR
STARTCHAR U+300D
ENCODING 12301
SWIDTH 1000 0
DWIDTH 16 0
BBX 16 16 0 -2
BITMAP 
0000
0000
0000
0000
0000
0100
0100
0100
0100
0100
0100
0100
0100
0100
0100
1F00
ENDCHAR
STARTCHAR U+300E
ENCODING 12302
SWIDTH 1000 0
DWIDTH 16 0
BBX 16 16 0 -2
BITMAP 
01F8
0108
0178
0140
0140
0140
0140
0140
0140
0140
01C0
0000
0000
0000
0000
0000
ENDCHAR
STARTCHAR U+300F
ENCODING 12303
SWIDTH 1000 0
DWIDTH 16 0
BBX 16 16 0 -2
BITMAP 
0000
0000
0000
0000
0000
0380
0280
0280
0280
0280
0280
0280
0280
1E80
1080
1F80
ENDCHAR
STARTCHAR U+3010
ENCODING 12304
SWIDTH 1000 0
DWIDTH 16 0
BBX 16 16 0 -2
BITMAP 
00F8
00F0
00E0
00C0
00C0
0080
0080
0080
0080
0080
0080
00C0
00C0
00E0
00F0
00F8
ENDCHAR
STARTCHAR U+3011
ENCODING 12305
SWIDTH 1000 0
DWIDTH 16 0
BBX 16 16 0 -2
BITMAP 
1F00
0F00
0700
0300
0300
0100
0100
0100
0100
0100
0100
0300
0300
0700
0F00
1F00
ENDCHAR
STARTCHAR U+3012
ENCODING 12306
SWIDTH 1000 0
DWIDTH 16 0
BBX 16 16 0 -2
BITMAP 
0000
3FFC
3FFC
0000
0000
7FFE
7FFE
0180
0180
0180
0180
0180
0180
0180
0180
0000
ENDCHAR
STARTCHAR U+3013
ENCODING 12307
SWIDTH 1000 0
DWIDTH 16 0
BBX 16 16 0 -2
BITMAP 
0000
0000
0000
3FFE
3FFE
3FFE
0000
0000
0000
0000
3FFE
3FFE
3FFE
0000
0000
0000
ENDCHAR
STARTCHAR U+3014
ENCODING 12308
SWIDTH 1000 0
DWIDTH 16 0
BBX 16 16 0 -2
BITMAP 
0008
0030
00C0
0080
0080
0080
0080
0080
0080
0080
0080
0080
0080
00C0
0030
0008
ENDCHAR
STARTCHAR U+3015
ENCODING 12309
SWIDTH 1000 0
DWIDTH 16 0
BBX 16 16 0 -2
BITMAP 
1000
0C00
0300
0100
0100
0100
0100
0100
0100
0100
0100
0100
0100
0300
0C00
1000
ENDCHAR
STARTCHAR U+3016
ENCODING 12310
SWIDTH 1000 0
DWIDTH 16 0
BBX 16 16 0 -2
BITMAP 
01FC
0108
0110
0120
0120
0140
0140
0140
0140
0140
0140
0120
0120
0110
0108
01FC
ENDCHAR
STARTCHAR U+3017
ENCODING 12311
SWIDTH 1000 0
DWIDTH 16 0
BBX 16 16 0 -2
BITMAP 
3F80
1080
0880
0480
0480
0280
0280
0280
0280
0280
0280
0480
0480
0880
1080
3F80
ENDCHAR
STARTCHAR U+3018
ENCODING 12312
SWIDTH 1000 0
DWIDTH 16 0
BBX 16 16 0 -2
BITMAP 
001C
0060
018C
0130
0120
0120
0120
0120
0120
0120
0120
0120
0130
018C
0060
001C
ENDCHAR
STARTCHAR U+3019
ENCODING 12313
SWIDTH 1000 0
DWIDTH 16 0
BBX 16 16 0 -2
BITMAP 
3800
0600
3180
0C80
0480
0480
0480
0480
0480
0480
0480
0480
0C80
3180
0600
3800
ENDCHAR
STARTCHAR U+301A
ENCODING 12314
SWIDTH 500 0
DWIDTH 8 0
BBX 8 16 0 -2
BITMAP 
00
00
3C
30
30
30
30
30
30
30
30
30
30
3C
00
00
ENDCHAR
STARTCHAR U+301B
ENCODING 12315
SWIDTH 500 0
DWIDTH 8 0
BBX 8 16 0 -2
BITMAP 
00
00
3C
0C
0C
0C
0C
0C
0C
0C
0C
0C
0C
3C
00
00
ENDCHAR
STARTCHAR U+301C
ENCODING 12316
SWIDTH 1000 0
DWIDTH 16 0
BBX 16 16 0 -2
BITMAP 
0000
0000
0000
0000
0000
0000
1C00
2302
40C4
0038
0000
0000
0000
0000
0000
0000
ENDCHAR
STARTCHAR U+301D
ENCODING 12317
SWIDTH 1000 0
DWIDTH 16 0
BBX 16 16 0 -2
BITMAP 
0000
0110
0198
00CC
0044
0000
0000
0000
0000
0000
0000
0000
0000
0000
0000
0000
ENDCHAR
STARTCHAR U+301E
ENCODING 12318
SWIDTH 1000 0
DWIDTH 16 0
BBX 16 16 0 -2
BITMAP 
0000
00EE
00CC
0088
0110
0000
0000
0000
0000
0000
0000
0000
0000
0000
0000
0000
ENDCHAR
STARTCHAR U+301F
ENCODING 12319
SWIDTH 1000 0
DWIDTH 16 0
BBX 16 16 0 -2
BITMAP 
0000
0000
0000
0000
0000
0000
0000
0000
0000
0000
0000
4400
6600
3300
1100
0000
ENDCHAR
STARTCHAR U+3020
ENCODING 12320
SWIDTH 1000 0
DWIDTH 16 0
BBX 16 16 0 -2
BITMAP 
0000
7FFE
7FFE
0000
7FFE
7FFE
599A
A5A5
A5A5
9999
4182
2424
23C4
1818
07E0
0000
ENDCHAR
STARTCHAR U+3021
ENCODING 12321
SWIDTH 1000 0
DWIDTH 16 0
BBX 16 16 0 -2
BITMAP 
0000
0180
0180
0180
0180
0180
0180
0180
0180
0180
0180
0180
0180
0180
0180
0080
ENDCHAR
STARTCHAR U+3022
ENCODING 12322
SWIDTH 1000 0
DWIDTH 16 0
BBX 16 16 0 -2
BITMAP 
0000
0060
0260
0660
0660
0660
0660
0660
0660
0660
0660
0660
0660
0260
0060
0020
ENDCHAR
STARTCHAR U+3023
ENCODING 12323
SWIDTH 1000 0
DWIDTH 16 0
BBX 16 16 0 -2
BITMAP 
0000
0018
0818
1818
1898
1998
1998
1998
1998
1998
1998
1998
1898
0818
0018
0008
ENDCHAR
STARTCHAR U+3024
ENCODING 12324
SWIDTH 1000 0
DWIDTH 16 0
BBX 16 16 0 -2
BITMAP 
0000
0000
600C
3018
1830
0C60
06C0
0380
0380
06C0
0C60
1830
3018
600C
0000
0000
ENDCHAR
STARTCHAR U+3025
ENCODING 12325
SWIDTH 1000 0
DWIDTH 16 0
BBX 16 16 0 -2
BITMAP 
0000
0000
0198
0198
0330
0360
03C0
01C0
0360
0630
0630
0630
0630
0660
03C0
0000
ENDCHAR
STARTCHAR U+3026
ENCODING 12326
SWIDTH 1000 0
DWIDTH 16 0
BBX 16 16 0 -2
BITMAP 
0000
0000
0000
0100
0180
0180
0180
0188
3FFC
3FFE
0000
0000
0000
0000
0000
0000
ENDCHAR
STARTCHAR U+3027
ENCODING 12327
SWIDTH 1000 0
DWIDTH 16 0
BBX 16 16 0 -2
BITMAP 
0000
0000
0100
0180
0180
0188
7FFC
7FFE
0000
0020
1FF0
1FF8
0000
0000
0000
0000
ENDCHAR
STARTCHAR U+3028
ENCODING 12328
SWIDTH 1000 0
DWIDTH 16 0
BBX 16 16 0 -2
BITMAP 
0000
0200
0300
0300
0320
7FF0
7FF8
0000
0000
1FE0
1FE0
0000
0008
FFFC
FFFE
0000
ENDCHAR
STARTCHAR U+3029
ENCODING 12329
SWIDTH 1000 0
DWIDTH 16 0
BBX 16 16 0 -2
BITMAP 
0000
0100
0300
0600
0FF8
1FFC
1818
0C30
0660
03C0
0180
03C0
0670
1C3E
380C
0000
ENDCHAR
STARTCHAR U+3033
ENCODING 12339
SWIDTH 1000 0
DWIDTH 16 0
BBX 16 16 0 -2
BITMAP 
0000
0000
0000
0000
0000
1C00
0700
01C0
0060
0030
0018
000C
0006
0003
0000
0000
ENDCHAR
STARTCHAR U+3034
ENCODING 12340
SWIDTH 1000 0
DWIDTH 16 0
BBX 16 16 0 -2
BITMAP 
0000
0600
0C00
0180
0300
1C00
0700
0180
0060
0030
0018
000C
0006
0003
0000
0000
ENDCHAR
STARTCHAR U+3035
ENCODING 12341
SWIDTH 1000 0
DWIDTH 16 0
BBX 16 16 0 -2
BITMAP 
0000
0000
0000
0000
0000
0018
0070
00C0
0380
0600
0C00
3800
6000
C000
0000
0000
ENDCHAR
STARTCHAR U+303F
ENCODING 12351
SWIDTH 500 0
DWIDTH 8 0
BBX 8 16 0 -2
BITMAP 
00
00
00
00
FE
C6
AA
AA
92
AA
AA
C6
FE
00
00
00
ENDCHAR
STARTCHAR U+3131
ENCODING 12593
SWIDTH 1000 0
DWIDTH 16 0
BBX 16 16 0 -2
BITMAP 
0000
0000
0000
0000
1FF8
0008
0008
0008
0008
0008
0008
0008
0000
0000
0000
0000
ENDCHAR
STARTCHAR U+3132
ENCODING 12594
SWIDTH 1000 0
DWIDTH 16 0
BBX 16 16 0 -2
BITMAP 
0000
0000
0000
0000
0000
3E7C
0204
0204
0204
0204
0204
0204
0004
0000
0000
0000
ENDCHAR
STARTCHAR U+3133
ENCODING 12595
SWIDTH 1000 0
DWIDTH 16 0
BBX 16 16 0 -2
BITMAP 
0000
0000
0000
0000
3E20
0220
0220
0220
0250
0250
0288
0284
0000
0000
0000
0000
ENDCHAR
STARTCHAR U+3134
ENCODING 12596
SWIDTH 1000 0
DWIDTH 16 0
BBX 16 16 0 -2
BITMAP 
0000
0000
0000
0000
1000
1000
1000
1000
1000
1000
1FF8
0000
0000
0000
0000
0000
ENDCHAR
STARTCHAR U+3135
ENCODING 12597
SWIDTH 1000 0
DWIDTH 16 0
BBX 16 16 0 -2
BITMAP 
0000
0000
0000
0000
20FC
2020
2020
2030
2050
2048
2088
3D04
0000
0000
0000
0000
ENDCHAR
STARTCHAR U+3136
ENCODING 12598
SWIDTH 1000 0
DWIDTH 16 0
BBX 16 16 0 -2
BITMAP 
0000
0000
0000
0000
2070
2000
21FC
2000
2070
2088
2088
2688
1870
0000
0000
0000
ENDCHAR
STARTCHAR U+3137
ENCODING 12599
SWIDTH 1000 0
DWIDTH 16 0
BBX 16 16 0 -2
BITMAP 
0000
0000
0000
0000
1FF8
1000
1000
1000
1000
1000
1FF8
0000
0000
0000
0000
0000
ENDCHAR
STARTCHAR U+3138
ENCODING 12600
SWIDTH 1000 0
DWIDTH 16 0
BBX 16 16 0 -2
BITMAP 
0000
0000
0000
0000
3EF8
2080
2080
2080
2080
2080
3E80
00FC
0000
0000
0000
0000
ENDCHAR
STARTCHAR U+3139
ENCODING 12601
SWIDTH 1000 0
DWIDTH 16 0
BBX 16 16 0 -2
BITMAP 
0000
0000
0000
0000
3FF0
0010
0010
1FF0
1000
1000
1000
1FF8
0000
0000
0000
0000
ENDCHAR
STARTCHAR U+313A
ENCODING 12602
SWIDTH 1000 0
DWIDTH 16 0
BBX 16 16 0 -2
BITMAP 
0000
0000
0000
0000
3E7C
0204
0204
0204
3E04
2004
2104
3E04
0000
0000
0000
0000
ENDCHAR
STARTCHAR U+313B
ENCODING 12603
SWIDTH 1000 0
DWIDTH 16 0
BBX 16 16 0 -2
BITMAP 
0000
0000
0000
0000
3E7C
0244
0244
3E44
2044
2044
2044
3E7C
0040
0000
0000
0000
ENDCHAR
STARTCHAR U+313C
ENCODING 12604
SWIDTH 1000 0
DWIDTH 16 0
BBX 16 16 0 -2
BITMAP 
0000
0000
0000
0000
3E44
0244
0244
027C
3E44
2044
2044
207C
3E00
0000
0000
0000
ENDCHAR
STARTCHAR U+313D
ENCODING 12605
SWIDTH 1000 0
DWIDTH 16 0
BBX 16 16 0 -2
BITMAP 
0000
0000
0000
0000
3E20
0220
0220
0220
3E50
2050
2088
2084
3E00
0000
0000
0000
ENDCHAR
STARTCHAR U+313E
ENCODING 12606
SWIDTH 1000 0
DWIDTH 16 0
BBX 16 16 0 -2
BITMAP 
0000
0000
0000
0000
3E7C
0240
0240
0240
3E7C
2040
2040
2040
3F7C
0000
0000
0000
ENDCHAR
STARTCHAR U+313F
ENCODING 12607
SWIDTH 1000 0
DWIDTH 16 0
BBX 16 16 0 -2
BITMAP 
0000
0000
0000
0000
3EFC
0200
0208
3E48
2050
2050
2250
3DFC
0000
0000
0000
0000
ENDCHAR
STARTCHAR U+3140
ENCODING 12608
SWIDTH 1000 0
DWIDTH 16 0
BBX 16 16 0 -2
BITMAP 
0000
0000
0000
0000
7C70
0400
05FC
0400
3C78
2084
2084
2084
3E78
0000
0000
0000
ENDCHAR
STARTCHAR U+3141
ENCODING 12609
SWIDTH 1000 0
DWIDTH 16 0
BBX 16 16 0 -2
BITMAP 
0000
0000
0000
0000
1FF8
1008
1008
1008
1008
1008
1008
1FF8
1000
0000
0000
0000
ENDCHAR
STARTCHAR U+3142
ENCODING 12610
SWIDTH 1000 0
DWIDTH 16 0
BBX 16 16 0 -2
BITMAP 
0000
0000
0000
0000
1008
1008
1008
1FF8
1008
1008
1008
1FF8
0000
0000
0000
0000
ENDCHAR
STARTCHAR U+3143
ENCODING 12611
SWIDTH 1000 0
DWIDTH 16 0
BBX 16 16 0 -2
BITMAP 
0000
0000
0000
0000
2044
2244
2244
3E7C
2244
2244
2244
3E7C
0000
0000
0000
0000
ENDCHAR
STARTCHAR U+3144
ENCODING 12612
SWIDTH 1000 0
DWIDTH 16 0
BBX 16 16 0 -2
BITMAP 
0000
0000
0000
0000
2220
2220
2220
3E20
2250
2250
2288
3F04
0000
0000
0000
0000
ENDCHAR
STARTCHAR U+3145
ENCODING 12613
SWIDTH 1000 0
DWIDTH 16 0
BBX 16 16 0 -2
BITMAP 
0000
0000
0000
0000
0000
0100
0180
0180
0280
0240
0420
1818
2004
0000
0000
0000
ENDCHAR
STARTCHAR U+3146
ENCODING 12614
SWIDTH 1000 0
DWIDTH 16 0
BBX 16 16 0 -2
BITMAP 
0000
0000
0000
0000
0420
0420
0420
0420
0A50
0950
1088
0100
0000
0000
0000
0000
ENDCHAR
STARTCHAR U+3147
ENCODING 12615
SWIDTH 1000 0
DWIDTH 16 0
BBX 16 16 0 -2
BITMAP 
0000
0000
0000
0000
07E0
0810
1008
1008
1008
1008
0810
07E0
0000
0000
0000
0000
ENDCHAR
STARTCHAR U+3148
ENCODING 12616
SWIDTH 1000 0
DWIDTH 16 0
BBX 16 16 0 -2
BITMAP 
0000
0000
0000
0000
1FF8
0100
0180
0180
0240
0420
0810
3008
0000
0000
0000
0000
ENDCHAR
STARTCHAR U+3149
ENCODING 12617
SWIDTH 1000 0
DWIDTH 16 0
BBX 16 16 0 -2
BITMAP 
0000
0000
0000
0000
1EF8
0420
0420
0420
0A50
0950
1088
0100
0000
0000
0000
0000
ENDCHAR
STARTCHAR U+314A
ENCODING 12618
SWIDTH 1000 0
DWIDTH 16 0
BBX 16 16 0 -2
BITMAP 
0000
0000
0000
07E0
0000
0000
1FF8
0180
0180
0240
0430
1808
0000
0000
0000
0000
ENDCHAR
STARTCHAR U+314B
ENCODING 12619
SWIDTH 1000 0
DWIDTH 16 0
BBX 16 16 0 -2
BITMAP 
0000
0000
0000
0000
1FF8
0008
0008
0008
1FC8
0008
0008
0010
0000
0000
0000
0000
ENDCHAR
STARTCHAR U+314C
ENCODING 12620
SWIDTH 1000 0
DWIDTH 16 0
BBX 16 16 0 -2
BITMAP 
0000
0000
0000
0000
1FF8
1000
1000
1000
1FF8
1000
1000
1FF8
0000
0000
0000
0000
ENDCHAR
STARTCHAR U+314D
ENCODING 12621
SWIDTH 1000 0
DWIDTH 16 0
BBX 16 16 0 -2
BITMAP 
0000
0000
0000
0000
1FF8
0000
0000
0420
0420
0420
0420
1FF8
0000
0000
0000
0000
ENDCHAR
STARTCHAR U+314E
ENCODING 12622
SWIDTH 1000 0
DWIDTH 16 0
BBX 16 16 0 -2
BITMAP 
0000
0000
0000
07E0
0000
1FF8
0000
07E0
0C30
0810
0810
0C30
07E0
0000
0000
0000
ENDCHAR
STARTCHAR U+314F
ENCODING 12623
SWIDTH 1000 0
DWIDTH 16 0
BBX 16 16 0 -2
BITMAP 
0000
0200
0200
0200
0200
0200
0200
0200
03E0
0200
0200
0200
0200
0200
0200
0000
ENDCHAR
STARTCHAR U+3150
ENCODING 12624
SWIDTH 1000 0
DWIDTH 16 0
BBX 16 16 0 -2
BITMAP 
0000
0420
0420
0420
0420
0420
0420
07E0
0420
0420
0420
0420
0420
0420
0020
0000
ENDCHAR
STARTCHAR U+3151
ENCODING 12625
SWIDTH 1000 0
DWIDTH 16 0
BBX 16 16 0 -2
BITMAP 
0000
0200
0200
0200
0200
0200
03E0
0200
0200
0200
03E0
0200
0200
0200
0200
0000
ENDCHAR
STARTCHAR U+3152
ENCODING 12626
SWIDTH 1000 0
DWIDTH 16 0
BBX 16 16 0 -2
BITMAP 
0000
0420
0420
0420
0420
07E0
0420
0420
0420
07E0
0420
0420
0420
0420
0020
0000
ENDCHAR
STARTCHAR U+3153
ENCODING 12627
SWIDTH 1000 0
DWIDTH 16 0
BBX 16 16 0 -2
BITMAP 
0000
0020
0020
0020
0020
0020
0020
07E0
0020
0020
0020
0020
0020
0020
0020
0000
ENDCHAR
STARTCHAR U+3154
ENCODING 12628
SWIDTH 1000 0
DWIDTH 16 0
BBX 16 16 0 -2
BITMAP 
0000
0010
0090
0090
0090
0090
0090
0F90
0090
0090
0090
0090
0090
0090
0010
0000
ENDCHAR
STARTCHAR U+3155
ENCODING 12629
SWIDTH 1000 0
DWIDTH 16 0
BBX 16 16 0 -2
BITMAP 
0000
0020
0020
0020
0020
07E0
0020
0020
0020
0020
07E0
0020
0020
0020
0020
0000
ENDCHAR
STARTCHAR U+3156
ENCODING 12630
SWIDTH 1000 0
DWIDTH 16 0
BBX 16 16 0 -2
BITMAP 
0000
0090
0090
0090
0090
0F90
0090
0090
0090
0090
0F90
0090
0090
0090
0090
0000
ENDCHAR
STARTCHAR U+3157
ENCODING 12631
SWIDTH 1000 0
DWIDTH 16 0
BBX 16 16 0 -2
BITMAP 
0000
0000
0000
0000
0100
0100
0100
0100
0100
0100
0100
7FFC
0000
0000
0000
0000
ENDCHAR
STARTCHAR U+3158
ENCODING 12632
SWIDTH 1000 0
DWIDTH 16 0
BBX 16 16 0 -2
BITMAP 
0000
0010
0010
0010
0410
0410
0410
0410
041E
0410
7FF0
0010
0010
0010
0010
0000
ENDCHAR
STARTCHAR U+3159
ENCODING 12633
SWIDTH 1000 0
DWIDTH 16 0
BBX 16 16 0 -2
BITMAP 
0000
0004
0024
0024
0024
0424
0424
0424
043C
0424
0FE4
1024
0024
0024
0004
0000
ENDCHAR
STARTCHAR U+315A
ENCODING 12634
SWIDTH 1000 0
DWIDTH 16 0
BBX 16 16 0 -2
BITMAP 
0000
0004
0004
0004
0104
0104
0104
0104
0104
0104
01FC
1E04
0004
0004
0004
0000
ENDCHAR
STARTCHAR U+315B
ENCODING 12635
SWIDTH 1000 0
DWIDTH 16 0
BBX 16 16 0 -2
BITMAP 
0000
0000
0000
0000
0C20
0420
0420
0420
0420
0420
7FFC
0000
0000
0000
0000
0000
ENDCHAR
STARTCHAR U+315C
ENCODING 12636
SWIDTH 1000 0
DWIDTH 16 0
BBX 16 16 0 -2
BITMAP 
0000
0000
0000
0000
0000
3FFE
0080
0080
0080
0080
0080
0080
0080
0080
0080
0000
ENDCHAR
STARTCHAR U+315D
ENCODING 12637
SWIDTH 1000 0
DWIDTH 16 0
BBX 16 16 0 -2
BITMAP 
0000
0004
0004
0004
0004
1FF4
0104
0104
013C
0104
0104
0104
0104
0104
0004
0000
ENDCHAR
STARTCHAR U+315E
ENCODING 12638
SWIDTH 1000 0
DWIDTH 16 0
BBX 16 16 0 -2
BITMAP 
0000
0004
0024
0024
0024
3FA4
0424
0424
05E4
0424
0424
0424
0424
0024
0024
0000
ENDCHAR
STARTCHAR U+315F
ENCODING 12639
SWIDTH 1000 0
DWIDTH 16 0
BBX 16 16 0 -2
BITMAP 
0000
0004
0004
0004
0004
00FC
3F04
0104
0104
0104
0104
0104
0104
0004
0004
0000
ENDCHAR
STARTCHAR U+3160
ENCODING 12640
SWIDTH 1000 0
DWIDTH 16 0
BBX 16 16 0 -2
BITMAP 
0000
0000
0000
0000
0000
7FFE
0420
0420
0420
0420
0420
0420
0420
0420
0420
0000
ENDCHAR
STARTCHAR U+3161
ENCODING 12641
SWIDTH 1000 0
DWIDTH 16 0
BBX 16 16 0 -2
BITMAP 
0000
0000
0000
0000
0000
0000
0000
0000
7FFE
0000
0000
0000
0000
0000
0000
0000
ENDCHAR
STARTCHAR U+3162
ENCODING 12642
SWIDTH 1000 0
DWIDTH 16 0
BBX 16 16 0 -2
BITMAP 
0000
0004
0004
0004
0004
0004
0004
0004
000C
07F4
0804
0004
0004
0004
0004
0000
ENDCHAR
STARTCHAR U+3163
ENCODING 12643
SWIDTH 1000 0
DWIDTH 16 0
BBX 16 16 0 -2
BITMAP 
0000
0100
0100
0100
0100
0100
0100
0100
0100
0100
0100
0100
0100
0100
0100
0000
ENDCHAR
STARTCHAR U+3164
ENCODING 12644
SWIDTH 1000 0
DWIDTH 16 0
BBX 16 16 0 -2
BITMAP 
0000
0000
0000
0000
0000
0000
0000
0000
0000
0000
0000
0000
0000
0000
0000
0000
ENDCHAR
STARTCHAR U+3165
ENCODING 12645
SWIDTH 1000 0
DWIDTH 16 0
BBX 16 16 0 -2
BITMAP 
0000
0000
0000
0000
2080
2080
2080
2080
2080
2080
2080
3EFC
0000
0000
0000
0000
ENDCHAR
STARTCHAR U+3166
ENCODING 12646
SWIDTH 1000 0
DWIDTH 16 0
BBX 16 16 0 -2
BITMAP 
0000
0000
0000
0000
20FC
2080
2080
2080
2080
2080
2280
3CFC
0000
0000
0000
0000
ENDCHAR
STARTCHAR U+3167
ENCODING 12647
SWIDTH 1000 0
DWIDTH 16 0
BBX 16 16 0 -2
BITMAP 
0000
0000
0000
0000
2020
2020
2020
2020
2050
2050
2088
3F04
0000
0000
0000
0000
ENDCHAR
STARTCHAR U+3168
ENCODING 12648
SWIDTH 1000 0
DWIDTH 16 0
BBX 16 16 0 -2
BITMAP 
0000
0000
0000
0000
2000
2020
2060
2050
2090
2088
2308
1DFC
0000
0000
0000
0000
ENDCHAR
STARTCHAR U+3169
ENCODING 12649
SWIDTH 1000 0
DWIDTH 16 0
BBX 16 16 0 -2
BITMAP 
0000
0000
0000
0000
7B90
0890
0890
3890
2098
2098
20A4
3EA0
0000
0000
0000
0000
ENDCHAR
STARTCHAR U+316A
ENCODING 12650
SWIDTH 1000 0
DWIDTH 16 0
BBX 16 16 0 -2
BITMAP 
0000
0000
0000
0000
3E7C
0240
0240
0240
3E40
2040
2040
3E7C
0000
0000
0000
0000
ENDCHAR
STARTCHAR U+316B
ENCODING 12651
SWIDTH 1000 0
DWIDTH 16 0
BBX 16 16 0 -2
BITMAP 
0000
0000
0000
0000
3A48
0A48
0A48
3BC8
2248
2254
2254
3FE2
0000
0000
0000
0000
ENDCHAR
STARTCHAR U+316C
ENCODING 12652
SWIDTH 1000 0
DWIDTH 16 0
BBX 16 16 0 -2
BITMAP 
0000
0000
0000
0000
3E10
0230
0230
3E48
2048
2048
2084
3EFC
0000
0000
0000
0000
ENDCHAR
STARTCHAR U+316D
ENCODING 12653
SWIDTH 1000 0
DWIDTH 16 0
BBX 16 16 0 -2
BITMAP 
0000
0000
0000
0000
3EFC
0200
0230
3EC8
2084
2084
20CC
3E78
0000
0000
0000
0000
ENDCHAR
STARTCHAR U+316E
ENCODING 12654
SWIDTH 1000 0
DWIDTH 16 0
BBX 16 16 0 -2
BITMAP 
0000
0000
0000
0000
0004
3E44
2244
227C
2244
2244
2244
3E7C
2000
0000
0000
0000
ENDCHAR
STARTCHAR U+316F
ENCODING 12655
SWIDTH 1000 0
DWIDTH 16 0
BBX 16 16 0 -2
BITMAP 
0000
0000
0000
0000
0020
3E20
2220
2220
2250
2248
2284
3E00
2000
0000
0000
0000
ENDCHAR
STARTCHAR U+3170
ENCODING 12656
SWIDTH 1000 0
DWIDTH 16 0
BBX 16 16 0 -2
BITMAP 
0000
0000
0000
0000
0000
3E30
2230
2250
2248
2248
2284
3EFC
2000
0000
0000
0000
ENDCHAR
STARTCHAR U+3171
ENCODING 12657
SWIDTH 1000 0
DWIDTH 16 0
BBX 16 16 0 -2
BITMAP 
0000
0000
0000
0FF0
0810
0810
0810
0FF0
03C0
0420
0810
0820
0420
03C0
0000
0000
ENDCHAR
STARTCHAR U+3172
ENCODING 12658
SWIDTH 1000 0
DWIDTH 16 0
BBX 16 16 0 -2
BITMAP 
0000
0000
0000
0000
017C
2104
2104
3F04
2104
2104
2104
3F04
0000
0000
0000
0000
ENDCHAR
STARTCHAR U+3173
ENCODING 12659
SWIDTH 1000 0
DWIDTH 16 0
BBX 16 16 0 -2
BITMAP 
0000
0000
0000
0000
0200
227C
2240
3E40
2240
2240
2240
3E7E
0000
0000
0000
0000
ENDCHAR
STARTCHAR U+3174
ENCODING 12660
SWIDTH 1000 0
DWIDTH 16 0
BBX 16 16 0 -2
BITMAP 
0000
0000
0000
0000
04BC
2484
2484
3C84
24C4
2544
2524
3E14
0000
0000
0000
0000
ENDCHAR
STARTCHAR U+3175
ENCODING 12661
SWIDTH 1000 0
DWIDTH 16 0
BBX 16 16 0 -2
BITMAP 
0000
0000
0000
0000
293C
2920
2920
3920
2B20
2AA0
2AA0
3C7C
0000
0000
0000
0000
ENDCHAR
STARTCHAR U+3176
ENCODING 12662
SWIDTH 1000 0
DWIDTH 16 0
BBX 16 16 0 -2
BITMAP 
0000
0000
0000
0000
00FC
2220
2230
3E30
2230
2248
228C
3F04
0000
0000
0000
0000
ENDCHAR
STARTCHAR U+3177
ENCODING 12663
SWIDTH 1000 0
DWIDTH 16 0
BBX 16 16 0 -2
BITMAP 
0000
0000
0000
0000
007C
2240
2240
3E7C
2240
2240
2240
3E7E
0000
0000
0000
0000
ENDCHAR
STARTCHAR U+3178
ENCODING 12664
SWIDTH 1000 0
DWIDTH 16 0
BBX 16 16 0 -2
BITMAP 
0000
0000
0810
0810
0FF0
0810
0810
0FF0
0000
07E0
0C30
0810
0810
0C20
03C0
0000
ENDCHAR
STARTCHAR U+3179
ENCODING 12665
SWIDTH 1000 0
DWIDTH 16 0
BBX 16 16 0 -2
BITMAP 
0000
1048
1248
1E78
1248
1248
1248
1E78
0000
07E0
0C30
0810
0810
0810
0660
0000
ENDCHAR
STARTCHAR U+317A
ENCODING 12666
SWIDTH 1000 0
DWIDTH 16 0
BBX 16 16 0 -2
BITMAP 
0000
0000
0000
0000
04FC
0404
0404
0404
0A04
1104
1184
2084
0000
0000
0000
0000
ENDCHAR
STARTCHAR U+317B
ENCODING 12667
SWIDTH 1000 0
DWIDTH 16 0
BBX 16 16 0 -2
BITMAP 
0000
0000
0000
0000
0840
0840
0840
0C40
0C40
1240
2240
017E
0000
0000
0000
0000
ENDCHAR
STARTCHAR U+317C
ENCODING 12668
SWIDTH 1000 0
DWIDTH 16 0
BBX 16 16 0 -2
BITMAP 
0000
0000
0000
0000
087E
0840
0840
0C40
1440
1440
2240
217E
0000
0000
0000
0000
ENDCHAR
STARTCHAR U+317D
ENCODING 12669
SWIDTH 1000 0
DWIDTH 16 0
BBX 16 16 0 -2
BITMAP 
0000
0000
0000
0000
0800
0844
0844
087C
0C44
1444
1244
217C
0000
0000
0000
0000
ENDCHAR
STARTCHAR U+317E
ENCODING 12670
SWIDTH 1000 0
DWIDTH 16 0
BBX 16 16 0 -2
BITMAP 
0000
0000
0000
0000
087C
0810
0810
0810
1428
1428
2244
4080
0000
0000
0000
0000
ENDCHAR
STARTCHAR U+317F
ENCODING 12671
SWIDTH 1000 0
DWIDTH 16 0
BBX 16 16 0 -2
BITMAP 
0000
0000
0000
0000
0100
0280
0240
0440
0420
0810
0810
1FF8
0000
0000
0000
0000
ENDCHAR
STARTCHAR U+3180
ENCODING 12672
SWIDTH 1000 0
DWIDTH 16 0
BBX 16 16 0 -2
BITMAP 
0000
0000
0000
0000
1C38
2244
2244
4184
4182
4284
2244
3444
0838
0000
0000
0000
ENDCHAR
STARTCHAR U+3181
ENCODING 12673
SWIDTH 1000 0
DWIDTH 16 0
BBX 16 16 0 -2
BITMAP 
0000
0000
0000
0000
0100
0100
06E0
0810
0810
0810
0430
03C0
0000
0000
0000
0000
ENDCHAR
STARTCHAR U+3182
ENCODING 12674
SWIDTH 1000 0
DWIDTH 16 0
BBX 16 16 0 -2
BITMAP 
0000
0000
0000
0800
1810
2420
4210
4230
4230
4248
2444
1C84
0000
0000
0000
0000
ENDCHAR
STARTCHAR U+3183
ENCODING 12675
SWIDTH 1000 0
DWIDTH 16 0
BBX 16 16 0 -2
BITMAP 
0000
0000
0000
0000
0800
1420
2250
2250
2248
2288
3684
1CFC
0000
0000
0000
0000
ENDCHAR
STARTCHAR U+3184
ENCODING 12676
SWIDTH 1000 0
DWIDTH 16 0
BBX 16 16 0 -2
BITMAP 
0000
0000
1FF8
0000
0420
0420
0440
1FF8
0000
07E0
0C30
0810
0810
0C30
03C0
0000
ENDCHAR
STARTCHAR U+3185
ENCODING 12677
SWIDTH 1000 0
DWIDTH 16 0
BBX 16 16 0 -2
BITMAP 
0000
0000
0000
0000
1C38
0000
7FFE
0000
1C38
2244
2244
2244
1C38
0000
0000
0000
ENDCHAR
STARTCHAR U+3186
ENCODING 12678
SWIDTH 1000 0
DWIDTH 16 0
BBX 16 16 0 -2
BITMAP 
0000
0000
0000
0000
7FFE
0000
0000
03E0
0630
0410
0410
0410
0630
03E0
0000
0000
ENDCHAR
STARTCHAR U+3187
ENCODING 12679
SWIDTH 1000 0
DWIDTH 16 0
BBX 16 16 0 -2
BITMAP 
0000
0010
0010
0010
0910
0910
091E
0910
0910
0910
0FFE
7010
0010
0010
0010
0000
ENDCHAR
STARTCHAR U+3188
ENCODING 12680
SWIDTH 1000 0
DWIDTH 16 0
BBX 16 16 0 -2
BITMAP 
0000
0020
0024
0024
0024
093C
0924
0924
0924
093C
1FE4
0024
0024
0024
0004
0000
ENDCHAR
STARTCHAR U+3189
ENCODING 12681
SWIDTH 1000 0
DWIDTH 16 0
BBX 16 16 0 -2
BITMAP 
0000
0000
0008
0008
0448
0448
0448
0448
0448
0448
3FF8
0008
0008
0008
0008
0000
ENDCHAR
STARTCHAR U+318A
ENCODING 12682
SWIDTH 1000 0
DWIDTH 16 0
BBX 16 16 0 -2
BITMAP 
0000
0000
0004
0004
0004
3FC4
0484
049C
0484
0484
049C
0484
0484
0004
0004
0000
ENDCHAR
STARTCHAR U+318B
ENCODING 12683
SWIDTH 1000 0
DWIDTH 16 0
BBX 16 16 0 -2
BITMAP 
0000
0000
0014
0014
0014
0394
1D14
0974
0914
0914
0974
0914
0814
0014
0004
0000
ENDCHAR
STARTCHAR U+318C
ENCODING 12684
SWIDTH 1000 0
DWIDTH 16 0
BBX 16 16 0 -2
BITMAP 
0000
0000
0004
0004
0004
0004
3FFC
0444
0444
0444
0444
0444
0444
0004
0004
0000
ENDCHAR
STARTCHAR U+318D
ENCODING 12685
SWIDTH 1000 0
DWIDTH 16 0
BBX 16 16 0 -2
BITMAP 
0000
0000
0000
0000
0000
0000
0000
01C0
01C0
01C0
0000
0000
0000
0000
0000
0000
ENDCHAR
STARTCHAR U+318E
ENCODING 12686
SWIDTH 1000 0
DWIDTH 16 0
BBX 16 16 0 -2
BITMAP 
0000
0000
0010
0010
0010
0010
0010
0C10
0C10
0010
0010
0010
0010
0010
0010
0000
ENDCHAR
STARTCHAR U+AC00
ENCODING 44032
SWIDTH 1000 0
DWIDTH 16 0
BBX 16 16 0 -2
BITMAP 
0000
0008
3F08
0108
0108
0108
0208
0208
060F
0408
0808
3008
4008
0008
0008
0008
ENDCHAR
STARTCHAR U+AC01
ENCODING 44033
SWIDTH 1000 0
DWIDTH 16 0
BBX 16 16 0 -2
BITMAP 
0000
0008
7F08
0108
0108
0208
040F
1808
6008
0008
3FF8
0008
0008
0008
0008
0008
ENDCHAR
STARTCHAR U+AC04
ENCODING 44036
SWIDTH 1000 0
DWIDTH 16 0
BBX 16 16 0 -2
BITMAP 
0000
0008
7F08
0108
0108
0208
0208
040F
1808
6008
0008
1008
1008
1000
1FFC
0000
ENDCHAR
STARTCHAR U+AC07
ENCODING 44039
SWIDTH 1000 0
DWIDTH 16 0
BBX 16 16 0 -2
BITMAP 
0000
0008
7F08
0108
0108
020F
0408
0808
7008
0000
1FF8
1000
1000
1000
1FF8
0000
ENDCHAR
STARTCHAR U+AC08
ENCODING 44040
SWIDTH 1000 0
DWIDTH 16 0
BBX 16 16 0 -2
BITMAP 
0000
0008
7F08
0108
0108
020F
0408
1808
7008
0000
1FF8
0008
1FF8
1000
1FFC
0000
ENDCHAR
STARTCHAR U+AC09
ENCODING 44041
SWIDTH 1000 0
DWIDTH 16 0
BBX 16 16 0 -2
BITMAP 
0000
0008
7F08
0108
0108
020F
0408
1808
6008
3E00
02F8
0208
3E08
2008
2008
3E08
ENDCHAR
STARTCHAR U+AC0A
ENCODING 44042
SWIDTH 1000 0
DWIDTH 16 0
BBX 16 16 0 -2
BITMAP 
0000
0008
7F08
0108
0208
020F
0408
1808
6008
0000
3EF8
0288
3E88
2088
20F8
3C88
ENDCHAR
STARTCHAR U+AC10
ENCODING 44048
SWIDTH 1000 0
DWIDTH 16 0
BBX 16 16 0 -2
BITMAP 
0000
0008
7F08
0108
0108
0208
060F
0808
3008
4008
0000
1FF8
1008
1008
1FF8
1008
ENDCHAR
STARTCHAR U+AC11
ENCODING 44049
SWIDTH 1000 0
DWIDTH 16 0
BBX 16 16 0 -2
BITMAP 
0000
0008
7F08
0108
0108
0208
060F
0C08
7008
0008
1008
1008
1FF8
1008
1FF8
1008
ENDCHAR
STARTCHAR U+AC12
ENCODING 44050
SWIDTH 1000 0
DWIDTH 16 0
BBX 16 16 0 -2
BITMAP 
0000
0008
7F08
0108
0108
020F
0408
1808
6000
1100
1110
1F10
1128
1128
1F44
1100
ENDCHAR
STARTCHAR U+AC13
ENCODING 44051
SWIDTH 1000 0
DWIDTH 16 0
BBX 16 16 0 -2
BITMAP 
0000
0008
7F08
0108
0108
0108
020F
0408
0808
7008
0088
0080
0140
0220
0418
1804
ENDCHAR
STARTCHAR U+AC14
ENCODING 44052
SWIDTH 1000 0
DWIDTH 16 0
BBX 16 16 0 -2
BITMAP 
0000
0008
7F08
0108
0108
0208
020F
0408
1808
6008
0410
0410
0618
0A2C
1146
2082
ENDCHAR
STARTCHAR U+AC15
ENCODING 44053
SWIDTH 1000 0
DWIDTH 16 0
BBX 16 16 0 -2
BITMAP 
0000
0008
7F08
0108
0108
0208
020F
0408
1808
6008
0000
0FF0
1008
1008
1818
07E0
ENDCHAR
STARTCHAR U+AC16
ENCODING 44054
SWIDTH 1000 0
DWIDTH 16 0
BBX 16 16 0 -2
BITMAP 
0000
0008
7F08
0108
0108
0208
040F
0808
7008
0008
3FF8
0100
0180
02C0
0C60
3018
ENDCHAR
STARTCHAR U+AC17
ENCODING 44055
SWIDTH 1000 0
DWIDTH 16 0
BBX 16 16 0 -2
BITMAP 
0000
0008
7F08
0108
0208
020E
0408
1808
63C0
0000
1FF8
0180
0180
0240
0C30
1008
ENDCHAR
STARTCHAR U+AC19
ENCODING 44057
SWIDTH 1000 0
DWIDTH 16 0
BBX 16 16 0 -2
BITMAP 
0000
0008
7F08
0108
0108
020F
0608
0808
7008
0000
1FF8
1000
1FF8
1000
1FF8
0000
ENDCHAR
STARTCHAR U+AC1A
ENCODING 44058
SWIDTH 1000 0
DWIDTH 16 0
BBX 16 16 0 -2
BITMAP 
0000
0008
7F08
0108
0108
0208
060F
0808
7008
0000
1FF8
0440
0440
0440
3FF8
0000
ENDCHAR
STARTCHAR U+AC1B
ENCODING 44059
SWIDTH 1000 0
DWIDTH 16 0
BBX 16 16 0 -2
BITMAP 
0000
0008
7F08
0108
0108
020F
0408
0808
7008
03C0
1FFC
0000
0FF0
1008
1008
0FF0
ENDCHAR
STARTCHAR U+AC1C
ENCODING 44060
SWIDTH 1000 0
DWIDTH 16 0
BBX 16 16 0 -2
BITMAP 
0000
0024
3F24
0124
0124
0224
0224
0224
043C
0424
0824
1024
2024
0024
0024
0004
ENDCHAR
STARTCHAR U+AC1D
ENCODING 44061
SWIDTH 1000 0
DWIDTH 16 0
BBX 16 16 0 -2
BITMAP 
0000
0024
3F24
0124
0224
0224
043C
0C24
1824
2024
1FFC
0004
0004
0004
0004
0004
ENDCHAR
STARTCHAR U+AC20
ENCODING 44064
SWIDTH 1000 0
DWIDTH 16 0
BBX 16 16 0 -2
BITMAP 
0000
0024
3F24
0124
0124
0224
0224
043C
0824
3024
2024
0824
0804
0800
0FFE
0000
ENDCHAR
STARTCHAR U+AC24
ENCODING 44068
SWIDTH 1000 0
DWIDTH 16 0
BBX 16 16 0 -2
BITMAP 
0000
0024
3F24
0124
0124
023C
0224
0C24
1024
0000
0FFC
0004
0FFC
0800
0800
0FFE
ENDCHAR
STARTCHAR U+AC2C
ENCODING 44076
SWIDTH 1000 0
DWIDTH 16 0
BBX 16 16 0 -2
BITMAP 
0000
0004
3F24
0124
0224
0224
043C
0C24
1824
6024
0000
0FFC
0804
0804
0FFC
0804
ENDCHAR
STARTCHAR U+AC2D
ENCODING 44077
SWIDTH 1000 0
DWIDTH 16 0
BBX 16 16 0 -2
BITMAP 
0000
0024
3F24
0124
0224
023C
0424
0C24
3024
0000
0804
0804
0FFC
0804
0FFC
0804
ENDCHAR
STARTCHAR U+AC2F
ENCODING 44079
SWIDTH 1000 0
DWIDTH 16 0
BBX 16 16 0 -2
BITMAP 
0000
0044
3E44
0244
0244
0244
047C
0C44
1844
2044
0044
00C0
00C0
0120
0618
1804
ENDCHAR
STARTCHAR U+AC30
ENCODING 44080
SWIDTH 1000 0
DWIDTH 16 0
BBX 16 16 0 -2
BITMAP 
0000
0024
7E24
0224
0224
0424
043C
0824
1024
6004
0208
0608
0618
0A18
1024
2042
ENDCHAR
STARTCHAR U+AC31
ENCODING 44081
SWIDTH 1000 0
DWIDTH 16 0
BBX 16 16 0 -2
BITMAP 
0000
0024
3F24
0224
0224
0224
043C
0424
1824
3024
07F8
1804
1002
1002
0806
07F8
ENDCHAR
STARTCHAR U+AC38
ENCODING 44088
SWIDTH 1000 0
DWIDTH 16 0
BBX 16 16 0 -2
BITMAP 
0000
0008
7F08
0108
0108
0108
010F
0208
0208
0408
080F
3008
4008
0008
0008
0008
ENDCHAR
STARTCHAR U+AC39
ENCODING 44089
SWIDTH 1000 0
DWIDTH 16 0
BBX 16 16 0 -2
BITMAP 
0000
0008
7F08
0108
010E
0208
0608
0C0E
3008
4008
0000
3FF8
0008
0008
0008
0008
ENDCHAR
STARTCHAR U+AC3C
ENCODING 44092
SWIDTH 1000 0
DWIDTH 16 0
BBX 16 16 0 -2
BITMAP 
0000
0008
7F08
0108
010F
0208
0208
0408
180F
6008
0008
1008
1000
1000
1FFC
0000
ENDCHAR
STARTCHAR U+AC40
ENCODING 44096
SWIDTH 1000 0
DWIDTH 16 0
BBX 16 16 0 -2
BITMAP 
0000
0008
7F08
0108
010F
0208
0408
180F
6008
0000
1FF8
0008
1FF8
1000
1FFC
0000
ENDCHAR
STARTCHAR U+AC4B
ENCODING 44107
SWIDTH 1000 0
DWIDTH 16 0
BBX 16 16 0 -2
BITMAP 
0000
0008
7F08
0108
010F
0208
0208
040F
1808
6008
0088
00C0
01C0
0120
0618
1804
ENDCHAR
STARTCHAR U+AC4D
ENCODING 44109
SWIDTH 1000 0
DWIDTH 16 0
BBX 16 16 0 -2
BITMAP 
0000
0008
7F08
0108
010F
0208
0208
040F
1808
6008
0FE0
3018
2008
2008
3010
0FE0
ENDCHAR
STARTCHAR U+AC54
ENCODING 44116
SWIDTH 1000 0
DWIDTH 16 0
BBX 16 16 0 -2
BITMAP 
0000
0002
3F22
0122
0122
0222
023E
0222
0422
0C22
183E
3022
0022
0022
0022
0022
ENDCHAR
STARTCHAR U+AC58
ENCODING 44120
SWIDTH 1000 0
DWIDTH 16 0
BBX 16 16 0 -2
BITMAP 
0000
0004
3F24
0124
0224
023C
0224
0424
083C
1024
2024
0824
0804
0800
0FFE
0000
ENDCHAR
STARTCHAR U+AC5C
ENCODING 44124
SWIDTH 1000 0
DWIDTH 16 0
BBX 16 16 0 -2
BITMAP 
0000
0004
3F24
0124
023C
0224
0424
0C3C
1024
2004
0FFC
0004
0FFC
0800
0800
0FFE
ENDCHAR
STARTCHAR U+AC70
ENCODING 44144
SWIDTH 1000 0
DWIDTH 16 0
BBX 16 16 0 -2
BITMAP 
0000
0004
3F84
0084
0084
0084
0104
017C
0104
0204
0404
0804
3004
0004
0004
0004
ENDCHAR
STARTCHAR U+AC71
ENCODING 44145
SWIDTH 1000 0
DWIDTH 16 0
BBX 16 16 0 -2
BITMAP 
0000
0004
3F84
0084
0084
017C
0304
0604
1804
2004
1FFC
0004
0004
0004
0004
0004
ENDCHAR
STARTCHAR U+AC74
ENCODING 44148
SWIDTH 1000 0
DWIDTH 16 0
BBX 16 16 0 -2
BITMAP 
0000
0004
3F84
0084
0084
0104
017C
0204
0C04
3004
0004
0804
0804
0800
0FFE
0000
ENDCHAR
STARTCHAR U+AC77
ENCODING 44151
SWIDTH 1000 0
DWIDTH 16 0
BBX 16 16 0 -2
BITMAP 
0000
0004
3F84
0084
0104
017C
0204
0404
1804
2004
0000
0FFE
0800
0800
0FFE
0000
ENDCHAR
STARTCHAR U+AC78
ENCODING 44152
SWIDTH 1000 0
DWIDTH 16 0
BBX 16 16 0 -2
BITMAP 
0000
0004
3F84
0084
0084
017C
0204
0C04
3004
0000
0FFC
0004
0FFC
0800
0FFE
0000
ENDCHAR
STARTCHAR U+AC7A
ENCODING 44154
SWIDTH 1000 0
DWIDTH 16 0
BBX 16 16 0 -2
BITMAP 
0000
0004
3F84
0084
0104
013C
0204
0C04
3004
0000
1F7C
0144
1F44
1044
117C
0E44
ENDCHAR
STARTCHAR U+AC80
ENCODING 44160
SWIDTH 1000 0
DWIDTH 16 0
BBX 16 16 0 -2
BITMAP 
0000
0004
3F84
0084
0084
017C
0304
0604
0804
3004
0FFC
0804
0804
0804
0FFC
0804
ENDCHAR
STARTCHAR U+AC81
ENCODING 44161
SWIDTH 1000 0
DWIDTH 16 0
BBX 16 16 0 -2
BITMAP 
0000
0004
3F84
0084
0084
017C
0304
0604
1804
2000
0804
0804
0FFC
0804
0FFC
0804
ENDCHAR
STARTCHAR U+AC83
ENCODING 44163
SWIDTH 1000 0
DWIDTH 16 0
BBX 16 16 0 -2
BITMAP 
0000
0004
3F84
0104
0104
017C
0204
0404
0804
7004
0044
00C0
00C0
0120
0618
0804
ENDCHAR
STARTCHAR U+AC84
ENCODING 44164
SWIDTH 1000 0
DWIDTH 16 0
BBX 16 16 0 -2
BITMAP 
0000
0004
3F04
0104
0104
037C
0204
0404
0804
7000
0408
0418
0618
0A24
1166
2040
ENDCHAR
STARTCHAR U+AC85
ENCODING 44165
SWIDTH 1000 0
DWIDTH 16 0
BBX 16 16 0 -2
BITMAP 
0000
0004
3F84
0084
0084
017C
0304
0604
0804
3000
07F0
180C
1004
1004
080C
07F0
ENDCHAR
STARTCHAR U+AC86
ENCODING 44166
SWIDTH 1000 0
DWIDTH 16 0
BBX 16 16 0 -2
BITMAP 
0000
0004
3F84
0084
0104
017C
0204
0C04
7004
0000
1FFC
0080
00C0
0160
0618
1804
ENDCHAR
STARTCHAR U+AC89
ENCODING 44169
SWIDTH 1000 0
DWIDTH 16 0
BBX 16 16 0 -2
BITMAP 
0000
0004
3F84
0084
00FC
0104
0204
0404
3804
0000
0FFC
0800
0FFC
0800
0FFE
0000
ENDCHAR
STARTCHAR U+AC8A
ENCODING 44170
SWIDTH 1000 0
DWIDTH 16 0
BBX 16 16 0 -2
BITMAP 
0000
0004
3F84
0084
0104
017C
0204
0C04
7004
0000
1FFC
0220
0220
0220
3FFC
0000
ENDCHAR
STARTCHAR U+AC8B
ENCODING 44171
SWIDTH 1000 0
DWIDTH 16 0
BBX 16 16 0 -2
BITMAP 
0000
0004
3F84
0084
0104
017C
0204
0404
1804
21E0
1FFE
0000
01E0
0E1C
0804
07F8
ENDCHAR
STARTCHAR U+AC8C
ENCODING 44172
SWIDTH 1000 0
DWIDTH 16 0
BBX 16 16 0 -2
BITMAP 
0002
0022
3E22
0222
0222
0222
0222
03E2
0422
0C22
0822
1022
6022
0022
0022
0000
ENDCHAR
STARTCHAR U+AC90
ENCODING 44176
SWIDTH 1000 0
DWIDTH 16 0
BBX 16 16 0 -2
BITMAP 
0000
0004
3F24
0124
0124
0224
0224
05E4
0824
3024
0024
0824
0800
0800
0FFE
0000
ENDCHAR
STARTCHAR U+AC94
ENCODING 44180
SWIDTH 1000 0
DWIDTH 16 0
BBX 16 16 0 -2
BITMAP 
0000
0024
3F24
0124
0224
02E4
0624
0424
1804
2000
0FFC
0004
0FFC
0800
0FFE
0000
ENDCHAR
STARTCHAR U+AC9C
ENCODING 44188
SWIDTH 1000 0
DWIDTH 16 0
BBX 16 16 0 -2
BITMAP 
0000
0024
3F24
0124
0224
03E4
0624
0424
1824
2004
0000
0FFC
0804
0804
0FFC
0804
ENDCHAR
STARTCHAR U+AC9D
ENCODING 44189
SWIDTH 1000 0
DWIDTH 16 0
BBX 16 16 0 -2
BITMAP 
0000
0024
3F24
0124
0124
03E4
0224
0424
1824
6000
0804
0804
0FFC
0804
0FFC
0804
ENDCHAR
STARTCHAR U+AC9F
ENCODING 44191
SWIDTH 1000 0
DWIDTH 16 0
BBX 16 16 0 -2
BITMAP 
0000
0024
3E24
0224
0224
0224
03E4
0424
0824
3024
0004
0040
00C0
0120
0218
0C04
ENDCHAR
STARTCHAR U+ACA0
ENCODING 44192
SWIDTH 1000 0
DWIDTH 16 0
BBX 16 16 0 -2
BITMAP 
0000
0004
3F24
0124
0124
01E4
0224
0424
0824
3004
0208
0208
0318
0518
0824
1040
ENDCHAR
STARTCHAR U+ACA1
ENCODING 44193
SWIDTH 1000 0
DWIDTH 16 0
BBX 16 16 0 -2
BITMAP 
0000
0024
3F24
0124
0124
02E4
0224
0424
0824
3004
07F0
180C
1004
1004
080C
07F0
ENDCHAR
STARTCHAR U+ACA8
ENCODING 44200
SWIDTH 1000 0
DWIDTH 16 0
BBX 16 16 0 -2
BITMAP 
0000
0004
3F84
0084
0084
00FC
0084
0104
0104
027C
0404
0804
3004
0004
0004
0004
ENDCHAR
STARTCHAR U+ACA9
ENCODING 44201
SWIDTH 1000 0
DWIDTH 16 0
BBX 16 16 0 -2
BITMAP 
0000
0004
3F84
0084
013C
0104
0204
043C
3804
0004
1FFC
0004
0004
0004
0004
0004
ENDCHAR
STARTCHAR U+ACAA
ENCODING 44202
SWIDTH 1000 0
DWIDTH 16 0
BBX 16 16 0 -2
BITMAP 
0000
0004
3F84
0084
017C
0104
0204
047C
3804
2004
1F7C
0104
0104
0104
0104
0104
ENDCHAR
STARTCHAR U+ACAC
ENCODING 44204
SWIDTH 1000 0
DWIDTH 16 0
BBX 16 16 0 -2
BITMAP 
0000
0004
3F84
0084
00FC
0104
0104
0204
0C7C
3004
0004
0804
0804
0800
0FFE
0000
ENDCHAR
STARTCHAR U+ACAF
ENCODING 44207
SWIDTH 1000 0
DWIDTH 16 0
BBX 16 16 0 -2
BITMAP 
0000
0004
3F84
0084
00FC
0104
0204
067C
0804
3004
0000
0FFE
0800
0800
0FFE
0000
ENDCHAR
STARTCHAR U+ACB0
ENCODING 44208
SWIDTH 1000 0
DWIDTH 16 0
BBX 16 16 0 -2
BITMAP 
0000
0004
3F84
0084
00FC
0104
027C
0404
3804
0000
0FFC
0004
0FFC
0800
0FFE
0000
ENDCHAR
STARTCHAR U+ACB8
ENCODING 44216
SWIDTH 1000 0
DWIDTH 16 0
BBX 16 16 0 -2
BITMAP 
0000
0004
3F84
0084
00FC
0104
0304
067C
1804
2004
0000
0FFC
0804
0804
0FFC
0804
ENDCHAR
STARTCHAR U+ACB9
ENCODING 44217
SWIDTH 1000 0
DWIDTH 16 0
BBX 16 16 0 -2
BITMAP 
0000
0004
3F84
0084
00FC
0104
0304
067C
1804
0000
0804
0804
0FFC
0804
0FFC
0804
ENDCHAR
STARTCHAR U+ACBB
ENCODING 44219
SWIDTH 1000 0
DWIDTH 16 0
BBX 16 16 0 -2
BITMAP 
0000
0004
3F84
0084
017C
0104
0204
047C
0804
7004
0004
00C0
00C0
0120
0618
0804
ENDCHAR
STARTCHAR U+ACBC
ENCODING 44220
SWIDTH 1000 0
DWIDTH 16 0
BBX 16 16 0 -2
BITMAP 
0000
0008
7F08
0108
01F8
0208
0208
04F8
1808
6008
0410
0410
0618
0B28
1164
20C2
ENDCHAR
STARTCHAR U+ACBD
ENCODING 44221
SWIDTH 1000 0
DWIDTH 16 0
BBX 16 16 0 -2
BITMAP 
0000
0004
3F84
0084
00BC
0104
0104
023C
0C04
3004
01C0
0E38
1004
1004
0818
07E0
ENDCHAR
STARTCHAR U+ACC1
ENCODING 44225
SWIDTH 1000 0
DWIDTH 16 0
BBX 16 16 0 -2
BITMAP 
0000
0004
3F84
0084
017C
0104
0204
047C
3804
0004
0FFE
0800
0FFC
0800
0FFE
0000
ENDCHAR
STARTCHAR U+ACC4
ENCODING 44228
SWIDTH 1000 0
DWIDTH 16 0
BBX 16 16 0 -2
BITMAP 
0000
0002
1F22
0122
0122
0122
03E2
0222
0222
05E2
0822
1022
2022
0022
0022
0002
ENDCHAR
STARTCHAR U+ACC8
ENCODING 44232
SWIDTH 1000 0
DWIDTH 16 0
BBX 16 16 0 -2
BITMAP 
0000
0024
3F24
0124
03E4
0224
0424
0DE4
1824
6024
0024
0824
0800
0800
0FFE
0000
ENDCHAR
STARTCHAR U+ACCC
ENCODING 44236
SWIDTH 1000 0
DWIDTH 16 0
BBX 16 16 0 -2
BITMAP 
0000
0004
3F24
0124
03E4
0224
0424
0DE4
1024
2000
0FFC
0004
0FFC
0800
0FFE
0000
ENDCHAR
STARTCHAR U+ACD5
ENCODING 44245
SWIDTH 1000 0
DWIDTH 16 0
BBX 16 16 0 -2
BITMAP 
0000
0004
3F24
0224
03E4
0224
05E4
0424
0824
3000
0804
0804
0FFC
0804
0FFC
0804
ENDCHAR
STARTCHAR U+ACD7
ENCODING 44247
SWIDTH 1000 0
DWIDTH 16 0
BBX 16 16 0 -2
BITMAP 
0000
0024
3F24
0124
03E4
0224
0224
05E4
0824
3024
0004
0040
00C0
0120
0218
0C04
ENDCHAR
STARTCHAR U+ACE0
ENCODING 44256
SWIDTH 1000 0
DWIDTH 16 0
BBX 16 16 0 -2
BITMAP 
0000
0000
0000
1FFC
0004
0008
0008
0108
0108
0108
0108
0100
0100
7FFF
0000
0000
ENDCHAR
STARTCHAR U+ACE1
ENCODING 44257
SWIDTH 1000 0
DWIDTH 16 0
BBX 16 16 0 -2
BITMAP 
0000
0000
1FF8
0008
0008
0108
0108
7FFE
0000
0000
3FF8
0008
0008
0008
0008
0008
ENDCHAR
STARTCHAR U+ACE4
ENCODING 44260
SWIDTH 1000 0
DWIDTH 16 0
BBX 16 16 0 -2
BITMAP 
0000
0000
3FF8
0008
0008
0108
0108
0100
7FFE
0000
1000
1000
1000
1000
1FFC
0000
ENDCHAR
STARTCHAR U+ACE7
ENCODING 44263
SWIDTH 1000 0
DWIDTH 16 0
BBX 16 16 0 -2
BITMAP 
0000
0000
1FF8
0008
0108
0108
0108
7FFE
0000
0000
1FF8
1000
1000
1000
1FFC
0000
ENDCHAR
STARTCHAR U+ACE8
ENCODING 44264
SWIDTH 1000 0
DWIDTH 16 0
BBX 16 16 0 -2
BITMAP 
0000
0000
1FF8
0008
0108
0108
0108
7FFE
0000
1FF8
0008
0008
1FF8
1000
1FFC
0000
ENDCHAR
STARTCHAR U+ACEA
ENCODING 44266
SWIDTH 1000 0
DWIDTH 16 0
BBX 16 16 0 -2
BITMAP 
0000
0000
1FF8
0008
0108
0108
0100
7FFE
0000
0000
3EF8
0288
1E88
1088
1FF8
0088
ENDCHAR
STARTCHAR U+ACEC
ENCODING 44268
SWIDTH 1000 0
DWIDTH 16 0
BBX 16 16 0 -2
BITMAP 
0000
0000
1FF8
0008
0108
0108
0108
7FFE
0000
3E20
0220
0230
1E30
1048
118C
1E00
ENDCHAR
STARTCHAR U+ACEF
ENCODING 44271
SWIDTH 1000 0
DWIDTH 16 0
BBX 16 16 0 -2
BITMAP 
0000
3FF8
0008
0008
0108
0108
0100
7FFE
0000
1E70
02F8
0200
1E70
1088
1088
1F70
ENDCHAR
STARTCHAR U+ACF0
ENCODING 44272
SWIDTH 1000 0
DWIDTH 16 0
BBX 16 16 0 -2
BITMAP 
0000
0000
1FF8
0008
0108
0108
0108
7FFE
0000
0000
1FF8
1008
1008
1008
1FF8
1008
ENDCHAR
STARTCHAR U+ACF1
ENCODING 44273
SWIDTH 1000 0
DWIDTH 16 0
BBX 16 16 0 -2
BITMAP 
0000
0000
1FF8
0008
0108
0108
0108
7FFE
0000
1008
1008
1FF8
1008
1008
1FF8
1008
ENDCHAR
STARTCHAR U+ACF3
ENCODING 44275
SWIDTH 1000 0
DWIDTH 16 0
BBX 16 16 0 -2
BITMAP 
0000
1FF8
0008
0008
0008
0108
0100
0100
7FFE
0000
0180
0180
0180
0240
0C30
100C
ENDCHAR
STARTCHAR U+ACF5
ENCODING 44277
SWIDTH 1000 0
DWIDTH 16 0
BBX 16 16 0 -2
BITMAP 
0000
0000
1FF8
0008
0008
0108
0108
0100
7FFE
0000
0FF0
181C
2004
2004
1008
0FF0
ENDCHAR
STARTCHAR U+ACF6
ENCODING 44278
SWIDTH 1000 0
DWIDTH 16 0
BBX 16 16 0 -2
BITMAP 
0000
3FF8
0008
0008
0108
0108
0100
7FFE
0000
0000
3FF8
0180
0180
0240
0C20
301C
ENDCHAR
STARTCHAR U+ACFC
ENCODING 44284
SWIDTH 1000 0
DWIDTH 16 0
BBX 16 16 0 -2
BITMAP 
0000
0008
3F88
0088
0088
0088
0888
0888
088F
0808
0828
1FC8
6008
0008
0008
0008
ENDCHAR
STARTCHAR U+ACFD
ENCODING 44285
SWIDTH 1000 0
DWIDTH 16 0
BBX 16 16 0 -2
BITMAP 
0000
0008
3F88
0088
0088
0888
088F
0808
FFE8
0008
0000
3FF8
0008
0008
0008
0008
ENDCHAR
STARTCHAR U+AD00
ENCODING 44288
SWIDTH 1000 0
DWIDTH 16 0
BBX 16 16 0 -2
BITMAP 
0000
0008
3F88
0088
0088
0888
0888
088F
0808
7FC8
0008
2008
2008
2000
3FF8
0000
ENDCHAR
STARTCHAR U+AD04
ENCODING 44292
SWIDTH 1000 0
DWIDTH 16 0
BBX 16 16 0 -2
BITMAP 
0000
0008
3F88
0088
0488
0488
040F
7FE8
0008
0008
1FF8
0008
1FF8
1000
1FF8
0000
ENDCHAR
STARTCHAR U+AD06
ENCODING 44294
SWIDTH 1000 0
DWIDTH 16 0
BBX 16 16 0 -2
BITMAP 
0000
0008
3F88
0088
0888
088E
0808
08E8
7F08
0000
3EF8
0288
3E88
2088
20F8
3C88
ENDCHAR
STARTCHAR U+AD0C
ENCODING 44300
SWIDTH 1000 0
DWIDTH 16 0
BBX 16 16 0 -2
BITMAP 
0000
0008
3F88
0088
0088
0888
088F
0848
FF88
0008
0000
3FF8
2008
2008
3FF8
2008
ENDCHAR
STARTCHAR U+AD0D
ENCODING 44301
SWIDTH 1000 0
DWIDTH 16 0
BBX 16 16 0 -2
BITMAP 
0000
0008
3F88
0088
0088
0888
088F
0828
FFC8
0008
2008
2008
3FF8
2008
3FF8
2008
ENDCHAR
STARTCHAR U+AD0F
ENCODING 44303
SWIDTH 1000 0
DWIDTH 16 0
BBX 16 16 0 -2
BITMAP 
0000
0008
3F88
0088
0088
0888
088F
0808
FFC8
0008
0008
0088
0180
0240
0430
1808
ENDCHAR
STARTCHAR U+AD11
ENCODING 44305
SWIDTH 1000 0
DWIDTH 16 0
BBX 16 16 0 -2
BITMAP 
0000
0008
3F88
0088
0088
0888
088F
0808
7FC8
0008
0008
0FE0
3018
2008
3018
0FE0
ENDCHAR
STARTCHAR U+AD18
ENCODING 44312
SWIDTH 1000 0
DWIDTH 16 0
BBX 16 16 0 -2
BITMAP 
0000
0024
1F24
0124
0124
0124
0124
0924
083C
0824
0824
3FA4
0024
0024
0024
0004
ENDCHAR
STARTCHAR U+AD1C
ENCODING 44316
SWIDTH 1000 0
DWIDTH 16 0
BBX 16 16 0 -2
BITMAP 
0000
0004
3F24
0124
0124
0124
0924
083C
08A4
7F24
0024
1024
1004
1000
1FFC
0000
ENDCHAR
STARTCHAR U+AD20
ENCODING 44320
SWIDTH 1000 0
DWIDTH 16 0
BBX 16 16 0 -2
BITMAP 
0000
0004
1F24
0124
0124
0924
083C
0824
7F24
0000
1FFC
0004
1FFC
1000
1000
1FFC
ENDCHAR
STARTCHAR U+AD29
ENCODING 44329
SWIDTH 1000 0
DWIDTH 16 0
BBX 16 16 0 -2
BITMAP 
0000
0024
3F24
0124
0124
0924
083C
0824
7F24
0024
1004
1004
1FFC
1004
1FFC
1004
ENDCHAR
STARTCHAR U+AD2C
ENCODING 44332
SWIDTH 1000 0
DWIDTH 16 0
BBX 16 16 0 -2
BITMAP 
0000
0004
3F24
0124
0124
0924
083C
08A4
7724
0024
0010
0210
0610
0628
0944
3000
ENDCHAR
STARTCHAR U+AD2D
ENCODING 44333
SWIDTH 1000 0
DWIDTH 16 0
BBX 16 16 0 -2
BITMAP 
0000
0024
1F24
0124
0124
0924
093C
0824
7F24
0024
0004
0FFC
1002
1002
080C
07F0
ENDCHAR
STARTCHAR U+AD34
ENCODING 44340
SWIDTH 1000 0
DWIDTH 16 0
BBX 16 16 0 -2
BITMAP 
0000
0004
1FC4
0044
0044
0044
0444
0444
0444
0404
0434
7FC4
0004
0004
0004
0004
ENDCHAR
STARTCHAR U+AD35
ENCODING 44341
SWIDTH 1000 0
DWIDTH 16 0
BBX 16 16 0 -2
BITMAP 
0000
0004
1FC4
0044
0044
0444
0444
0404
3FE4
0004
0000
1FFC
0004
0004
0004
0004
ENDCHAR
STARTCHAR U+AD38
ENCODING 44344
SWIDTH 1000 0
DWIDTH 16 0
BBX 16 16 0 -2
BITMAP 
0000
0004
1FE4
0024
0024
0444
0444
0404
07F4
1804
0004
0804
0804
0800
0FFE
0000
ENDCHAR
STARTCHAR U+AD3C
ENCODING 44348
SWIDTH 1000 0
DWIDTH 16 0
BBX 16 16 0 -2
BITMAP 
0000
0004
1FC4
0044
0444
0444
0444
04F4
3B04
0000
0FFC
0004
0FFC
0800
0FFE
0000
ENDCHAR
STARTCHAR U+AD44
ENCODING 44356
SWIDTH 1000 0
DWIDTH 16 0
BBX 16 16 0 -2
BITMAP 
0000
0004
1FC4
0044
0044
0444
0404
0414
3FE4
0004
0FFC
0804
0804
0804
0FFC
0804
ENDCHAR
STARTCHAR U+AD45
ENCODING 44357
SWIDTH 1000 0
DWIDTH 16 0
BBX 16 16 0 -2
BITMAP 
0000
0004
1FC4
0044
0044
0444
0444
0414
3FE4
0004
0804
0804
0FFC
0804
0FFC
0804
ENDCHAR
STARTCHAR U+AD47
ENCODING 44359
SWIDTH 1000 0
DWIDTH 16 0
BBX 16 16 0 -2
BITMAP 
0000
0004
3FC4
0044
0044
0444
0444
0404
0414
7FE4
0004
0084
00C0
0160
0610
180C
ENDCHAR
STARTCHAR U+AD49
ENCODING 44361
SWIDTH 1000 0
DWIDTH 16 0
BBX 16 16 0 -2
BITMAP 
0000
0004
1FC4
0044
0444
0444
0444
0404
3FE4
0004
0000
0FF8
1004
1004
0C18
03E0
ENDCHAR
STARTCHAR U+AD50
ENCODING 44368
SWIDTH 1000 0
DWIDTH 16 0
BBX 16 16 0 -2
BITMAP 
0000
0000
0000
1FF8
0004
0008
0008
0448
0448
0448
0448
0448
0440
7FFE
0000
0000
ENDCHAR
STARTCHAR U+AD54
ENCODING 44372
SWIDTH 1000 0
DWIDTH 16 0
BBX 16 16 0 -2
BITMAP 
0000
0000
1FF8
0008
0448
0448
0448
0440
7FFE
0000
1000
1000
1000
1000
1FFC
0000
ENDCHAR
STARTCHAR U+AD58
ENCODING 44376
SWIDTH 1000 0
DWIDTH 16 0
BBX 16 16 0 -2
BITMAP 
0000
0000
1FF8
0008
0448
0448
0448
7FFE
0000
1FF8
0008
0008
1FF8
1000
1FFC
0000
ENDCHAR
STARTCHAR U+AD61
ENCODING 44385
SWIDTH 1000 0
DWIDTH 16 0
BBX 16 16 0 -2
BITMAP 
0000
0000
1FF8
0008
0448
0448
0448
7FFE
0000
1008
1008
1FF8
1008
1008
1FF8
1008
ENDCHAR
STARTCHAR U+AD63
ENCODING 44387
SWIDTH 1000 0
DWIDTH 16 0
BBX 16 16 0 -2
BITMAP 
0000
1FF8
0008
0008
0448
0448
0440
0440
7FFE
0000
0080
0080
0180
0240
0C30
100C
ENDCHAR
STARTCHAR U+AD6C
ENCODING 44396
SWIDTH 1000 0
DWIDTH 16 0
BBX 16 16 0 -2
BITMAP 
0000
0000
1FFC
0004
0008
0008
0008
7FFF
0080
0080
0080
0080
0080
0080
0080
0080
ENDCHAR
STARTCHAR U+AD6D
ENCODING 44397
SWIDTH 1000 0
DWIDTH 16 0
BBX 16 16 0 -2
BITMAP 
0000
3FF8
0008
0008
0008
0010
0010
FFFE
0100
0100
3FF8
0008
0008
0008
0008
0008
ENDCHAR
STARTCHAR U+AD70
ENCODING 44400
SWIDTH 1000 0
DWIDTH 16 0
BBX 16 16 0 -2
BITMAP 
0000
0000
1FFC
0004
0004
0008
0008
7FFF
0080
0080
1080
1080
1000
1000
1FFC
0000
ENDCHAR
STARTCHAR U+AD73
ENCODING 44403
SWIDTH 1000 0
DWIDTH 16 0
BBX 16 16 0 -2
BITMAP 
0000
0000
3FF8
0008
0008
0010
0010
FFFE
0100
0100
1FF8
1000
1000
1000
1FFC
0000
ENDCHAR
STARTCHAR U+AD74
ENCODING 44404
SWIDTH 1000 0
DWIDTH 16 0
BBX 16 16 0 -2
BITMAP 
0000
3FF8
0008
0008
0008
0010
FFFE
0100
0100
3FF8
0008
0008
1FF8
1000
1FFC
0000
ENDCHAR
STARTCHAR U+AD75
ENCODING 44405
SWIDTH 1000 0
DWIDTH 16 0
BBX 16 16 0 -2
BITMAP 
0000
0000
3FF8
0008
0008
0010
FFFE
0100
0100
3EF8
0208
0208
1E08
1008
1008
1F08
ENDCHAR
STARTCHAR U+AD76
ENCODING 44406
SWIDTH 1000 0
DWIDTH 16 0
BBX 16 16 0 -2
BITMAP 
0000
0000
1FFC
0004
0004
0008
7FFF
0080
0080
1F78
0148
0148
1F48
1048
1078
1E48
ENDCHAR
STARTCHAR U+AD7B
ENCODING 44411
SWIDTH 1000 0
DWIDTH 16 0
BBX 16 16 0 -2
BITMAP 
0000
3FF8
0008
0008
0008
0010
FFFE
0100
0100
1E70
0200
03F8
1EF8
1088
1088
1E70
ENDCHAR
STARTCHAR U+AD7C
ENCODING 44412
SWIDTH 1000 0
DWIDTH 16 0
BBX 16 16 0 -2
BITMAP 
0000
0000
3FF8
0008
0008
0018
7FFE
0080
0080
0080
1FF8
1008
1008
1008
1FF8
1008
ENDCHAR
STARTCHAR U+AD7D
ENCODING 44413
SWIDTH 1000 0
DWIDTH 16 0
BBX 16 16 0 -2
BITMAP 
0000
0000
1FFC
0004
0008
0008
7FFF
0080
0080
1088
1008
1FF8
1008
1008
1FF8
1008
ENDCHAR
STARTCHAR U+AD7F
ENCODING 44415
SWIDTH 1000 0
DWIDTH 16 0
BBX 16 16 0 -2
BITMAP 
0000
3FF8
0008
0008
0008
0010
0010
FFFE
0100
0100
0000
0100
0180
0240
0C30
300C
ENDCHAR
STARTCHAR U+AD81
ENCODING 44417
SWIDTH 1000 0
DWIDTH 16 0
BBX 16 16 0 -2
BITMAP 
0000
3FF8
0008
0008
0010
0010
FFFE
0100
0100
0100
07E0
0C10
1008
1008
1808
07F0
ENDCHAR
STARTCHAR U+AD82
ENCODING 44418
SWIDTH 1000 0
DWIDTH 16 0
BBX 16 16 0 -2
BITMAP 
0000
3FF8
0008
0008
0008
0010
FFFE
0100
0100
0100
1FF8
0180
0180
0240
0420
381C
ENDCHAR
STARTCHAR U+AD88
ENCODING 44424
SWIDTH 1000 0
DWIDTH 16 0
BBX 16 16 0 -2
BITMAP 
0000
0004
1FC4
0044
0044
0044
0044
0074
7F84
0204
023C
0204
0204
0204
0204
0004
ENDCHAR
STARTCHAR U+AD89
ENCODING 44425
SWIDTH 1000 0
DWIDTH 16 0
BBX 16 16 0 -2
BITMAP 
0000
0004
1FC4
0044
0044
0044
3FE4
0204
023C
0204
1FFC
0004
0004
0004
0004
0004
ENDCHAR
STARTCHAR U+AD8C
ENCODING 44428
SWIDTH 1000 0
DWIDTH 16 0
BBX 16 16 0 -2
BITMAP 
0000
0004
1FC4
0044
0044
0044
0044
3FE4
0204
023C
0204
0A04
0800
0800
0FFE
0000
ENDCHAR
STARTCHAR U+AD90
ENCODING 44432
SWIDTH 1000 0
DWIDTH 16 0
BBX 16 16 0 -2
BITMAP 
0000
0004
3FC4
0044
0044
0044
7FF4
0204
023C
0004
1FFC
0004
0FFC
0800
0FFE
0000
ENDCHAR
STARTCHAR U+AD9C
ENCODING 44444
SWIDTH 1000 0
DWIDTH 16 0
BBX 16 16 0 -2
BITMAP 
0000
0004
7F84
0084
0084
0084
FFC4
0404
043C
0404
0208
0208
0614
0526
0862
3040
ENDCHAR
STARTCHAR U+AD9D
ENCODING 44445
SWIDTH 1000 0
DWIDTH 16 0
BBX 16 16 0 -2
BITMAP 
0000
0004
1FC4
0044
0044
0044
3FF4
0204
023C
0204
07F4
180C
1004
1004
180C
07F0
ENDCHAR
STARTCHAR U+ADA4
ENCODING 44452
SWIDTH 1000 0
DWIDTH 16 0
BBX 16 16 0 -2
BITMAP 
0000
0004
1FA4
0124
0124
0124
0124
01A4
3E24
0424
05E4
0424
0424
0424
0024
0004
ENDCHAR
STARTCHAR U+ADB7
ENCODING 44471
SWIDTH 1000 0
DWIDTH 16 0
BBX 16 16 0 -2
BITMAP 
0000
0024
3E24
0224
0224
0224
0224
7C24
09E4
0824
0824
0084
00C0
0120
0618
1804
ENDCHAR
STARTCHAR U+ADC0
ENCODING 44480
SWIDTH 1000 0
DWIDTH 16 0
BBX 16 16 0 -2
BITMAP 
0000
0004
1FC4
0044
0044
0044
0044
0084
3FF4
0204
0204
0204
0204
0204
0204
0004
ENDCHAR
STARTCHAR U+ADC1
ENCODING 44481
SWIDTH 1000 0
DWIDTH 16 0
BBX 16 16 0 -2
BITMAP 
0000
0004
3FC4
0044
0044
0044
3FF4
0204
0204
0204
0000
1FFC
0004
0004
0004
0004
ENDCHAR
STARTCHAR U+ADC4
ENCODING 44484
SWIDTH 1000 0
DWIDTH 16 0
BBX 16 16 0 -2
BITMAP 
0000
0004
3FC4
0044
0044
0044
0084
3FE4
0204
0204
0204
0A04
0804
0800
0FFE
0000
ENDCHAR
STARTCHAR U+ADC8
ENCODING 44488
SWIDTH 1000 0
DWIDTH 16 0
BBX 16 16 0 -2
BITMAP 
0000
0004
1FC4
0044
0044
0044
3FF4
0204
0204
0000
0FFC
0004
0FFC
0800
0FFE
0000
ENDCHAR
STARTCHAR U+ADD0
ENCODING 44496
SWIDTH 1000 0
DWIDTH 16 0
BBX 16 16 0 -2
BITMAP 
0000
0004
1FC4
0044
0044
0044
3FF4
0204
0204
0204
0000
0FFC
0804
0804
0FFC
0804
ENDCHAR
STARTCHAR U+ADD1
ENCODING 44497
SWIDTH 1000 0
DWIDTH 16 0
BBX 16 16 0 -2
BITMAP 
0000
0004
3FC4
0044
0044
0044
7FF4
0204
0204
0200
0804
0804
0FFC
0804
0FFC
0804
ENDCHAR
STARTCHAR U+ADD3
ENCODING 44499
SWIDTH 1000 0
DWIDTH 16 0
BBX 16 16 0 -2
BITMAP 
0000
0008
1FC8
0048
0048
0048
00F8
3F08
0208
0208
0208
0040
00C0
0120
0218
0C04
ENDCHAR
STARTCHAR U+ADDC
ENCODING 44508
SWIDTH 1000 0
DWIDTH 16 0
BBX 16 16 0 -2
BITMAP 
0000
0000
1FF8
0008
0008
0010
0010
7FFE
0420
0420
0420
0420
0420
0420
0420
0420
ENDCHAR
STARTCHAR U+ADE0
ENCODING 44512
SWIDTH 1000 0
DWIDTH 16 0
BBX 16 16 0 -2
BITMAP 
0000
0000
3FF8
0008
0008
0008
0008
FFFE
0420
0420
1420
1420
1000
1000
1FFC
0000
ENDCHAR
STARTCHAR U+ADE4
ENCODING 44516
SWIDTH 1000 0
DWIDTH 16 0
BBX 16 16 0 -2
BITMAP 
0000
1FF8
0008
0008
0008
0010
7FFE
0420
0420
1FF8
0008
0008
1FF8
1000
1FFC
0000
ENDCHAR
STARTCHAR U+ADF8
ENCODING 44536
SWIDTH 1000 0
DWIDTH 16 0
BBX 16 16 0 -2
BITMAP 
0000
0000
0000
1FF8
0008
0008
0008
0008
0008
0008
0008
0008
0010
7FFE
0000
0000
ENDCHAR
STARTCHAR U+ADF9
ENCODING 44537
SWIDTH 1000 0
DWIDTH 16 0
BBX 16 16 0 -2
BITMAP 
0000
0000
3FF8
0008
0008
0008
0008
7FFE
0000
0000
3FF8
0008
0008
0008
0008
0008
ENDCHAR
STARTCHAR U+ADFC
ENCODING 44540
SWIDTH 1000 0
DWIDTH 16 0
BBX 16 16 0 -2
BITMAP 
0000
0000
1FF8
0008
0008
0008
0008
0008
7FFE
0000
1000
1000
1000
1000
1FFC
0000
ENDCHAR
STARTCHAR U+ADFF
ENCODING 44543
SWIDTH 1000 0
DWIDTH 16 0
BBX 16 16 0 -2
BITMAP 
0000
0000
1FF8
0008
0008
0008
0008
7FFE
0000
0000
1FFC
1000
1000
1000
1FFC
0000
ENDCHAR
STARTCHAR U+AE00
ENCODING 44544
SWIDTH 1000 0
DWIDTH 16 0
BBX 16 16 0 -2
BITMAP 
0000
1FF8
0008
0008
0008
0008
7FFE
0000
0000
1FF8
0008
0008
1FF8
1000
1FFC
0000
ENDCHAR
STARTCHAR U+AE01
ENCODING 44545
SWIDTH 1000 0
DWIDTH 16 0
BBX 16 16 0 -2
BITMAP 
0000
3FF8
0008
0008
0008
0010
7FFE
0000
0000
1FF8
0108
0108
1F08
1008
1008
1F88
ENDCHAR
STARTCHAR U+AE08
ENCODING 44552
SWIDTH 1000 0
DWIDTH 16 0
BBX 16 16 0 -2
BITMAP 
0000
0000
1FF8
0008
0008
0008
0008
7FFE
0000
0000
1FF8
1008
1008
1008
1FF8
1008
ENDCHAR
STARTCHAR U+AE09
ENCODING 44553
SWIDTH 1000 0
DWIDTH 16 0
BBX 16 16 0 -2
BITMAP 
0000
0000
1FF8
0008
0008
0008
0008
7FFE
0000
1008
1008
1FF8
1008
1008
1FF8
1008
ENDCHAR
STARTCHAR U+AE0B
ENCODING 44555
SWIDTH 1000 0
DWIDTH 16 0
BBX 16 16 0 -2
BITMAP 
0000
0000
1FF8
0008
0008
0008
0008
7FFE
0000
0080
0180
0180
0240
0C30
300C
0000
ENDCHAR
STARTCHAR U+AE0D
ENCODING 44557
SWIDTH 1000 0
DWIDTH 16 0
BBX 16 16 0 -2
BITMAP 
0000
0000
1FF8
0008
0008
0008
0008
7FFE
0000
0000
07F0
180C
1004
1004
0C08
03F0
ENDCHAR
STARTCHAR U+AE14
ENCODING 44564
SWIDTH 1000 0
DWIDTH 16 0
BBX 16 16 0 -2
BITMAP 
0000
0004
1FC4
0044
0044
0044
0044
0044
0044
0004
0014
3FE4
0004
0004
0004
0004
ENDCHAR
STARTCHAR U+AE30
ENCODING 44592
SWIDTH 1000 0
DWIDTH 16 0
BBX 16 16 0 -2
BITMAP 
0000
0004
3F84
0084
0084
0084
0104
0104
0204
0604
0C04
1804
2004
0004
0004
0004
ENDCHAR
STARTCHAR U+AE31
ENCODING 44593
SWIDTH 1000 0
DWIDTH 16 0
BBX 16 16 0 -2
BITMAP 
0000
0004
3F84
0084
0084
0104
0304
0604
1804
2004
0000
1FFC
0004
0004
0004
0004
ENDCHAR
STARTCHAR U+AE34
ENCODING 44596
SWIDTH 1000 0
DWIDTH 16 0
BBX 16 16 0 -2
BITMAP 
0000
0004
3F84
0084
0084
0104
0104
0604
0C04
3004
0004
0804
0800
0800
0FFE
0000
ENDCHAR
STARTCHAR U+AE37
ENCODING 44599
SWIDTH 1000 0
DWIDTH 16 0
BBX 16 16 0 -2
BITMAP 
0000
0004
3F84
0084
0084
0104
0304
0604
0804
3004
0000
0FFC
0800
0800
0800
0FFE
ENDCHAR
STARTCHAR U+AE38
ENCODING 44600
SWIDTH 1000 0
DWIDTH 16 0
BBX 16 16 0 -2
BITMAP 
0000
0004
3F84
0084
0084
0104
0304
0404
3804
0000
0FFC
0004
0FFC
0800
0FFE
0000
ENDCHAR
STARTCHAR U+AE3A
ENCODING 44602
SWIDTH 1000 0
DWIDTH 16 0
BBX 16 16 0 -2
BITMAP 
0000
0004
3F84
0084
0084
0104
0204
0C04
3004
0000
0F7C
0144
0F44
0844
087C
0F44
ENDCHAR
STARTCHAR U+AE40
ENCODING 44608
SWIDTH 1000 0
DWIDTH 16 0
BBX 16 16 0 -2
BITMAP 
0000
0004
3F84
0084
0084
0104
0304
0604
0804
3004
0000
0FFC
0804
0804
0FFC
0804
ENDCHAR
STARTCHAR U+AE41
ENCODING 44609
SWIDTH 1000 0
DWIDTH 16 0
BBX 16 16 0 -2
BITMAP 
0000
0004
3F84
0084
0084
0104
0304
0604
1804
2000
0804
0804
0FFC
0804
0FFC
0804
ENDCHAR
STARTCHAR U+AE43
ENCODING 44611
SWIDTH 1000 0
DWIDTH 16 0
BBX 16 16 0 -2
BITMAP 
0000
0004
3F84
0084
0104
0104
0204
0604
0C04
3004
00C4
0080
00C0
0120
0618
1804
ENDCHAR
STARTCHAR U+AE45
ENCODING 44613
SWIDTH 1000 0
DWIDTH 16 0
BBX 16 16 0 -2
BITMAP 
0000
0004
3F84
0084
0084
0084
0104
0204
0C04
3004
07F0
180C
1004
1004
0808
07F0
ENDCHAR
STARTCHAR U+AE46
ENCODING 44614
SWIDTH 1000 0
DWIDTH 16 0
BBX 16 16 0 -2
BITMAP 
0000
0004
3F84
0084
0084
0104
0204
0404
3804
0000
0FFC
0080
00C0
0120
0610
180C
ENDCHAR
STARTCHAR U+AE4A
ENCODING 44618
SWIDTH 1000 0
DWIDTH 16 0
BBX 16 16 0 -2
BITMAP 
0000
0004
3F84
0084
0084
0104
0304
0604
1804
2000
1FFC
0220
0220
0220
1FFC
0000
ENDCHAR
STARTCHAR U+AE4C
ENCODING 44620
SWIDTH 1000 0
DWIDTH 16 0
BBX 16 16 0 -2
BITMAP 
0000
0008
0008
3BC8
0848
0888
0888
0888
108F
1088
2108
4108
0208
0408
0008
0008
ENDCHAR
STARTCHAR U+AE4D
ENCODING 44621
SWIDTH 1000 0
DWIDTH 16 0
BBX 16 16 0 -2
BITMAP 
0000
0008
3BC8
0848
0848
1048
108E
2088
4108
0208
0000
3FF8
0008
0008
0008
0008
ENDCHAR
STARTCHAR U+AE4E
ENCODING 44622
SWIDTH 1000 0
DWIDTH 16 0
BBX 16 16 0 -2
BITMAP 
0000
0008
3B88
0888
0888
1108
110E
2208
4208
0008
3EF8
0208
0208
0208
0208
0208
ENDCHAR
STARTCHAR U+AE50
ENCODING 44624
SWIDTH 1000 0
DWIDTH 16 0
BBX 16 16 0 -2
BITMAP 
0000
0008
3BC8
0848
0848
0888
1088
218F
6108
0208
0008
1008
1008
1000
1FF8
0000
ENDCHAR
STARTCHAR U+AE54
ENCODING 44628
SWIDTH 1000 0
DWIDTH 16 0
BBX 16 16 0 -2
BITMAP 
0000
0008
3BC8
0848
0888
1088
110F
2108
4608
0008
1FF8
0008
1FF8
1000
1FFC
0000
ENDCHAR
STARTCHAR U+AE56
ENCODING 44630
SWIDTH 1000 0
DWIDTH 16 0
BBX 16 16 0 -2
BITMAP 
0000
0008
3B88
0888
0888
108F
1108
6208
4608
0000
3EF8
0288
3E88
2088
20F8
3C88
ENDCHAR
STARTCHAR U+AE5C
ENCODING 44636
SWIDTH 1000 0
DWIDTH 16 0
BBX 16 16 0 -2
BITMAP 
0000
0008
3BC8
0848
0888
0888
108F
2108
4108
0208
0000
1FF8
1008
1008
1FF8
1008
ENDCHAR
STARTCHAR U+AE5D
ENCODING 44637
SWIDTH 1000 0
DWIDTH 16 0
BBX 16 16 0 -2
BITMAP 
0000
0008
3BC8
0848
0888
108F
1088
2108
4208
0000
1008
1008
1FF8
1008
1FF8
1008
ENDCHAR
STARTCHAR U+AE5F
ENCODING 44639
SWIDTH 1000 0
DWIDTH 16 0
BBX 16 16 0 -2
BITMAP 
0000
0008
3FC8
0448
0448
0848
088F
1088
2108
0208
0088
00C0
00C0
0120
0618
1804
ENDCHAR
STARTCHAR U+AE60
ENCODING 44640
SWIDTH 1000 0
DWIDTH 16 0
BBX 16 16 0 -2
BITMAP 
0000
0008
3BC8
0848
0848
0888
108F
2088
4108
0208
0410
0410
0C30
1A30
324C
4084
ENDCHAR
STARTCHAR U+AE61
ENCODING 44641
SWIDTH 1000 0
DWIDTH 16 0
BBX 16 16 0 -2
BITMAP 
0000
0008
3BC8
0848
0888
0888
108F
3088
6108
0208
0FE0
3018
2008
2008
1FF0
0000
ENDCHAR
STARTCHAR U+AE65
ENCODING 44645
SWIDTH 1000 0
DWIDTH 16 0
BBX 16 16 0 -2
BITMAP 
0000
0008
3BC8
0848
0888
1088
308F
6108
0208
0000
1FF8
1000
1FF8
1000
1FF8
0000
ENDCHAR
STARTCHAR U+AE68
ENCODING 44648
SWIDTH 1000 0
DWIDTH 16 0
BBX 16 16 0 -2
BITMAP 
0000
0024
0024
3BA4
08A4
08A4
08A4
0924
113C
1124
2224
6224
0424
0424
0024
0004
ENDCHAR
STARTCHAR U+AE69
ENCODING 44649
SWIDTH 1000 0
DWIDTH 16 0
BBX 16 16 0 -2
BITMAP 
0000
0004
3BA4
08A4
08A4
10A4
111C
2124
0214
0014
0000
1FFC
0004
0004
0004
0004
ENDCHAR
STARTCHAR U+AE6C
ENCODING 44652
SWIDTH 1000 0
DWIDTH 16 0
BBX 16 16 0 -2
BITMAP 
0000
0024
3BA4
08A4
08A4
08A4
1124
113C
2224
0224
0024
1024
1000
1000
1FFC
0000
ENDCHAR
STARTCHAR U+AE70
ENCODING 44656
SWIDTH 1000 0
DWIDTH 16 0
BBX 16 16 0 -2
BITMAP 
0000
0004
3BA4
08A4
08A4
0924
113C
1124
2224
0000
1FFC
0004
1FFC
1000
1FFC
0000
ENDCHAR
STARTCHAR U+AE78
ENCODING 44664
SWIDTH 1000 0
DWIDTH 16 0
BBX 16 16 0 -2
BITMAP 
0000
0014
3B94
0894
0894
0894
111C
1114
2214
0214
0000
1FFC
1004
1004
1FFC
1004
ENDCHAR
STARTCHAR U+AE79
ENCODING 44665
SWIDTH 1000 0
DWIDTH 16 0
BBX 16 16 0 -2
BITMAP 
0000
0024
3BA4
08A4
08A4
10A4
113C
2124
4224
0200
1004
1004
1FFC
1004
1FFC
1004
ENDCHAR
STARTCHAR U+AE7B
ENCODING 44667
SWIDTH 1000 0
DWIDTH 16 0
BBX 16 16 0 -2
BITMAP 
0000
0024
3BA4
08A4
08A4
0924
113C
1124
2224
0404
0040
00C0
00C0
0120
0618
0804
ENDCHAR
STARTCHAR U+AE7C
ENCODING 44668
SWIDTH 1000 0
DWIDTH 16 0
BBX 16 16 0 -2
BITMAP 
0000
0024
3F24
0924
0924
0924
123C
1224
2224
0424
0208
0208
0618
0518
1924
1040
ENDCHAR
STARTCHAR U+AE7D
ENCODING 44669
SWIDTH 1000 0
DWIDTH 16 0
BBX 16 16 0 -2
BITMAP 
0000
0014
3B94
0894
0894
0894
111C
1114
2214
0214
0000
07F0
180C
1004
180C
07F0
ENDCHAR
STARTCHAR U+AE84
ENCODING 44676
SWIDTH 1000 0
DWIDTH 16 0
BBX 16 16 0 -2
BITMAP 
0000
0008
3BC8
0888
0888
088F
1088
1088
3108
2108
420F
0208
0008
0008
0008
0008
ENDCHAR
STARTCHAR U+AE85
ENCODING 44677
SWIDTH 1000 0
DWIDTH 16 0
BBX 16 16 0 -2
BITMAP 
0000
0008
3BC8
0848
084F
0888
1088
210F
6108
0208
0000
3FF8
0008
0008
0008
0008
ENDCHAR
STARTCHAR U+AE8C
ENCODING 44684
SWIDTH 1000 0
DWIDTH 16 0
BBX 16 16 0 -2
BITMAP 
0000
0008
3BC8
088F
0888
1088
1108
210F
4608
0008
1FF8
0008
1FF8
1000
1000
1FFC
ENDCHAR
STARTCHAR U+AEBC
ENCODING 44732
SWIDTH 1000 0
DWIDTH 16 0
BBX 16 16 0 -2
BITMAP 
0000
0004
0004
1DC4
0444
0444
0444
087C
0884
1084
2104
2104
0204
0004
0004
0004
ENDCHAR
STARTCHAR U+AEBD
ENCODING 44733
SWIDTH 1000 0
DWIDTH 16 0
BBX 16 16 0 -2
BITMAP 
0000
0004
3DC4
0444
0444
08BC
1884
3104
2104
0204
0000
1FFC
0004
0004
0004
0004
ENDCHAR
STARTCHAR U+AEBE
ENCODING 44734
SWIDTH 1000 0
DWIDTH 16 0
BBX 16 16 0 -2
BITMAP 
0000
0004
3DC4
0444
0444
08BC
1884
3104
2204
0000
1F7C
0104
0104
0104
0104
0104
ENDCHAR
STARTCHAR U+AEC0
ENCODING 44736
SWIDTH 1000 0
DWIDTH 16 0
BBX 16 16 0 -2
BITMAP 
0000
0004
3DC4
0444
0444
087C
0884
1084
3104
0304
0004
0804
0800
0800
0FFE
0000
ENDCHAR
STARTCHAR U+AEC4
ENCODING 44740
SWIDTH 1000 0
DWIDTH 16 0
BBX 16 16 0 -2
BITMAP 
0000
0004
3DC4
0444
0444
0844
089C
1084
2104
0004
0FFC
0004
0FFC
0800
0FFE
0000
ENDCHAR
STARTCHAR U+AECC
ENCODING 44748
SWIDTH 1000 0
DWIDTH 16 0
BBX 16 16 0 -2
BITMAP 
0000
0004
3DC4
0444
0444
0884
08BC
1184
2104
0204
0FFC
0804
0804
0804
0FFC
0804
ENDCHAR
STARTCHAR U+AECD
ENCODING 44749
SWIDTH 1000 0
DWIDTH 16 0
BBX 16 16 0 -2
BITMAP 
0000
0004
3DC4
0444
0444
087C
0884
1084
2104
0000
0804
0804
0FFC
0804
0FFC
0804
ENDCHAR
STARTCHAR U+AECF
ENCODING 44751
SWIDTH 1000 0
DWIDTH 16 0
BBX 16 16 0 -2
BITMAP 
0000
0004
3DC4
0444
0444
0884
08BC
1084
2104
0204
0004
0084
00C0
0160
0610
080C
ENDCHAR
STARTCHAR U+AED0
ENCODING 44752
SWIDTH 1000 0
DWIDTH 16 0
BBX 16 16 0 -2
BITMAP 
0000
0008
3B88
0888
0888
0978
1108
2208
0608
0400
0610
0410
0610
0A28
1944
2000
ENDCHAR
STARTCHAR U+AED1
ENCODING 44753
SWIDTH 1000 0
DWIDTH 16 0
BBX 16 16 0 -2
BITMAP 
0000
0004
3DC4
0444
0444
08BC
0884
1104
2104
0204
07F0
1808
1004
1004
0808
07F0
ENDCHAR
STARTCHAR U+AED8
ENCODING 44760
SWIDTH 1000 0
DWIDTH 16 0
BBX 16 16 0 -2
BITMAP 
0000
0014
0014
3B94
0894
0894
0894
10F4
1114
1114
2214
0214
0414
0014
0014
0004
ENDCHAR
STARTCHAR U+AED9
ENCODING 44761
SWIDTH 1000 0
DWIDTH 16 0
BBX 16 16 0 -2
BITMAP 
0000
0004
3B94
0894
0894
0914
1174
2114
0214
0414
1FFC
0004
0004
0004
0004
0004
ENDCHAR
STARTCHAR U+AEDC
ENCODING 44764
SWIDTH 1000 0
DWIDTH 16 0
BBX 16 16 0 -2
BITMAP 
0000
0004
3B94
0894
0894
1174
1114
2214
0214
0414
0014
0814
0800
0800
0FFE
0000
ENDCHAR
STARTCHAR U+AEE8
ENCODING 44776
SWIDTH 1000 0
DWIDTH 16 0
BBX 16 16 0 -2
BITMAP 
0000
0004
3B94
0894
0894
0914
1174
2214
0214
0414
0000
0FFC
0804
0804
0FFC
0804
ENDCHAR
STARTCHAR U+AEEB
ENCODING 44779
SWIDTH 1000 0
DWIDTH 16 0
BBX 16 16 0 -2
BITMAP 
0000
0014
3B94
0894
0894
1114
1174
2114
0214
0014
0000
0080
00C0
0120
0618
1804
ENDCHAR
STARTCHAR U+AEED
ENCODING 44781
SWIDTH 1000 0
DWIDTH 16 0
BBX 16 16 0 -2
BITMAP 
0000
0016
3B94
0894
0894
0914
1174
2214
2214
0414
07FC
0804
1002
1002
0804
07F8
ENDCHAR
STARTCHAR U+AEF4
ENCODING 44788
SWIDTH 1000 0
DWIDTH 16 0
BBX 16 16 0 -2
BITMAP 
0000
0004
0004
3DC4
045C
0444
0444
0844
089C
1084
2084
2104
0204
0004
0004
0004
ENDCHAR
STARTCHAR U+AEF8
ENCODING 44792
SWIDTH 1000 0
DWIDTH 16 0
BBX 16 16 0 -2
BITMAP 
0000
0004
3DC4
0444
047C
0884
0884
1084
213C
0004
0004
0804
0804
0800
0FFE
0000
ENDCHAR
STARTCHAR U+AEFC
ENCODING 44796
SWIDTH 1000 0
DWIDTH 16 0
BBX 16 16 0 -2
BITMAP 
0000
0004
3DC4
0444
047C
0844
18BC
3104
0304
0000
0FFC
0004
0FFC
0800
0FFE
0000
ENDCHAR
STARTCHAR U+AF07
ENCODING 44807
SWIDTH 1000 0
DWIDTH 16 0
BBX 16 16 0 -2
BITMAP 
0000
0004
3DC4
0444
047C
0844
0884
10BC
3104
0204
0004
0040
00C0
01A0
0318
0C04
ENDCHAR
STARTCHAR U+AF08
ENCODING 44808
SWIDTH 1000 0
DWIDTH 16 0
BBX 16 16 0 -2
BITMAP 
0000
0004
3FC4
0844
08BC
0884
1084
313C
6204
0004
0010
0610
0618
0928
1064
0040
ENDCHAR
STARTCHAR U+AF0D
ENCODING 44813
SWIDTH 1000 0
DWIDTH 16 0
BBX 16 16 0 -2
BITMAP 
0000
0004
3DC4
0444
047C
0884
0884
113C
2104
0000
1FFC
1000
1FF8
1000
1FFC
0000
ENDCHAR
STARTCHAR U+AF10
ENCODING 44816
SWIDTH 1000 0
DWIDTH 16 0
BBX 16 16 0 -2
BITMAP 
0000
0014
0014
3B94
0894
08F4
0894
1094
1174
1114
2214
0614
0414
0014
0014
0004
ENDCHAR
STARTCHAR U+AF2C
ENCODING 44844
SWIDTH 1000 0
DWIDTH 16 0
BBX 16 16 0 -2
BITMAP 
0000
0000
0000
3C7C
0408
0408
0408
0408
0488
0888
0880
0080
0080
7FFE
0000
0000
ENDCHAR
STARTCHAR U+AF2D
ENCODING 44845
SWIDTH 1000 0
DWIDTH 16 0
BBX 16 16 0 -2
BITMAP 
0000
0000
3CF8
0408
0408
0488
0488
0080
7FFE
0000
1FF8
0008
0008
0008
0008
0008
ENDCHAR
STARTCHAR U+AF30
ENCODING 44848
SWIDTH 1000 0
DWIDTH 16 0
BBX 16 16 0 -2
BITMAP 
0000
0000
3CF8
0408
0408
0488
0488
0080
7FFF
0000
1000
1000
1000
1000
1FFC
0000
ENDCHAR
STARTCHAR U+AF32
ENCODING 44850
SWIDTH 1000 0
DWIDTH 16 0
BBX 16 16 0 -2
BITMAP 
0000
3CF8
0408
0408
0488
0488
0080
7FFF
0000
1070
1000
11F8
10F0
1108
1F08
00F0
ENDCHAR
STARTCHAR U+AF34
ENCODING 44852
SWIDTH 1000 0
DWIDTH 16 0
BBX 16 16 0 -2
BITMAP 
0000
3EF8
0408
0408
0488
0488
0080
7FFF
0000
1FF8
0008
0008
1FF8
1000
1FFC
0000
ENDCHAR
STARTCHAR U+AF3C
ENCODING 44860
SWIDTH 1000 0
DWIDTH 16 0
BBX 16 16 0 -2
BITMAP 
0000
0000
3CF8
0408
0408
0488
0488
0080
7FFF
0000
0000
1FF8
1008
1008
1FF8
1008
ENDCHAR
STARTCHAR U+AF3D
ENCODING 44861
SWIDTH 1000 0
DWIDTH 16 0
BBX 16 16 0 -2
BITMAP 
0000
0000
3CF8
0408
0408
0488
0488
0080
7FFF
1008
1008
1FF8
1008
1008
1FF8
1008
ENDCHAR
STARTCHAR U+AF3F
ENCODING 44863
SWIDTH 1000 0
DWIDTH 16 0
BBX 16 16 0 -2
BITMAP 
0000
0000
3EF8
0408
0408
0488
0488
0080
7FFE
0000
0180
0180
0240
0C30
300C
0000
ENDCHAR
STARTCHAR U+AF41
ENCODING 44865
SWIDTH 1000 0
DWIDTH 16 0
BBX 16 16 0 -2
BITMAP 
0000
0000
3CF8
0408
0408
0488
0488
7FFF
0000
0000
0FF0
1008
2004
2004
100C
0FF0
ENDCHAR
STARTCHAR U+AF42
ENCODING 44866
SWIDTH 1000 0
DWIDTH 16 0
BBX 16 16 0 -2
BITMAP 
0000
0000
3CF8
0408
0408
0488
0488
7FFE
0000
0000
1FF8
0180
0180
0660
381C
0000
ENDCHAR
STARTCHAR U+AF43
ENCODING 44867
SWIDTH 1000 0
DWIDTH 16 0
BBX 16 16 0 -2
BITMAP 
0000
0000
3CF8
0408
0408
0488
0080
7FFF
0000
03C0
1FF8
0180
0180
0660
181C
0000
ENDCHAR
STARTCHAR U+AF48
ENCODING 44872
SWIDTH 1000 0
DWIDTH 16 0
BBX 16 16 0 -2
BITMAP 
0000
0008
7BC8
0848
0848
0848
0848
1248
120F
0208
0208
7FC8
0008
0008
0008
0008
ENDCHAR
STARTCHAR U+AF49
ENCODING 44873
SWIDTH 1000 0
DWIDTH 16 0
BBX 16 16 0 -2
BITMAP 
0000
0008
3BC8
0848
0848
1248
124E
0208
7FC8
0000
0000
3FF8
0008
0008
0008
0008
ENDCHAR
STARTCHAR U+AF50
ENCODING 44880
SWIDTH 1000 0
DWIDTH 16 0
BBX 16 16 0 -2
BITMAP 
0000
0008
3BC8
0848
0848
1248
124F
0208
7FE8
0000
3FF8
0008
3FF8
2000
3FF8
0000
ENDCHAR
STARTCHAR U+AF5C
ENCODING 44892
SWIDTH 1000 0
DWIDTH 16 0
BBX 16 16 0 -2
BITMAP 
0000
0008
7BC8
0848
0848
0A48
124E
0208
7FE8
0008
0600
0410
0610
0A28
114C
2084
ENDCHAR
STARTCHAR U+AF5D
ENCODING 44893
SWIDTH 1000 0
DWIDTH 16 0
BBX 16 16 0 -2
BITMAP 
0000
0008
3BC8
0848
0848
0A48
124F
0208
7FC8
0008
0FE0
1018
2008
2008
3018
0FE0
ENDCHAR
STARTCHAR U+AF64
ENCODING 44900
SWIDTH 1000 0
DWIDTH 16 0
BBX 16 16 0 -2
BITMAP 
0000
0004
3B94
0894
0894
1094
1094
1494
041C
0414
0414
7F94
0014
0014
0014
0004
ENDCHAR
STARTCHAR U+AF65
ENCODING 44901
SWIDTH 1000 0
DWIDTH 16 0
BBX 16 16 0 -2
BITMAP 
0000
0004
3B94
0894
1094
1494
041C
0414
7F94
0014
0000
1FFC
0004
0004
0004
0004
ENDCHAR
STARTCHAR U+AF79
ENCODING 44921
SWIDTH 1000 0
DWIDTH 16 0
BBX 16 16 0 -2
BITMAP 
0000
0004
3BA4
08A4
10A4
14A4
043C
0424
7FA4
0024
07F0
1808
1004
1004
180C
07F0
ENDCHAR
STARTCHAR U+AF80
ENCODING 44928
SWIDTH 1000 0
DWIDTH 16 0
BBX 16 16 0 -2
BITMAP 
0000
0004
1DE4
0424
0424
0424
0824
0924
0904
0104
0104
3FE4
0004
0004
0004
0004
ENDCHAR
STARTCHAR U+AF84
ENCODING 44932
SWIDTH 1000 0
DWIDTH 16 0
BBX 16 16 0 -2
BITMAP 
0000
0004
1DE4
0424
0424
0824
0924
0924
0104
3FF4
0004
0804
0800
0800
0FFE
0000
ENDCHAR
STARTCHAR U+AF88
ENCODING 44936
SWIDTH 1000 0
DWIDTH 16 0
BBX 16 16 0 -2
BITMAP 
0000
0004
3DE4
0424
0424
0524
0924
010C
3FF4
0000
0FFC
0004
0FFC
0800
0FFE
0000
ENDCHAR
STARTCHAR U+AF90
ENCODING 44944
SWIDTH 1000 0
DWIDTH 16 0
BBX 16 16 0 -2
BITMAP 
0000
0004
1DE4
0424
0424
0424
0924
0924
01FC
1E04
0FFC
0804
0804
0804
0FFC
0804
ENDCHAR
STARTCHAR U+AF91
ENCODING 44945
SWIDTH 1000 0
DWIDTH 16 0
BBX 16 16 0 -2
BITMAP 
0000
0004
1DE4
0424
0424
0524
0924
0104
3FFC
0004
0804
0804
0FFC
0804
0FFC
0804
ENDCHAR
STARTCHAR U+AF95
ENCODING 44949
SWIDTH 1000 0
DWIDTH 16 0
BBX 16 16 0 -2
BITMAP 
0000
0004
1DE4
0424
0424
0424
0924
0104
017C
3E84
07F0
180C
1004
1004
0808
07F0
ENDCHAR
STARTCHAR U+AF9C
ENCODING 44956
SWIDTH 1000 0
DWIDTH 16 0
BBX 16 16 0 -2
BITMAP 
0000
0000
0000
3CFC
0404
0404
0404
0804
0A28
0A28
0228
0220
0220
7FFE
0000
0000
ENDCHAR
STARTCHAR U+AFB8
ENCODING 44984
SWIDTH 1000 0
DWIDTH 16 0
BBX 16 16 0 -2
BITMAP 
0000
0000
7CF8
0408
0408
0408
0410
0410
FFFE
0100
0100
0100
0100
0100
0100
0100
ENDCHAR
STARTCHAR U+AFB9
ENCODING 44985
SWIDTH 1000 0
DWIDTH 16 0
BBX 16 16 0 -2
BITMAP 
0000
7CF8
0408
0408
0408
0410
0410
FFFE
0100
0100
3FF8
0008
0008
0008
0008
0008
ENDCHAR
STARTCHAR U+AFBC
ENCODING 44988
SWIDTH 1000 0
DWIDTH 16 0
BBX 16 16 0 -2
BITMAP 
0000
0000
3EF8
0208
0208
0408
0408
7FFE
0100
0100
1100
1000
1000
1000
1FFC
0000
ENDCHAR
STARTCHAR U+AFC0
ENCODING 44992
SWIDTH 1000 0
DWIDTH 16 0
BBX 16 16 0 -2
BITMAP 
0000
3CF8
0408
0408
0408
0410
FFFE
0100
0100
1FF8
0008
0008
1FF8
1000
1FFC
0000
ENDCHAR
STARTCHAR U+AFC7
ENCODING 44999
SWIDTH 1000 0
DWIDTH 16 0
BBX 16 16 0 -2
BITMAP 
0000
3E7C
0204
0204
0208
0208
7FFF
0080
0080
1E70
02FC
0200
1E70
1088
1088
1F70
ENDCHAR
STARTCHAR U+AFC8
ENCODING 45000
SWIDTH 1000 0
DWIDTH 16 0
BBX 16 16 0 -2
BITMAP 
0000
0000
3CF8
0408
0408
0410
FFFE
0100
0100
0100
1FF8
1008
1008
1008
1FF8
1008
ENDCHAR
STARTCHAR U+AFC9
ENCODING 45001
SWIDTH 1000 0
DWIDTH 16 0
BBX 16 16 0 -2
BITMAP 
0000
0000
3CF8
0408
0408
0408
0410
FFFE
0100
1108
1108
1FF8
1008
1008
1FF8
1008
ENDCHAR
STARTCHAR U+AFCB
ENCODING 45003
SWIDTH 1000 0
DWIDTH 16 0
BBX 16 16 0 -2
BITMAP 
0000
7CF8
0408
0408
0408
0410
0410
FFFE
0100
0100
0000
0100
0180
0240
0C30
300C
ENDCHAR
STARTCHAR U+AFCD
ENCODING 45005
SWIDTH 1000 0
DWIDTH 16 0
BBX 16 16 0 -2
BITMAP 
0000
0000
3E7C
0204
0204
0208
0208
7FFF
0080
0080
0FF0
1008
2004
2004
1008
0FF0
ENDCHAR
STARTCHAR U+AFCE
ENCODING 45006
SWIDTH 1000 0
DWIDTH 16 0
BBX 16 16 0 -2
BITMAP 
0000
3CF8
0408
0408
0410
0410
FFFE
0100
0100
0100
3FF8
0180
0180
0240
0C20
1018
ENDCHAR
STARTCHAR U+AFD4
ENCODING 45012
SWIDTH 1000 0
DWIDTH 16 0
BBX 16 16 0 -2
BITMAP 
0000
0004
3DC4
0444
0844
0844
0844
0864
7F84
0204
023C
0204
0204
0204
0204
0004
ENDCHAR
STARTCHAR U+AFDC
ENCODING 45020
SWIDTH 1000 0
DWIDTH 16 0
BBX 16 16 0 -2
BITMAP 
0000
0004
3DC4
0844
0844
0844
0FE4
7204
023C
0004
0FFC
0004
0FFC
0800
0800
0FFE
ENDCHAR
STARTCHAR U+AFE8
ENCODING 45032
SWIDTH 1000 0
DWIDTH 16 0
BBX 16 16 0 -2
BITMAP 
0000
0004
3DC4
0844
0844
0844
78E4
0704
023C
0204
0000
0410
0618
0A18
1124
2040
ENDCHAR
STARTCHAR U+AFE9
ENCODING 45033
SWIDTH 1000 0
DWIDTH 16 0
BBX 16 16 0 -2
BITMAP 
0000
0004
3DC4
0844
0844
0844
0864
7784
023C
0204
07F0
1808
1004
1004
180C
07F0
ENDCHAR
STARTCHAR U+AFF0
ENCODING 45040
SWIDTH 1000 0
DWIDTH 16 0
BBX 16 16 0 -2
BITMAP 
0000
0024
3BA4
08A4
08A4
08A4
08A4
0B24
3FE4
0424
05E4
0424
0424
0424
0024
0004
ENDCHAR
STARTCHAR U+AFF1
ENCODING 45041
SWIDTH 1000 0
DWIDTH 16 0
BBX 16 16 0 -2
BITMAP 
0000
0012
3B12
0912
1112
1112
1F12
7F92
04F2
0412
0000
0FFE
0002
0002
0002
0002
ENDCHAR
STARTCHAR U+AFF4
ENCODING 45044
SWIDTH 1000 0
DWIDTH 16 0
BBX 16 16 0 -2
BITMAP 
0000
0002
3B12
0912
1112
1112
1112
7F12
0412
04F2
0412
0812
0800
0800
0FFE
0000
ENDCHAR
STARTCHAR U+AFF8
ENCODING 45048
SWIDTH 1000 0
DWIDTH 16 0
BBX 16 16 0 -2
BITMAP 
0000
0022
3B22
0922
0922
1122
7FA2
0422
05E2
0020
0FFE
0002
0FFE
0800
0FFE
0000
ENDCHAR
STARTCHAR U+B000
ENCODING 45056
SWIDTH 1000 0
DWIDTH 16 0
BBX 16 16 0 -2
BITMAP 
0000
0002
3B12
0912
0912
1112
7F92
0412
04F2
0012
0000
0FFE
0802
0802
0FFE
0802
ENDCHAR
STARTCHAR U+B001
ENCODING 45057
SWIDTH 1000 0
DWIDTH 16 0
BBX 16 16 0 -2
BITMAP 
0000
0004
3F24
0924
0924
1124
1FA4
6424
05E4
0024
0804
0804
0FFC
0804
0FFC
0804
ENDCHAR
STARTCHAR U+B004
ENCODING 45060
SWIDTH 1000 0
DWIDTH 16 0
BBX 16 16 0 -2
BITMAP 
0000
0004
7624
1224
1224
1224
2724
D824
09E4
0824
0000
0208
0208
0518
0824
1042
ENDCHAR
STARTCHAR U+B00C
ENCODING 45068
SWIDTH 1000 0
DWIDTH 16 0
BBX 16 16 0 -2
BITMAP 
0000
0004
1CE4
0424
0424
0424
0424
0824
3FF4
0104
0104
0104
0104
0104
0104
0004
ENDCHAR
STARTCHAR U+B010
ENCODING 45072
SWIDTH 1000 0
DWIDTH 16 0
BBX 16 16 0 -2
BITMAP 
0000
0004
1CE4
0424
0424
0424
0424
3FF4
0104
0104
0104
0904
0800
0800
0FFE
0000
ENDCHAR
STARTCHAR U+B014
ENCODING 45076
SWIDTH 1000 0
DWIDTH 16 0
BBX 16 16 0 -2
BITMAP 
0000
0004
1CE4
0424
0424
0424
3FF4
0104
0104
0000
0FFC
0004
0FFC
0800
0FFE
0000
ENDCHAR
STARTCHAR U+B01C
ENCODING 45084
SWIDTH 1000 0
DWIDTH 16 0
BBX 16 16 0 -2
BITMAP 
0000
0004
1CE4
0424
0424
0424
0434
3FC4
0104
0104
0000
0FFC
0804
0804
0FFC
0804
ENDCHAR
STARTCHAR U+B01D
ENCODING 45085
SWIDTH 1000 0
DWIDTH 16 0
BBX 16 16 0 -2
BITMAP 
0000
0004
1CE4
0424
0424
0424
0434
3BC4
0104
0104
0804
0804
0FFC
0804
0FFC
0804
ENDCHAR
STARTCHAR U+B028
ENCODING 45096
SWIDTH 1000 0
DWIDTH 16 0
BBX 16 16 0 -2
BITMAP 
0000
0000
3EF8
0208
0208
0208
0408
0410
7FFE
0420
0420
0420
0420
0420
0420
0420
ENDCHAR
STARTCHAR U+B044
ENCODING 45124
SWIDTH 1000 0
DWIDTH 16 0
BBX 16 16 0 -2
BITMAP 
0000
0000
0000
3EF8
0208
0208
0208
0408
0408
0408
0408
0410
0410
7FFE
0000
0000
ENDCHAR
STARTCHAR U+B045
ENCODING 45125
SWIDTH 1000 0
DWIDTH 16 0
BBX 16 16 0 -2
BITMAP 
0000
0000
3EF8
0208
0208
0408
0408
7FFE
0000
0000
3FF8
0008
0008
0008
0008
0008
ENDCHAR
STARTCHAR U+B048
ENCODING 45128
SWIDTH 1000 0
DWIDTH 16 0
BBX 16 16 0 -2
BITMAP 
0000
0000
3EF8
0208
0208
0408
0408
0408
7FFE
0000
1000
1000
1000
1000
1FFC
0000
ENDCHAR
STARTCHAR U+B04A
ENCODING 45130
SWIDTH 1000 0
DWIDTH 16 0
BBX 16 16 0 -2
BITMAP 
0000
0000
3EF8
0208
0408
0408
0408
7FFE
0070
1000
11F8
10F0
1108
1108
1F88
00F0
ENDCHAR
STARTCHAR U+B04C
ENCODING 45132
SWIDTH 1000 0
DWIDTH 16 0
BBX 16 16 0 -2
BITMAP 
0000
0000
3EF8
0208
0208
0408
0408
7FFE
0000
1FF8
0008
0008
1FF8
1000
1FFC
0000
ENDCHAR
STARTCHAR U+B04E
ENCODING 45134
SWIDTH 1000 0
DWIDTH 16 0
BBX 16 16 0 -2
BITMAP 
0000
0000
3EF8
0208
0408
0408
0408
7FFE
0000
1FF8
0188
0188
1F88
1088
10F8
1F88
ENDCHAR
STARTCHAR U+B053
ENCODING 45139
SWIDTH 1000 0
DWIDTH 16 0
BBX 16 16 0 -2
BITMAP 
0000
0000
3EF8
0208
0408
0410
7FFE
0000
0070
1E00
03F8
1E70
1088
1088
1F88
0070
ENDCHAR
STARTCHAR U+B054
ENCODING 45140
SWIDTH 1000 0
DWIDTH 16 0
BBX 16 16 0 -2
BITMAP 
0000
0000
3EF8
0208
0408
0408
0408
7FFE
0000
0000
1FF8
1008
1008
1008
1FF8
1008
ENDCHAR
STARTCHAR U+B055
ENCODING 45141
SWIDTH 1000 0
DWIDTH 16 0
BBX 16 16 0 -2
BITMAP 
0000
0000
3EF8
0208
0408
0408
0408
7FFE
0000
1008
1008
1FF8
1008
1008
1FF8
1008
ENDCHAR
STARTCHAR U+B057
ENCODING 45143
SWIDTH 1000 0
DWIDTH 16 0
BBX 16 16 0 -2
BITMAP 
0000
0000
3EF8
0208
0208
0408
0408
0408
7FFE
0080
0180
0180
0240
0C30
300C
0000
ENDCHAR
STARTCHAR U+B059
ENCODING 45145
SWIDTH 1000 0
DWIDTH 16 0
BBX 16 16 0 -2
BITMAP 
0000
0000
3EF8
0208
0408
0408
0408
7FFE
0000
0000
0FF0
1008
2004
2004
1008
0FF0
ENDCHAR
STARTCHAR U+B05D
ENCODING 45149
SWIDTH 1000 0
DWIDTH 16 0
BBX 16 16 0 -2
BITMAP 
0000
0000
3EF8
0208
0408
0408
0408
7FFE
0000
1FFC
1000
1000
1FF8
1000
1FFC
0000
ENDCHAR
STARTCHAR U+B07C
ENCODING 45180
SWIDTH 1000 0
DWIDTH 16 0
BBX 16 16 0 -2
BITMAP 
0000
0004
0004
1DE4
0424
0424
0444
0844
0844
1044
1084
2084
0104
0204
0004
0004
ENDCHAR
STARTCHAR U+B07D
ENCODING 45181
SWIDTH 1000 0
DWIDTH 16 0
BBX 16 16 0 -2
BITMAP 
0000
0004
3DC4
0444
0444
0884
0884
1104
2304
0204
0000
1FFC
0004
0004
0004
0004
ENDCHAR
STARTCHAR U+B080
ENCODING 45184
SWIDTH 1000 0
DWIDTH 16 0
BBX 16 16 0 -2
BITMAP 
0000
0004
3DE4
0444
0444
0444
0844
1884
3084
2304
0004
0804
0800
0800
0FFE
0000
ENDCHAR
STARTCHAR U+B084
ENCODING 45188
SWIDTH 1000 0
DWIDTH 16 0
BBX 16 16 0 -2
BITMAP 
0000
0004
3DE4
0424
0424
0844
0844
3084
0104
0000
0FFC
0004
0FFC
0800
0800
0FFE
ENDCHAR
STARTCHAR U+B08C
ENCODING 45196
SWIDTH 1000 0
DWIDTH 16 0
BBX 16 16 0 -2
BITMAP 
0000
0004
3DE4
0424
0424
0444
0844
1084
2184
0304
0000
0FFC
0804
0804
0FFC
0804
ENDCHAR
STARTCHAR U+B08D
ENCODING 45197
SWIDTH 1000 0
DWIDTH 16 0
BBX 16 16 0 -2
BITMAP 
0000
0004
3DE4
0424
0444
0844
0884
1084
2104
0000
0804
0804
0FFC
0804
0FFC
0804
ENDCHAR
STARTCHAR U+B08F
ENCODING 45199
SWIDTH 1000 0
DWIDTH 16 0
BBX 16 16 0 -2
BITMAP 
0000
0004
3DC4
0444
0844
0844
0884
1084
6104
0204
0004
00C0
00C0
0120
0618
0804
ENDCHAR
STARTCHAR U+B091
ENCODING 45201
SWIDTH 1000 0
DWIDTH 16 0
BBX 16 16 0 -2
BITMAP 
0000
0004
3DC4
0444
0444
0844
0844
1084
2104
0204
0000
03F0
0C0C
0804
0C0C
03F0
ENDCHAR
STARTCHAR U+B098
ENCODING 45208
SWIDTH 1000 0
DWIDTH 16 0
BBX 16 16 0 -2
BITMAP 
0000
0010
4010
4010
4010
4010
4010
4010
401E
4010
41D0
7E10
0010
0010
0010
0010
ENDCHAR
STARTCHAR U+B099
ENCODING 45209
SWIDTH 1000 0
DWIDTH 16 0
BBX 16 16 0 -2
BITMAP 
0000
0010
4010
4010
4010
401E
4010
41D0
7E10
0000
0000
3FF0
0010
0010
0010
0010
ENDCHAR
STARTCHAR U+B09A
ENCODING 45210
SWIDTH 1000 0
DWIDTH 16 0
BBX 16 16 0 -2
BITMAP 
0000
0010
4010
4010
4010
401E
4010
43D0
3C10
0000
3FF0
0210
0210
0210
0210
0210
ENDCHAR
STARTCHAR U+B09C
ENCODING 45212
SWIDTH 1000 0
DWIDTH 16 0
BBX 16 16 0 -2
BITMAP 
0000
0010
4010
4010
4010
4010
401E
4010
7FD0
0010
2010
2010
2000
2000
3FF0
0000
ENDCHAR
STARTCHAR U+B09F
ENCODING 45215
SWIDTH 1000 0
DWIDTH 16 0
BBX 16 16 0 -2
BITMAP 
0000
0010
4010
4010
4010
4010
401E
47D0
3810
0010
0000
3FF0
2000
2000
3FF0
0000
ENDCHAR
STARTCHAR U+B0A0
ENCODING 45216
SWIDTH 1000 0
DWIDTH 16 0
BBX 16 16 0 -2
BITMAP 
0000
0010
4010
4010
4010
4010
401E
7FD0
0010
0000
3FF0
0010
3FF0
2000
3FF0
0000
ENDCHAR
STARTCHAR U+B0A1
ENCODING 45217
SWIDTH 1000 0
DWIDTH 16 0
BBX 16 16 0 -2
BITMAP 
0000
0010
4010
4010
4010
401E
4010
7FD0
0000
3FF0
0210
0210
3E10
2010
2010
3E10
ENDCHAR
STARTCHAR U+B0A2
ENCODING 45218
SWIDTH 1000 0
DWIDTH 16 0
BBX 16 16 0 -2
BITMAP 
0000
0010
4010
4010
4010
401E
4010
7FD0
0010
3EF0
0290
0290
3E90
2090
26F0
1890
ENDCHAR
STARTCHAR U+B0A8
ENCODING 45224
SWIDTH 1000 0
DWIDTH 16 0
BBX 16 16 0 -2
BITMAP 
0000
0010
4010
4010
4010
4010
401E
7FD0
0010
0010
3FF0
2010
2010
2010
3FF0
2010
ENDCHAR
STARTCHAR U+B0A9
ENCODING 45225
SWIDTH 1000 0
DWIDTH 16 0
BBX 16 16 0 -2
BITMAP 
0000
0010
4010
4010
4010
401E
4010
7FD0
0010
0000
2010
3FF0
3E10
2010
3FF0
2010
ENDCHAR
STARTCHAR U+B0AB
ENCODING 45227
SWIDTH 1000 0
DWIDTH 16 0
BBX 16 16 0 -2
BITMAP 
0000
0010
4010
4010
4010
4010
401E
4010
7F90
0010
0190
0100
0180
0240
0C30
3008
ENDCHAR
STARTCHAR U+B0AC
ENCODING 45228
SWIDTH 1000 0
DWIDTH 16 0
BBX 16 16 0 -2
BITMAP 
0000
0010
4010
4010
4010
401E
4010
43D0
7C10
0000
0410
0430
0C30
1228
3248
0080
ENDCHAR
STARTCHAR U+B0AD
ENCODING 45229
SWIDTH 1000 0
DWIDTH 16 0
BBX 16 16 0 -2
BITMAP 
0000
0010
4010
4010
4010
4010
401E
40D0
7F10
0010
0FF0
1018
2008
2008
3018
0FE0
ENDCHAR
STARTCHAR U+B0AE
ENCODING 45230
SWIDTH 1000 0
DWIDTH 16 0
BBX 16 16 0 -2
BITMAP 
0000
0010
4010
4010
4010
401E
4010
7F90
0010
0000
1FF0
0100
0100
0280
0C60
3018
ENDCHAR
STARTCHAR U+B0AF
ENCODING 45231
SWIDTH 1000 0
DWIDTH 16 0
BBX 16 16 0 -2
BITMAP 
0000
0010
4010
4010
4010
4010
401E
7F90
0010
0780
0000
3FF0
0100
0280
0440
3838
ENDCHAR
STARTCHAR U+B0B1
ENCODING 45233
SWIDTH 1000 0
DWIDTH 16 0
BBX 16 16 0 -2
BITMAP 
0000
0010
4010
4010
4010
401E
4050
7F90
0010
0000
3FF0
2000
3FF0
2000
3FF0
0000
ENDCHAR
STARTCHAR U+B0B3
ENCODING 45235
SWIDTH 1000 0
DWIDTH 16 0
BBX 16 16 0 -2
BITMAP 
0000
0010
4010
4010
4010
401E
43D0
7C10
07D0
0000
3FF8
0000
0FC0
3038
3008
1FF0
ENDCHAR
STARTCHAR U+B0B4
ENCODING 45236
SWIDTH 1000 0
DWIDTH 16 0
BBX 16 16 0 -2
BITMAP 
0000
0044
2044
2044
2044
2044
2044
2044
207C
2044
2044
3F44
0044
0044
0044
0004
ENDCHAR
STARTCHAR U+B0B5
ENCODING 45237
SWIDTH 1000 0
DWIDTH 16 0
BBX 16 16 0 -2
BITMAP 
0000
0044
2044
2044
2044
2044
207C
2F44
1044
0044
0000
1FFC
0004
0004
0004
0004
ENDCHAR
STARTCHAR U+B0B8
ENCODING 45240
SWIDTH 1000 0
DWIDTH 16 0
BBX 16 16 0 -2
BITMAP 
0000
0004
2044
2044
2044
2044
207C
2044
3F44
0044
0044
1000
1000
1000
1FFC
0000
ENDCHAR
STARTCHAR U+B0BC
ENCODING 45244
SWIDTH 1000 0
DWIDTH 16 0
BBX 16 16 0 -2
BITMAP 
0000
0044
2044
2044
2044
207C
2044
3F44
0004
0000
1FFC
0004
1FFC
1000
1FFC
0000
ENDCHAR
STARTCHAR U+B0C4
ENCODING 45252
SWIDTH 1000 0
DWIDTH 16 0
BBX 16 16 0 -2
BITMAP 
0000
0004
2044
2044
2044
2044
207C
2F44
1044
0044
0000
1FFC
1004
1004
1FFC
1004
ENDCHAR
STARTCHAR U+B0C5
ENCODING 45253
SWIDTH 1000 0
DWIDTH 16 0
BBX 16 16 0 -2
BITMAP 
0000
0004
2044
2044
2044
2044
207C
3F44
0044
0004
1004
1004
1FFC
1004
1FFC
1004
ENDCHAR
STARTCHAR U+B0C7
ENCODING 45255
SWIDTH 1000 0
DWIDTH 16 0
BBX 16 16 0 -2
BITMAP 
0000
0044
4044
4044
4044
4044
407C
4044
7E44
0044
0004
0080
00C0
0160
0618
1804
ENDCHAR
STARTCHAR U+B0C8
ENCODING 45256
SWIDTH 1000 0
DWIDTH 16 0
BBX 16 16 0 -2
BITMAP 
0000
0004
4044
4044
4044
4044
407C
4244
7C44
0004
0410
0410
0418
0A28
1944
3040
ENDCHAR
STARTCHAR U+B0C9
ENCODING 45257
SWIDTH 1000 0
DWIDTH 16 0
BBX 16 16 0 -2
BITMAP 
0000
0044
2044
2044
2044
2044
207C
2744
3844
0044
0000
07F0
180C
1004
1C1C
07F0
ENDCHAR
STARTCHAR U+B0D0
ENCODING 45264
SWIDTH 1000 0
DWIDTH 16 0
BBX 16 16 0 -2
BITMAP 
0000
0010
4010
4010
4010
401E
4010
4010
4010
4010
405E
7F90
0010
0010
0010
0010
ENDCHAR
STARTCHAR U+B0D1
ENCODING 45265
SWIDTH 1000 0
DWIDTH 16 0
BBX 16 16 0 -2
BITMAP 
0000
0010
4010
4010
401E
4010
4050
7F9E
0010
0010
0000
3FF0
0010
0010
0010
0010
ENDCHAR
STARTCHAR U+B0D4
ENCODING 45268
SWIDTH 1000 0
DWIDTH 16 0
BBX 16 16 0 -2
BITMAP 
0000
0010
4010
4010
401C
4010
4010
41D0
7E1C
0010
0010
2010
2000
2000
3FF0
0000
ENDCHAR
STARTCHAR U+B0D8
ENCODING 45272
SWIDTH 1000 0
DWIDTH 16 0
BBX 16 16 0 -2
BITMAP 
0000
0010
4010
401E
4010
4010
4010
7F9E
0010
3FF0
0010
0010
3FF0
2000
3FF0
0000
ENDCHAR
STARTCHAR U+B0E0
ENCODING 45280
SWIDTH 1000 0
DWIDTH 16 0
BBX 16 16 0 -2
BITMAP 
0000
0010
4010
4010
401E
4010
4010
7FDE
0010
0010
0000
3FF0
2010
2010
3FF0
2010
ENDCHAR
STARTCHAR U+B0E5
ENCODING 45285
SWIDTH 1000 0
DWIDTH 16 0
BBX 16 16 0 -2
BITMAP 
0000
0010
4010
4010
401E
4010
4010
43D0
3C1E
0010
0FF0
3018
2008
2008
1C70
0380
ENDCHAR
STARTCHAR U+B108
ENCODING 45320
SWIDTH 1000 0
DWIDTH 16 0
BBX 16 16 0 -2
BITMAP 
0000
0004
2004
2004
2004
2004
207C
2004
2004
2004
2004
3F84
0004
0004
0004
0004
ENDCHAR
STARTCHAR U+B109
ENCODING 45321
SWIDTH 1000 0
DWIDTH 16 0
BBX 16 16 0 -2
BITMAP 
0000
0004
2004
2004
207C
2004
2004
3FC4
0004
0004
0000
1FFC
0004
0004
0004
0004
ENDCHAR
STARTCHAR U+B10B
ENCODING 45323
SWIDTH 1000 0
DWIDTH 16 0
BBX 16 16 0 -2
BITMAP 
0000
0008
2008
2008
20F8
2008
2008
3F88
0008
0008
3E10
0230
0230
0248
02CC
0284
ENDCHAR
STARTCHAR U+B10C
ENCODING 45324
SWIDTH 1000 0
DWIDTH 16 0
BBX 16 16 0 -2
BITMAP 
0000
0004
2004
2004
2004
207C
2004
2004
3FC4
0004
0004
1004
1004
1000
1FF8
0000
ENDCHAR
STARTCHAR U+B110
ENCODING 45328
SWIDTH 1000 0
DWIDTH 16 0
BBX 16 16 0 -2
BITMAP 
0000
0004
2004
2004
207C
2004
2004
3F84
0004
0000
0FFC
0004
1FFC
1000
1FFC
0000
ENDCHAR
STARTCHAR U+B112
ENCODING 45330
SWIDTH 1000 0
DWIDTH 16 0
BBX 16 16 0 -2
BITMAP 
0000
0004
2004
2004
207C
2004
2004
3F84
0004
1F7C
0144
0144
1F44
1044
1F7C
0044
ENDCHAR
STARTCHAR U+B113
ENCODING 45331
SWIDTH 1000 0
DWIDTH 16 0
BBX 16 16 0 -2
BITMAP 
0000
0004
2004
2004
207C
2004
2004
3F04
0004
1F44
0144
017C
1F44
1044
107C
1F44
ENDCHAR
STARTCHAR U+B118
ENCODING 45336
SWIDTH 1000 0
DWIDTH 16 0
BBX 16 16 0 -2
BITMAP 
0000
0004
2004
2004
207C
2004
2004
2184
1E04
0004
0000
1FFC
1004
1004
1FFC
1004
ENDCHAR
STARTCHAR U+B119
ENCODING 45337
SWIDTH 1000 0
DWIDTH 16 0
BBX 16 16 0 -2
BITMAP 
0000
0004
2004
2004
207C
2004
2004
2184
3E04
1004
1004
1FFC
1004
1004
1FFC
1004
ENDCHAR
STARTCHAR U+B11B
ENCODING 45339
SWIDTH 1000 0
DWIDTH 16 0
BBX 16 16 0 -2
BITMAP 
0000
0008
2008
2008
2008
20F8
2008
2008
3F88
0008
0088
0088
00C0
0120
0618
1804
ENDCHAR
STARTCHAR U+B11C
ENCODING 45340
SWIDTH 1000 0
DWIDTH 16 0
BBX 16 16 0 -2
BITMAP 
0000
0008
4008
4008
40F8
4008
4008
4008
7F08
0000
0410
0410
0618
0A28
1164
2000
ENDCHAR
STARTCHAR U+B11D
ENCODING 45341
SWIDTH 1000 0
DWIDTH 16 0
BBX 16 16 0 -2
BITMAP 
0000
0004
2004
2004
207C
2004
2004
2184
3E04
0004
07F0
0808
1004
1004
180C
07F0
ENDCHAR
STARTCHAR U+B123
ENCODING 45347
SWIDTH 1000 0
DWIDTH 16 0
BBX 16 16 0 -2
BITMAP 
0000
0004
2004
2004
207C
2004
2384
3C04
03C4
0000
1FFC
0000
0FF8
1004
180C
07F0
ENDCHAR
STARTCHAR U+B124
ENCODING 45348
SWIDTH 1000 0
DWIDTH 16 0
BBX 16 16 0 -2
BITMAP 
0000
0044
2044
2044
2044
2044
23C4
2044
2044
2044
2044
3F44
0044
0044
0044
0004
ENDCHAR
STARTCHAR U+B125
ENCODING 45349
SWIDTH 1000 0
DWIDTH 16 0
BBX 16 16 0 -2
BITMAP 
0000
0024
2024
2024
2024
21E4
2024
2024
3F24
0024
0000
1FFC
0004
0004
0004
0004
ENDCHAR
STARTCHAR U+B128
ENCODING 45352
SWIDTH 1000 0
DWIDTH 16 0
BBX 16 16 0 -2
BITMAP 
0000
0024
2024
2024
2024
21E4
2024
2024
2324
3C24
0024
1024
1000
1000
1FFC
0000
ENDCHAR
STARTCHAR U+B12C
ENCODING 45356
SWIDTH 1000 0
DWIDTH 16 0
BBX 16 16 0 -2
BITMAP 
0000
0004
2024
2024
21E4
2024
2024
2324
3C24
0000
1FFC
0004
1FFC
1000
1FFC
0000
ENDCHAR
STARTCHAR U+B134
ENCODING 45364
SWIDTH 1000 0
DWIDTH 16 0
BBX 16 16 0 -2
BITMAP 
0000
0004
2024
2024
2024
20E4
2024
3F24
0024
0024
0000
1FFC
1004
1004
1FFC
1004
ENDCHAR
STARTCHAR U+B135
ENCODING 45365
SWIDTH 1000 0
DWIDTH 16 0
BBX 16 16 0 -2
BITMAP 
0000
0004
2024
2024
21E4
2024
2024
2324
3C24
0004
0000
1004
1FFC
1004
1FFC
1004
ENDCHAR
STARTCHAR U+B137
ENCODING 45367
SWIDTH 1000 0
DWIDTH 16 0
BBX 16 16 0 -2
BITMAP 
0000
0044
2044
2044
2044
23C4
2044
2044
3F44
0044
0004
0080
0180
0260
0438
1804
ENDCHAR
STARTCHAR U+B138
ENCODING 45368
SWIDTH 1000 0
DWIDTH 16 0
BBX 16 16 0 -2
BITMAP 
0000
0008
4048
4048
43C8
4048
4048
4248
7C48
0008
0000
0410
0430
0A28
194C
2080
ENDCHAR
STARTCHAR U+B139
ENCODING 45369
SWIDTH 1000 0
DWIDTH 16 0
BBX 16 16 0 -2
BITMAP 
0000
0024
2024
2024
21E4
2024
2024
2324
3C24
0024
07F0
180C
1004
1004
180C
07F0
ENDCHAR
STARTCHAR U+B140
ENCODING 45376
SWIDTH 1000 0
DWIDTH 16 0
BBX 16 16 0 -2
BITMAP 
0000
0004
2004
2004
207C
2004
2004
2004
207C
2004
2004
2F84
1004
0004
0004
0004
ENDCHAR
STARTCHAR U+B141
ENCODING 45377
SWIDTH 1000 0
DWIDTH 16 0
BBX 16 16 0 -2
BITMAP 
0000
0004
2004
207C
2004
2004
207C
2004
3F84
0004
0000
0FFC
0004
0004
0004
0004
ENDCHAR
STARTCHAR U+B144
ENCODING 45380
SWIDTH 1000 0
DWIDTH 16 0
BBX 16 16 0 -2
BITMAP 
0000
0004
2004
207C
2004
2004
207C
2004
2104
3E04
0004
1004
1000
1000
1FFC
0000
ENDCHAR
STARTCHAR U+B148
ENCODING 45384
SWIDTH 1000 0
DWIDTH 16 0
BBX 16 16 0 -2
BITMAP 
0000
0004
2004
207C
2004
207C
2004
3F84
0004
0000
1FFC
0004
1FFC
1000
1FFC
0000
ENDCHAR
STARTCHAR U+B150
ENCODING 45392
SWIDTH 1000 0
DWIDTH 16 0
BBX 16 16 0 -2
BITMAP 
0000
0004
2004
207C
2004
2004
207C
2004
3F04
0004
0000
1FFC
1004
1004
1FFC
1004
ENDCHAR
STARTCHAR U+B151
ENCODING 45393
SWIDTH 1000 0
DWIDTH 16 0
BBX 16 16 0 -2
BITMAP 
0000
0004
2004
207C
2004
2004
207C
2184
3E04
0004
1004
1004
1FFC
1004
1FFC
1004
ENDCHAR
STARTCHAR U+B154
ENCODING 45396
SWIDTH 1000 0
DWIDTH 16 0
BBX 16 16 0 -2
BITMAP 
0000
0008
2008
20F8
2008
2008
20F8
2008
3F08
0008
0410
0410
0610
0A28
194C
2080
ENDCHAR
STARTCHAR U+B155
ENCODING 45397
SWIDTH 1000 0
DWIDTH 16 0
BBX 16 16 0 -2
BITMAP 
0000
2004
2004
207C
2004
2004
207C
2384
1C04
0004
0000
07F0
180C
1004
180C
07F0
ENDCHAR
STARTCHAR U+B158
ENCODING 45400
SWIDTH 1000 0
DWIDTH 16 0
BBX 16 16 0 -2
BITMAP 
0000
0004
2004
207C
2004
2004
207C
2384
1C04
0004
0000
0FFC
0004
1FC4
0008
0008
ENDCHAR
STARTCHAR U+B15C
ENCODING 45404
SWIDTH 1000 0
DWIDTH 16 0
BBX 16 16 0 -2
BITMAP 
0000
0004
2024
2024
2024
21E4
2024
2024
2024
21E4
2024
2724
3824
0024
0024
0024
ENDCHAR
STARTCHAR U+B160
ENCODING 45408
SWIDTH 1000 0
DWIDTH 16 0
BBX 16 16 0 -2
BITMAP 
0000
0004
2024
2024
21E4
2024
21E4
2024
2124
3E24
1024
1024
1000
1000
1FFC
0000
ENDCHAR
STARTCHAR U+B178
ENCODING 45432
SWIDTH 1000 0
DWIDTH 16 0
BBX 16 16 0 -2
BITMAP 
0000
0000
0000
1000
1000
1000
1000
1FFC
0000
0100
0100
0100
0100
FFFE
0000
0000
ENDCHAR
STARTCHAR U+B179
ENCODING 45433
SWIDTH 1000 0
DWIDTH 16 0
BBX 16 16 0 -2
BITMAP 
0000
1000
1000
1000
1000
1FFC
0080
0080
7FFF
0000
0000
3FF8
0008
0008
0008
0008
ENDCHAR
STARTCHAR U+B17C
ENCODING 45436
SWIDTH 1000 0
DWIDTH 16 0
BBX 16 16 0 -2
BITMAP 
0000
1000
1000
1000
1000
1FF8
0100
0100
FFFE
0000
1000
1000
1000
1000
1FFC
0000
ENDCHAR
STARTCHAR U+B180
ENCODING 45440
SWIDTH 1000 0
DWIDTH 16 0
BBX 16 16 0 -2
BITMAP 
0000
1000
1000
1000
1FF8
0100
0100
FFFE
0000
0000
1FF8
0008
1FF8
1000
1FFC
0000
ENDCHAR
STARTCHAR U+B182
ENCODING 45442
SWIDTH 1000 0
DWIDTH 16 0
BBX 16 16 0 -2
BITMAP 
0000
1000
1000
1000
1FF8
0100
0100
FFFE
0000
0000
3EF8
0288
1E88
1088
10F8
1E88
ENDCHAR
STARTCHAR U+B188
ENCODING 45448
SWIDTH 1000 0
DWIDTH 16 0
BBX 16 16 0 -2
BITMAP 
0000
1000
1000
1000
1FF8
0100
0100
0100
FFFE
0000
0000
1FF8
1008
1008
1FF8
1008
ENDCHAR
STARTCHAR U+B189
ENCODING 45449
SWIDTH 1000 0
DWIDTH 16 0
BBX 16 16 0 -2
BITMAP 
0000
1000
1000
1000
1FF8
0100
0100
0100
FFFE
1008
1008
1FF8
1008
1008
1FF8
1008
ENDCHAR
STARTCHAR U+B18B
ENCODING 45451
SWIDTH 1000 0
DWIDTH 16 0
BBX 16 16 0 -2
BITMAP 
0000
1000
1000
1000
1FFC
0080
0080
0080
7FFF
0000
0080
0180
03C0
0460
1818
0000
ENDCHAR
STARTCHAR U+B18D
ENCODING 45453
SWIDTH 1000 0
DWIDTH 16 0
BBX 16 16 0 -2
BITMAP 
0000
1000
1000
1000
1000
1FF8
0100
0100
FFFE
0000
0380
1C70
2008
2008
1C70
0380
ENDCHAR
STARTCHAR U+B192
ENCODING 45458
SWIDTH 1000 0
DWIDTH 16 0
BBX 16 16 0 -2
BITMAP 
0000
1000
1000
1000
1FF8
0100
0100
0100
FFFE
0000
1FF8
0420
0420
0220
1FFC
0000
ENDCHAR
STARTCHAR U+B193
ENCODING 45459
SWIDTH 1000 0
DWIDTH 16 0
BBX 16 16 0 -2
BITMAP 
0000
1000
1000
1000
1FFC
0100
0100
FFFE
0000
03C0
3FFC
0000
1FF8
2004
1FF8
0000
ENDCHAR
STARTCHAR U+B194
ENCODING 45460
SWIDTH 1000 0
DWIDTH 16 0
BBX 16 16 0 -2
BITMAP 
0000
0008
1008
1008
1008
1008
1FC8
0208
020F
0208
07E8
3808
0008
0008
0008
0008
ENDCHAR
STARTCHAR U+B198
ENCODING 45464
SWIDTH 1000 0
DWIDTH 16 0
BBX 16 16 0 -2
BITMAP 
0000
0008
2008
2008
2008
3FC8
0208
020F
07F8
3808
0008
1008
1008
1000
1FF8
0000
ENDCHAR
STARTCHAR U+B19C
ENCODING 45468
SWIDTH 1000 0
DWIDTH 16 0
BBX 16 16 0 -2
BITMAP 
0000
0008
2008
2008
2008
3F88
040F
0408
FFE8
0000
1FF8
0008
1FF8
1000
1FF8
0000
ENDCHAR
STARTCHAR U+B1A8
ENCODING 45480
SWIDTH 1000 0
DWIDTH 16 0
BBX 16 16 0 -2
BITMAP 
0000
0008
2008
2008
2008
3FC8
040F
0408
7FE8
0008
0010
0410
0410
0A28
194C
2080
ENDCHAR
STARTCHAR U+B1CC
ENCODING 45516
SWIDTH 1000 0
DWIDTH 16 0
BBX 16 16 0 -2
BITMAP 
0000
0004
1004
1004
1004
1004
1FE4
0204
0204
0204
0204
7FF4
0004
0004
0004
0004
ENDCHAR
STARTCHAR U+B1D0
ENCODING 45520
SWIDTH 1000 0
DWIDTH 16 0
BBX 16 16 0 -2
BITMAP 
0000
0004
1004
1004
1004
1004
1FC4
0204
0204
02F4
7D04
0804
0800
0800
0FFC
0000
ENDCHAR
STARTCHAR U+B1D4
ENCODING 45524
SWIDTH 1000 0
DWIDTH 16 0
BBX 16 16 0 -2
BITMAP 
0000
0004
1004
1004
1004
1FC4
0204
0214
7FE4
0000
0FFC
0004
0FFC
0800
0FFC
0000
ENDCHAR
STARTCHAR U+B1DC
ENCODING 45532
SWIDTH 1000 0
DWIDTH 16 0
BBX 16 16 0 -2
BITMAP 
0000
0004
1004
1004
1004
1FC4
0204
0204
7FF4
0004
0000
0FFC
0804
0804
0FFC
0804
ENDCHAR
STARTCHAR U+B1DD
ENCODING 45533
SWIDTH 1000 0
DWIDTH 16 0
BBX 16 16 0 -2
BITMAP 
0000
0004
1004
1004
1004
1FC4
0204
0204
3FF4
0000
0804
0804
0FFC
0804
0FFC
0804
ENDCHAR
STARTCHAR U+B1DF
ENCODING 45535
SWIDTH 1000 0
DWIDTH 16 0
BBX 16 16 0 -2
BITMAP 
0000
1004
1004
1004
1004
1FC4
0204
0204
7FE4
0004
0004
0044
00C0
00A0
0318
0C04
ENDCHAR
STARTCHAR U+B1E8
ENCODING 45544
SWIDTH 1000 0
DWIDTH 16 0
BBX 16 16 0 -2
BITMAP 
0000
0000
1000
1000
1000
1000
1000
1FFC
0000
0000
0420
0420
0420
FFFE
0000
0000
ENDCHAR
STARTCHAR U+B1E9
ENCODING 45545
SWIDTH 1000 0
DWIDTH 16 0
BBX 16 16 0 -2
BITMAP 
0000
1000
1000
1000
1FFC
0000
0420
0420
7FFF
0000
0000
3FF8
0008
0008
0008
0008
ENDCHAR
STARTCHAR U+B1EC
ENCODING 45548
SWIDTH 1000 0
DWIDTH 16 0
BBX 16 16 0 -2
BITMAP 
0000
1000
1000
1000
1000
1FFC
0420
0420
FFFF
0000
1000
1000
1000
1000
1FFC
0000
ENDCHAR
STARTCHAR U+B1F0
ENCODING 45552
SWIDTH 1000 0
DWIDTH 16 0
BBX 16 16 0 -2
BITMAP 
0000
1000
1000
1000
1000
1FFC
0420
FFFF
0000
0000
1FF8
0008
1FF8
1000
1FFC
0000
ENDCHAR
STARTCHAR U+B1F9
ENCODING 45561
SWIDTH 1000 0
DWIDTH 16 0
BBX 16 16 0 -2
BITMAP 
0000
1000
1000
1000
1FF8
0000
0420
0420
FFFF
0000
1008
1008
1FF8
1008
1FF8
1008
ENDCHAR
STARTCHAR U+B1FB
ENCODING 45563
SWIDTH 1000 0
DWIDTH 16 0
BBX 16 16 0 -2
BITMAP 
0000
1000
1000
1000
1000
1FF8
0420
0420
0420
7FFF
0080
0180
0240
0430
3808
0000
ENDCHAR
STARTCHAR U+B1FD
ENCODING 45565
SWIDTH 1000 0
DWIDTH 16 0
BBX 16 16 0 -2
BITMAP 
0000
1000
1000
1000
1FFC
0000
0420
0420
7FFF
0000
07C0
3838
2008
3018
0FF0
0000
ENDCHAR
STARTCHAR U+B204
ENCODING 45572
SWIDTH 1000 0
DWIDTH 16 0
BBX 16 16 0 -2
BITMAP 
0000
1000
1000
1000
1000
1FFC
0000
0000
FFFE
0100
0100
0100
0100
0100
0100
0100
ENDCHAR
STARTCHAR U+B205
ENCODING 45573
SWIDTH 1000 0
DWIDTH 16 0
BBX 16 16 0 -2
BITMAP 
0000
1000
1000
1000
1FFC
0000
0000
7FFF
0080
0080
0080
1FF8
0008
0008
0008
0008
ENDCHAR
STARTCHAR U+B208
ENCODING 45576
SWIDTH 1000 0
DWIDTH 16 0
BBX 16 16 0 -2
BITMAP 
0000
1000
1000
1000
1000
1FFC
0000
0000
FFFE
0100
0100
1100
1100
1000
1FFC
0000
ENDCHAR
STARTCHAR U+B20B
ENCODING 45579
SWIDTH 1000 0
DWIDTH 16 0
BBX 16 16 0 -2
BITMAP 
0000
1000
1000
1000
1FFC
0000
0000
FFFE
0100
0100
0000
1FFC
1000
1000
1FFC
0000
ENDCHAR
STARTCHAR U+B20C
ENCODING 45580
SWIDTH 1000 0
DWIDTH 16 0
BBX 16 16 0 -2
BITMAP 
0000
1000
1000
1000
1000
1FFC
0000
FFFE
0100
0100
1FF8
0008
1FF8
1000
1FFC
0000
ENDCHAR
STARTCHAR U+B214
ENCODING 45588
SWIDTH 1000 0
DWIDTH 16 0
BBX 16 16 0 -2
BITMAP 
0000
1000
1000
1000
1000
1FFC
0000
0000
FFFE
0100
0100
1FF8
1008
1008
1FF8
1008
ENDCHAR
STARTCHAR U+B215
ENCODING 45589
SWIDTH 1000 0
DWIDTH 16 0
BBX 16 16 0 -2
BITMAP 
0000
1000
1000
1000
1FFC
0000
0000
FFFE
0100
0100
1108
1008
1FF8
1008
1FF8
1008
ENDCHAR
STARTCHAR U+B217
ENCODING 45591
SWIDTH 1000 0
DWIDTH 16 0
BBX 16 16 0 -2
BITMAP 
0000
1000
1000
1000
1000
1FFC
0000
0000
FFFE
0100
0100
0180
0180
0660
181C
0000
ENDCHAR
STARTCHAR U+B219
ENCODING 45593
SWIDTH 1000 0
DWIDTH 16 0
BBX 16 16 0 -2
BITMAP 
0000
1000
1000
1000
1000
1FFC
0000
0000
FFFE
0100
1FF0
300C
2004
300C
0FF0
0000
ENDCHAR
STARTCHAR U+B220
ENCODING 45600
SWIDTH 1000 0
DWIDTH 16 0
BBX 16 16 0 -2
BITMAP 
0000
1004
1004
1004
1004
1FE4
0004
0004
7FE4
0204
0204
027C
0204
0204
0204
0004
ENDCHAR
STARTCHAR U+B234
ENCODING 45620
SWIDTH 1000 0
DWIDTH 16 0
BBX 16 16 0 -2
BITMAP 
0000
0004
1004
1004
1004
1FE4
0004
7FE4
0204
023C
0004
0208
0208
0518
08A4
1040
ENDCHAR
STARTCHAR U+B23C
ENCODING 45628
SWIDTH 1000 0
DWIDTH 16 0
BBX 16 16 0 -2
BITMAP 
0000
0024
1024
1024
1024
1024
1FA4
0024
0024
7FA4
0424
05E4
0424
0424
0424
0004
ENDCHAR
STARTCHAR U+B258
ENCODING 45656
SWIDTH 1000 0
DWIDTH 16 0
BBX 16 16 0 -2
BITMAP 
0000
1004
1004
1004
1004
1FE4
0004
0004
0004
7FF4
0204
0204
0204
0204
0204
0004
ENDCHAR
STARTCHAR U+B25C
ENCODING 45660
SWIDTH 1000 0
DWIDTH 16 0
BBX 16 16 0 -2
BITMAP 
0000
0004
1004
1004
1004
1FE4
0004
0014
7FE4
0204
0204
0A04
0800
0800
0FFE
0000
ENDCHAR
STARTCHAR U+B260
ENCODING 45664
SWIDTH 1000 0
DWIDTH 16 0
BBX 16 16 0 -2
BITMAP 
0000
0004
1004
1004
1FE4
0004
7FF4
0204
0204
0000
0FFC
0004
0FFC
0800
0FFE
0000
ENDCHAR
STARTCHAR U+B268
ENCODING 45672
SWIDTH 1000 0
DWIDTH 16 0
BBX 16 16 0 -2
BITMAP 
0000
0004
1004
1004
1004
1FE4
0004
7FE4
0204
0204
0000
0FFC
0804
0804
0FFC
0804
ENDCHAR
STARTCHAR U+B269
ENCODING 45673
SWIDTH 1000 0
DWIDTH 16 0
BBX 16 16 0 -2
BITMAP 
0000
0004
1004
1004
1004
1FE4
0004
0004
7FE4
0204
0A04
0804
0FFC
0804
0FFC
0804
ENDCHAR
STARTCHAR U+B274
ENCODING 45684
SWIDTH 1000 0
DWIDTH 16 0
BBX 16 16 0 -2
BITMAP 
0000
1000
1000
1000
1000
1FFC
0000
0000
7FFE
0420
0420
0420
0420
0420
0420
0420
ENDCHAR
STARTCHAR U+B275
ENCODING 45685
SWIDTH 1000 0
DWIDTH 16 0
BBX 16 16 0 -2
BITMAP 
0000
1000
1000
1000
1FFC
0000
0000
7FFE
0420
0420
0420
3FF8
0008
0008
0008
0008
ENDCHAR
STARTCHAR U+B27C
ENCODING 45692
SWIDTH 1000 0
DWIDTH 16 0
BBX 16 16 0 -2
BITMAP 
0000
1000
1000
1000
1000
1FFC
0000
FFFF
0420
0420
1FF8
0008
1FF8
1000
1FFC
0000
ENDCHAR
STARTCHAR U+B284
ENCODING 45700
SWIDTH 1000 0
DWIDTH 16 0
BBX 16 16 0 -2
BITMAP 
0000
1000
1000
1000
1FFC
0000
0000
7FFE
0420
0420
0000
1FF8
1008
1008
1FF8
1008
ENDCHAR
STARTCHAR U+B285
ENCODING 45701
SWIDTH 1000 0
DWIDTH 16 0
BBX 16 16 0 -2
BITMAP 
0000
1000
1000
1000
1FFC
0000
0000
FFFF
0420
0420
1428
1008
1FF8
1008
1FF8
1008
ENDCHAR
STARTCHAR U+B289
ENCODING 45705
SWIDTH 1000 0
DWIDTH 16 0
BBX 16 16 0 -2
BITMAP 
0000
1000
1000
1000
1000
1FFC
0000
0000
7FFE
0420
0420
0FD0
300C
2004
300C
0FF0
ENDCHAR
STARTCHAR U+B290
ENCODING 45712
SWIDTH 1000 0
DWIDTH 16 0
BBX 16 16 0 -2
BITMAP 
0000
0000
1000
1000
1000
1000
1000
1FFC
0000
0000
0000
0000
0000
7FFE
0000
0000
ENDCHAR
STARTCHAR U+B291
ENCODING 45713
SWIDTH 1000 0
DWIDTH 16 0
BBX 16 16 0 -2
BITMAP 
0000
1000
1000
1000
1000
1FFC
0000
0000
7FFE
0000
3FF8
0008
0008
0008
0008
0008
ENDCHAR
STARTCHAR U+B294
ENCODING 45716
SWIDTH 1000 0
DWIDTH 16 0
BBX 16 16 0 -2
BITMAP 
0000
0000
1000
1000
1000
1FFC
0000
0000
7FFE
0000
1000
1000
1000
1000
1FFC
0000
ENDCHAR
STARTCHAR U+B298
ENCODING 45720
SWIDTH 1000 0
DWIDTH 16 0
BBX 16 16 0 -2
BITMAP 
0000
1000
1000
1000
1000
1FFC
0000
0000
7FFE
0000
1FF8
0008
1FF8
1000
1FFC
0000
ENDCHAR
STARTCHAR U+B299
ENCODING 45721
SWIDTH 1000 0
DWIDTH 16 0
BBX 16 16 0 -2
BITMAP 
0000
1000
1000
1000
1000
1FFC
0000
7FFE
0000
0000
1FF8
0108
1F08
1008
1308
0C08
ENDCHAR
STARTCHAR U+B29A
ENCODING 45722
SWIDTH 1000 0
DWIDTH 16 0
BBX 16 16 0 -2
BITMAP 
0000
1000
1000
1000
1FFC
0000
0000
7FFE
0000
0000
1EF8
0288
1E88
1088
1FF8
0088
ENDCHAR
STARTCHAR U+B2A0
ENCODING 45728
SWIDTH 1000 0
DWIDTH 16 0
BBX 16 16 0 -2
BITMAP 
0000
1000
1000
1000
1000
1FFC
0000
0000
7FFE
0000
0000
1FF8
1008
1008
1FF8
1008
ENDCHAR
STARTCHAR U+B2A1
ENCODING 45729
SWIDTH 1000 0
DWIDTH 16 0
BBX 16 16 0 -2
BITMAP 
0000
1000
1000
1000
1000
1FFC
0000
0000
7FFE
0008
1008
1FF8
1008
1008
1FF8
1008
ENDCHAR
STARTCHAR U+B2A3
ENCODING 45731
SWIDTH 1000 0
DWIDTH 16 0
BBX 16 16 0 -2
BITMAP 
0000
1000
1000
1000
1000
1FF8
0000
0000
7FFE
0000
0080
0180
0240
0420
181C
0000
ENDCHAR
STARTCHAR U+B2A5
ENCODING 45733
SWIDTH 1000 0
DWIDTH 16 0
BBX 16 16 0 -2
BITMAP 
0000
1000
1000
1000
1000
1FFC
0000
0000
7FFE
0000
0FE0
3018
2008
3018
0FE0
0000
ENDCHAR
STARTCHAR U+B2A6
ENCODING 45734
SWIDTH 1000 0
DWIDTH 16 0
BBX 16 16 0 -2
BITMAP 
0000
1000
1000
1000
1000
1FFC
0000
0000
7FFE
0000
1FF8
0180
0180
0660
381C
0000
ENDCHAR
STARTCHAR U+B2AA
ENCODING 45738
SWIDTH 1000 0
DWIDTH 16 0
BBX 16 16 0 -2
BITMAP 
0000
1000
1000
1000
1000
1FFC
0000
0000
7FFE
0000
1FF8
0420
0440
0440
3FFC
0000
ENDCHAR
STARTCHAR U+B2AC
ENCODING 45740
SWIDTH 1000 0
DWIDTH 16 0
BBX 16 16 0 -2
BITMAP 
1004
1004
1004
1004
1004
1FE4
0004
0004
0004
0074
3F84
0004
0004
0004
0004
0000
ENDCHAR
STARTCHAR U+B2B0
ENCODING 45744
SWIDTH 1000 0
DWIDTH 16 0
BBX 16 16 0 -2
BITMAP 
0000
1004
1004
1004
1004
1FE4
0004
0004
0004
3FF4
0004
0804
0800
0800
0FFE
0000
ENDCHAR
STARTCHAR U+B2B4
ENCODING 45748
SWIDTH 1000 0
DWIDTH 16 0
BBX 16 16 0 -2
BITMAP 
0000
0004
1004
1004
1004
1FE4
0004
0074
1F84
0000
0FFC
0004
0FFC
0800
0FFE
0000
ENDCHAR
STARTCHAR U+B2C8
ENCODING 45768
SWIDTH 1000 0
DWIDTH 16 0
BBX 16 16 0 -2
BITMAP 
0000
0004
2004
2004
2004
2004
2004
2004
2004
2024
3FC4
0004
0004
0004
0004
0004
ENDCHAR
STARTCHAR U+B2C9
ENCODING 45769
SWIDTH 1000 0
DWIDTH 16 0
BBX 16 16 0 -2
BITMAP 
0000
0004
2004
2004
2004
2004
2004
20E4
3F04
0004
1FFC
0004
0004
0004
0004
0004
ENDCHAR
STARTCHAR U+B2CC
ENCODING 45772
SWIDTH 1000 0
DWIDTH 16 0
BBX 16 16 0 -2
BITMAP 
0000
0004
2004
2004
2004
2004
2004
2024
3FC4
0004
0004
1004
1000
1000
1FFC
0000
ENDCHAR
STARTCHAR U+B2D0
ENCODING 45776
SWIDTH 1000 0
DWIDTH 16 0
BBX 16 16 0 -2
BITMAP 
0000
0004
2004
2004
2004
2004
2004
3FE4
0004
1FFC
0004
0004
1FFC
1000
1FFC
0000
ENDCHAR
STARTCHAR U+B2D2
ENCODING 45778
SWIDTH 1000 0
DWIDTH 16 0
BBX 16 16 0 -2
BITMAP 
0000
0004
2004
2004
2004
2004
2004
3FC4
0004
1F7C
0144
0144
1F44
1044
107C
1E44
ENDCHAR
STARTCHAR U+B2D8
ENCODING 45784
SWIDTH 1000 0
DWIDTH 16 0
BBX 16 16 0 -2
BITMAP 
0000
0004
2004
2004
2004
2004
2004
3FE4
0004
0004
1FFC
1004
1004
1004
1FFC
1004
ENDCHAR
STARTCHAR U+B2D9
ENCODING 45785
SWIDTH 1000 0
DWIDTH 16 0
BBX 16 16 0 -2
BITMAP 
0000
0004
2004
2004
2004
2004
2004
23E4
1C04
1004
1004
1FFC
1004
1004
1FFC
1004
ENDCHAR
STARTCHAR U+B2DB
ENCODING 45787
SWIDTH 1000 0
DWIDTH 16 0
BBX 16 16 0 -2
BITMAP 
0000
0008
2008
2008
2008
2008
2008
2028
3FC8
0008
0008
0080
00C0
0140
0230
1C0C
ENDCHAR
STARTCHAR U+B2DD
ENCODING 45789
SWIDTH 1000 0
DWIDTH 16 0
BBX 16 16 0 -2
BITMAP 
0000
0004
2004
2004
2004
2004
2004
2024
3FC4
0004
07F0
180C
1004
1004
180C
07F0
ENDCHAR
STARTCHAR U+B2E2
ENCODING 45794
SWIDTH 1000 0
DWIDTH 16 0
BBX 16 16 0 -2
BITMAP 
0000
0004
2004
2004
2004
2004
2004
3FE4
0004
0000
1FF8
0210
0210
0220
1FFE
0000
ENDCHAR
STARTCHAR U+B2E4
ENCODING 45796
SWIDTH 1000 0
DWIDTH 16 0
BBX 16 16 0 -2
BITMAP 
0000
0010
0010
7F10
4010
4010
4010
4010
401E
4010
4010
4050
7F90
0010
0010
0010
ENDCHAR
STARTCHAR U+B2E5
ENCODING 45797
SWIDTH 1000 0
DWIDTH 16 0
BBX 16 16 0 -2
BITMAP 
0000
0010
7F10
4010
4010
401E
4010
4390
7C10
0010
0000
3FF0
0010
0010
0010
0010
ENDCHAR
STARTCHAR U+B2E6
ENCODING 45798
SWIDTH 1000 0
DWIDTH 16 0
BBX 16 16 0 -2
BITMAP 
0000
0010
7F10
4010
4010
401E
4010
7F90
0000
0000
3FF0
0210
0210
0210
0210
0010
ENDCHAR
STARTCHAR U+B2E8
ENCODING 45800
SWIDTH 1000 0
DWIDTH 16 0
BBX 16 16 0 -2
BITMAP 
0000
0010
7F10
4010
4010
4010
401E
4090
7F10
0010
2010
2010
2000
2000
3FF0
0000
ENDCHAR
STARTCHAR U+B2EB
ENCODING 45803
SWIDTH 1000 0
DWIDTH 16 0
BBX 16 16 0 -2
BITMAP 
0000
0010
7F10
4010
4010
401C
4010
4390
7C10
0000
3FF0
2000
2000
2000
3FF0
0000
ENDCHAR
STARTCHAR U+B2EC
ENCODING 45804
SWIDTH 1000 0
DWIDTH 16 0
BBX 16 16 0 -2
BITMAP 
0000
0010
7F10
4010
4010
401E
4010
7F90
0010
3FF0
0010
0010
3FF0
2000
3FF0
0000
ENDCHAR
STARTCHAR U+B2ED
ENCODING 45805
SWIDTH 1000 0
DWIDTH 16 0
BBX 16 16 0 -2
BITMAP 
0000
0010
7F10
4010
4010
401E
4010
7F90
0000
3FF0
0210
0210
3E10
2010
3E10
0000
ENDCHAR
STARTCHAR U+B2EE
ENCODING 45806
SWIDTH 1000 0
DWIDTH 16 0
BBX 16 16 0 -2
BITMAP 
0000
0010
7F10
4010
4010
401E
4090
7F10
0000
3FF0
0310
0310
3F10
2110
21F0
3F00
ENDCHAR
STARTCHAR U+B2EF
ENCODING 45807
SWIDTH 1000 0
DWIDTH 16 0
BBX 16 16 0 -2
BITMAP 
0000
0010
7F10
4010
4010
4010
401E
7F90
0010
3E90
0290
02F0
3E90
2090
3EF0
0090
ENDCHAR
STARTCHAR U+B2F3
ENCODING 45811
SWIDTH 1000 0
DWIDTH 16 0
BBX 16 16 0 -2
BITMAP 
0000
0010
7F10
4010
4010
401E
4090
7F10
0000
3CF0
05F8
0400
3CF0
2110
2110
3EF0
ENDCHAR
STARTCHAR U+B2F4
ENCODING 45812
SWIDTH 1000 0
DWIDTH 16 0
BBX 16 16 0 -2
BITMAP 
0000
0010
7F10
4010
4010
401E
4010
4790
7810
0000
3FF0
2010
2010
2010
3FF0
2010
ENDCHAR
STARTCHAR U+B2F5
ENCODING 45813
SWIDTH 1000 0
DWIDTH 16 0
BBX 16 16 0 -2
BITMAP 
0000
0010
7F10
4010
4010
401E
4010
4390
7C10
0000
2010
2010
3FF0
2010
3FF0
2010
ENDCHAR
STARTCHAR U+B2F7
ENCODING 45815
SWIDTH 1000 0
DWIDTH 16 0
BBX 16 16 0 -2
BITMAP 
0000
0010
7F10
4010
4010
4010
401E
4390
7C10
0010
0090
0080
0180
0240
0430
1808
ENDCHAR
STARTCHAR U+B2F8
ENCODING 45816
SWIDTH 1000 0
DWIDTH 16 0
BBX 16 16 0 -2
BITMAP 
0000
0010
7F10
4010
4010
401E
4010
4090
7F10
0000
0430
0420
0C30
0A50
1148
2080
ENDCHAR
STARTCHAR U+B2F9
ENCODING 45817
SWIDTH 1000 0
DWIDTH 16 0
BBX 16 16 0 -2
BITMAP 
0000
0010
7F10
4010
4010
4010
401C
4390
7C10
0010
0FF0
1018
2008
2008
3018
0FE0
ENDCHAR
STARTCHAR U+B2FA
ENCODING 45818
SWIDTH 1000 0
DWIDTH 16 0
BBX 16 16 0 -2
BITMAP 
0000
0010
7F10
4010
4010
4010
401E
4190
7E10
0010
3FF0
0100
0300
0480
0860
3010
ENDCHAR
STARTCHAR U+B2FB
ENCODING 45819
SWIDTH 1000 0
DWIDTH 16 0
BBX 16 16 0 -2
BITMAP 
0000
0010
7F10
4010
4010
4010
401C
7F90
0010
0790
0000
3FF0
0200
0300
0C80
3070
ENDCHAR
STARTCHAR U+B2FF
ENCODING 45823
SWIDTH 1000 0
DWIDTH 16 0
BBX 16 16 0 -2
BITMAP 
0000
0010
7F10
4010
4010
4010
401E
7F90
0010
07D0
0000
3FF8
1FF0
2018
2008
1FF0
ENDCHAR
STARTCHAR U+B300
ENCODING 45824
SWIDTH 1000 0
DWIDTH 16 0
BBX 16 16 0 -2
BITMAP 
0000
0024
0024
3E24
2024
2024
2024
2024
203C
2024
2024
2024
3F24
0024
0024
0004
ENDCHAR
STARTCHAR U+B301
ENCODING 45825
SWIDTH 1000 0
DWIDTH 16 0
BBX 16 16 0 -2
BITMAP 
0000
0004
3E24
2024
2024
2024
203C
2FA4
1024
0024
0000
1FFC
0004
0004
0004
0004
ENDCHAR
STARTCHAR U+B304
ENCODING 45828
SWIDTH 1000 0
DWIDTH 16 0
BBX 16 16 0 -2
BITMAP 
0000
0004
0024
3E24
2024
2024
203C
2024
21A4
3E24
0024
1004
1000
1000
1FFC
0000
ENDCHAR
STARTCHAR U+B308
ENCODING 45832
SWIDTH 1000 0
DWIDTH 16 0
BBX 16 16 0 -2
BITMAP 
0000
0004
3E24
2024
2024
2024
203C
3FA4
0024
0024
0FFC
0004
1FFC
1000
1FFC
0000
ENDCHAR
STARTCHAR U+B310
ENCODING 45840
SWIDTH 1000 0
DWIDTH 16 0
BBX 16 16 0 -2
BITMAP 
0000
0024
3E24
2024
2024
2024
203C
3FA4
0024
0024
0000
1FFC
1004
1004
1FFC
1004
ENDCHAR
STARTCHAR U+B311
ENCODING 45841
SWIDTH 1000 0
DWIDTH 16 0
BBX 16 16 0 -2
BITMAP 
0000
0024
3E24
2024
2024
203C
2024
2FA4
1024
0000
1004
1004
1FFC
1004
1FFC
1004
ENDCHAR
STARTCHAR U+B313
ENCODING 45843
SWIDTH 1000 0
DWIDTH 16 0
BBX 16 16 0 -2
BITMAP 
0000
0044
0044
7C44
4044
4044
407C
4044
7F44
0044
0004
0080
00C0
0160
0618
1804
ENDCHAR
STARTCHAR U+B314
ENCODING 45844
SWIDTH 1000 0
DWIDTH 16 0
BBX 16 16 0 -2
BITMAP 
0000
0048
7C48
4048
4048
4078
4048
4048
7F48
0048
0000
0410
0410
0628
0964
3080
ENDCHAR
STARTCHAR U+B315
ENCODING 45845
SWIDTH 1000 0
DWIDTH 16 0
BBX 16 16 0 -2
BITMAP 
0000
0004
0024
3E24
2024
2024
203C
2024
3FA4
0024
0004
0FF8
1004
1004
0C18
03E0
ENDCHAR
STARTCHAR U+B31C
ENCODING 45852
SWIDTH 1000 0
DWIDTH 16 0
BBX 16 16 0 -2
BITMAP 
0000
0010
0010
7F10
4010
4010
401E
4010
4010
4010
401E
4050
7F90
0010
0010
0010
ENDCHAR
STARTCHAR U+B354
ENCODING 45908
SWIDTH 1000 0
DWIDTH 16 0
BBX 16 16 0 -2
BITMAP 
0000
0004
0004
3F84
2004
2004
2004
203C
2004
2004
2004
2004
3FC4
0004
0004
0004
ENDCHAR
STARTCHAR U+B355
ENCODING 45909
SWIDTH 1000 0
DWIDTH 16 0
BBX 16 16 0 -2
BITMAP 
0000
0004
3F84
2004
207C
2004
2004
21C4
3E04
0000
0000
1FFC
0004
0004
0004
0004
ENDCHAR
STARTCHAR U+B356
ENCODING 45910
SWIDTH 1000 0
DWIDTH 16 0
BBX 16 16 0 -2
BITMAP 
0000
0004
3F84
2004
207C
2004
2004
21C4
3E04
0000
0000
1F7C
0104
0104
0104
0104
ENDCHAR
STARTCHAR U+B358
ENCODING 45912
SWIDTH 1000 0
DWIDTH 16 0
BBX 16 16 0 -2
BITMAP 
0000
0004
3F84
2004
2004
207C
2004
2004
3FC4
0004
0004
1004
1000
1000
1FF8
0000
ENDCHAR
STARTCHAR U+B35B
ENCODING 45915
SWIDTH 1000 0
DWIDTH 16 0
BBX 16 16 0 -2
BITMAP 
0000
0004
3F84
2004
2004
207C
2004
20C4
3F04
0004
1FF8
1000
1000
1000
1FFC
0000
ENDCHAR
STARTCHAR U+B35C
ENCODING 45916
SWIDTH 1000 0
DWIDTH 16 0
BBX 16 16 0 -2
BITMAP 
0000
0004
3F84
2004
2004
203C
2004
21C4
3E04
0004
0FFC
0004
1FFC
1000
1FFC
0000
ENDCHAR
STARTCHAR U+B35E
ENCODING 45918
SWIDTH 1000 0
DWIDTH 16 0
BBX 16 16 0 -2
BITMAP 
0000
0004
3F84
2004
207C
2004
2004
27C4
1800
1F7C
0144
0144
1F44
1044
107C
1E44
ENDCHAR
STARTCHAR U+B35F
ENCODING 45919
SWIDTH 1000 0
DWIDTH 16 0
BBX 16 16 0 -2
BITMAP 
0000
0004
3F04
2004
207C
2004
2004
3FC4
0000
1F44
0144
017C
1F44
1044
107C
1E44
ENDCHAR
STARTCHAR U+B364
ENCODING 45924
SWIDTH 1000 0
DWIDTH 16 0
BBX 16 16 0 -2
BITMAP 
0000
0004
3F84
2004
2004
203C
2004
2044
3F84
0004
1FFC
1004
1004
1004
1FFC
1004
ENDCHAR
STARTCHAR U+B365
ENCODING 45925
SWIDTH 1000 0
DWIDTH 16 0
BBX 16 16 0 -2
BITMAP 
0000
0004
3F84
2004
2004
203C
2004
2044
3F84
0004
1004
1004
1FFC
1004
1FFC
1004
ENDCHAR
STARTCHAR U+B367
ENCODING 45927
SWIDTH 1000 0
DWIDTH 16 0
BBX 16 16 0 -2
BITMAP 
0000
0008
7F08
4008
4008
4078
4008
4008
7F88
0008
0008
00C0
00C0
0120
0618
0804
ENDCHAR
STARTCHAR U+B369
ENCODING 45929
SWIDTH 1000 0
DWIDTH 16 0
BBX 16 16 0 -2
BITMAP 
0000
0004
3F84
2004
2004
203C
2004
2004
3FC4
0004
07F4
080C
1004
1004
180C
07F0
ENDCHAR
STARTCHAR U+B36B
ENCODING 45931
SWIDTH 1000 0
DWIDTH 16 0
BBX 16 16 0 -2
BITMAP 
0000
0004
3F84
2004
207C
2004
2004
20C4
3F04
01C0
0000
0FFC
0080
0140
0630
180C
ENDCHAR
STARTCHAR U+B36E
ENCODING 45934
SWIDTH 1000 0
DWIDTH 16 0
BBX 16 16 0 -2
BITMAP 
0000
0004
3F84
2004
207C
2004
2004
20C4
3F04
0000
1FFC
0220
0220
0220
1FFC
0000
ENDCHAR
STARTCHAR U+B370
ENCODING 45936
SWIDTH 1000 0
DWIDTH 16 0
BBX 16 16 0 -2
BITMAP 
0000
0024
3E24
2024
2024
2024
2024
21E4
2024
2024
2024
3F24
0024
0024
0024
0024
ENDCHAR
STARTCHAR U+B371
ENCODING 45937
SWIDTH 1000 0
DWIDTH 16 0
BBX 16 16 0 -2
BITMAP 
0000
0024
3E24
2024
2024
21E4
2024
2024
3F24
0024
0000
1FFC
0004
0004
0004
0004
ENDCHAR
STARTCHAR U+B374
ENCODING 45940
SWIDTH 1000 0
DWIDTH 16 0
BBX 16 16 0 -2
BITMAP 
0000
0004
3E24
2024
2024
21E4
2024
2024
3F24
0024
0024
1024
1000
1000
1FFC
0000
ENDCHAR
STARTCHAR U+B378
ENCODING 45944
SWIDTH 1000 0
DWIDTH 16 0
BBX 16 16 0 -2
BITMAP 
0000
0004
3E24
2024
2024
21E4
2024
2024
3E24
0024
0FFC
0004
1FFC
1000
1FFC
0000
ENDCHAR
STARTCHAR U+B380
ENCODING 45952
SWIDTH 1000 0
DWIDTH 16 0
BBX 16 16 0 -2
BITMAP 
0000
0004
3E24
2024
2024
21E4
2024
2024
3F24
0024
0000
1FFC
1004
1004
1FFC
1004
ENDCHAR
STARTCHAR U+B381
ENCODING 45953
SWIDTH 1000 0
DWIDTH 16 0
BBX 16 16 0 -2
BITMAP 
0000
0004
3E24
2024
2024
21E4
2024
2024
3F24
0024
0000
1004
1FFC
1004
1FFC
1004
ENDCHAR
STARTCHAR U+B383
ENCODING 45955
SWIDTH 1000 0
DWIDTH 16 0
BBX 16 16 0 -2
BITMAP 
0000
0004
3E24
2024
2024
21E4
2024
2024
3F24
0024
0004
0080
0080
0140
0630
180C
ENDCHAR
STARTCHAR U+B384
ENCODING 45956
SWIDTH 1000 0
DWIDTH 16 0
BBX 16 16 0 -2
BITMAP 
0000
0048
7C48
4048
4048
43C8
4048
4048
7E48
0048
0000
0410
0610
0628
0964
3040
ENDCHAR
STARTCHAR U+B385
ENCODING 45957
SWIDTH 1000 0
DWIDTH 16 0
BBX 16 16 0 -2
BITMAP 
0000
0004
3E24
2024
2024
21E4
2024
2024
3F24
0024
0000
07F0
180C
1004
180C
07F0
ENDCHAR
STARTCHAR U+B38C
ENCODING 45964
SWIDTH 1000 0
DWIDTH 16 0
BBX 16 16 0 -2
BITMAP 
0000
0004
0004
3F84
2004
203C
2004
2004
2004
203C
2004
2004
3FC4
0004
0004
0004
ENDCHAR
STARTCHAR U+B390
ENCODING 45968
SWIDTH 1000 0
DWIDTH 16 0
BBX 16 16 0 -2
BITMAP 
0000
0004
3F84
2004
207C
2004
2004
207C
2044
3F84
0004
1004
1004
1000
1FF8
0000
ENDCHAR
STARTCHAR U+B394
ENCODING 45972
SWIDTH 1000 0
DWIDTH 16 0
BBX 16 16 0 -2
BITMAP 
0000
0004
3F04
207C
2004
2004
207C
21C4
3E04
0000
0FFC
0004
0FFC
0800
0FFC
0000
ENDCHAR
STARTCHAR U+B3A0
ENCODING 45984
SWIDTH 1000 0
DWIDTH 16 0
BBX 16 16 0 -2
BITMAP 
0000
0008
7F08
40F8
4008
4008
40F8
4188
7E08
0018
0410
0410
0C18
0A2C
1144
2000
ENDCHAR
STARTCHAR U+B3A1
ENCODING 45985
SWIDTH 1000 0
DWIDTH 16 0
BBX 16 16 0 -2
BITMAP 
0000
0004
3F84
2004
207C
2004
207C
2004
3F84
0004
07F0
180C
1004
1004
180C
07F0
ENDCHAR
STARTCHAR U+B3A8
ENCODING 45992
SWIDTH 1000 0
DWIDTH 16 0
BBX 16 16 0 -2
BITMAP 
0000
0024
0024
3E24
2024
21E4
2024
2024
21E4
2024
2024
2024
3E24
0024
0024
0004
ENDCHAR
STARTCHAR U+B3AC
ENCODING 45996
SWIDTH 1000 0
DWIDTH 16 0
BBX 16 16 0 -2
BITMAP 
0000
0024
3E24
2024
21E4
2024
21E4
2024
3F24
0024
0024
1024
1000
1000
1FFC
0000
ENDCHAR
STARTCHAR U+B3C4
ENCODING 46020
SWIDTH 1000 0
DWIDTH 16 0
BBX 16 16 0 -2
BITMAP 
0000
0000
0000
1FF8
1000
1000
1000
1000
1FFC
0100
0100
0100
0100
FFFE
0000
0000
ENDCHAR
STARTCHAR U+B3C5
ENCODING 46021
SWIDTH 1000 0
DWIDTH 16 0
BBX 16 16 0 -2
BITMAP 
0000
1FFC
1000
1000
1000
1FFC
0080
0080
7FFF
0000
0000
3FF8
0008
0008
0008
0008
ENDCHAR
STARTCHAR U+B3C8
ENCODING 46024
SWIDTH 1000 0
DWIDTH 16 0
BBX 16 16 0 -2
BITMAP 
0000
1FFC
1000
1000
1000
1FF8
0100
0100
0100
FFFE
1000
1000
1000
1000
1FFC
0000
ENDCHAR
STARTCHAR U+B3CB
ENCODING 46027
SWIDTH 1000 0
DWIDTH 16 0
BBX 16 16 0 -2
BITMAP 
0000
1FFC
1000
1000
1000
1FF8
0100
0100
FFFE
0000
0000
1FF8
1000
1000
1FFC
0000
ENDCHAR
STARTCHAR U+B3CC
ENCODING 46028
SWIDTH 1000 0
DWIDTH 16 0
BBX 16 16 0 -2
BITMAP 
0000
1FFC
1000
1000
1000
1FF8
0100
FFFE
0000
0000
1FF8
0008
1FF8
1000
1FFC
0000
ENDCHAR
STARTCHAR U+B3CE
ENCODING 46030
SWIDTH 1000 0
DWIDTH 16 0
BBX 16 16 0 -2
BITMAP 
0000
1FF8
1000
1000
1000
1FF8
0100
0100
FFFE
0000
1EF8
0288
1E88
1088
1FF8
0088
ENDCHAR
STARTCHAR U+B3D0
ENCODING 46032
SWIDTH 1000 0
DWIDTH 16 0
BBX 16 16 0 -2
BITMAP 
0000
1FFC
1000
1000
1000
1FF8
0100
0100
FFFE
0000
1F10
0110
1F10
1028
136C
0C44
ENDCHAR
STARTCHAR U+B3D4
ENCODING 46036
SWIDTH 1000 0
DWIDTH 16 0
BBX 16 16 0 -2
BITMAP 
0000
1FFC
1000
1000
1000
1FF8
0100
0100
FFFE
0000
1FF8
1008
1008
1008
1FF8
1008
ENDCHAR
STARTCHAR U+B3D5
ENCODING 46037
SWIDTH 1000 0
DWIDTH 16 0
BBX 16 16 0 -2
BITMAP 
0000
0000
1FF8
1000
1000
1FF8
0100
0100
FFFE
0000
1008
1008
1FF8
1008
1FF8
1008
ENDCHAR
STARTCHAR U+B3D7
ENCODING 46039
SWIDTH 1000 0
DWIDTH 16 0
BBX 16 16 0 -2
BITMAP 
0000
1FFC
1000
1000
1000
1FF8
0100
0100
FFFE
0000
0000
0180
0180
0240
0C30
3008
ENDCHAR
STARTCHAR U+B3D9
ENCODING 46041
SWIDTH 1000 0
DWIDTH 16 0
BBX 16 16 0 -2
BITMAP 
0000
1FF8
1000
1000
1000
1FFC
0080
0080
7FFF
0000
0000
0FE0
3018
2008
2008
1FF0
ENDCHAR
STARTCHAR U+B3DB
ENCODING 46043
SWIDTH 1000 0
DWIDTH 16 0
BBX 16 16 0 -2
BITMAP 
0000
1FFC
1000
1000
1FF8
0100
0100
FFFE
0000
03C0
0000
3FF8
0100
0280
0C40
3038
ENDCHAR
STARTCHAR U+B3DD
ENCODING 46045
SWIDTH 1000 0
DWIDTH 16 0
BBX 16 16 0 -2
BITMAP 
0000
1FFC
1000
1000
1000
1FF8
0100
0100
FFFE
0000
1FFC
1000
1FF8
1000
1FFC
0000
ENDCHAR
STARTCHAR U+B3E0
ENCODING 46048
SWIDTH 1000 0
DWIDTH 16 0
BBX 16 16 0 -2
BITMAP 
0000
0008
3F88
2008
2008
2008
2008
3F88
040F
0408
0408
04E8
FB08
0008
0008
0008
ENDCHAR
STARTCHAR U+B3E4
ENCODING 46052
SWIDTH 1000 0
DWIDTH 16 0
BBX 16 16 0 -2
BITMAP 
0000
0008
3F88
2008
2008
3F88
0408
040F
05E8
FA08
0008
1008
1008
1000
1FF8
0000
ENDCHAR
STARTCHAR U+B3E8
ENCODING 46056
SWIDTH 1000 0
DWIDTH 16 0
BBX 16 16 0 -2
BITMAP 
0000
0008
3F88
2008
2008
3F88
040F
0408
FFC8
0008
1FF8
0008
1FF8
1000
1000
1FF8
ENDCHAR
STARTCHAR U+B3FC
ENCODING 46076
SWIDTH 1000 0
DWIDTH 16 0
BBX 16 16 0 -2
BITMAP 
0000
0024
3F24
2024
2024
2024
2024
3F24
043C
0424
0424
1FA4
2024
0024
0024
0004
ENDCHAR
STARTCHAR U+B410
ENCODING 46096
SWIDTH 1000 0
DWIDTH 16 0
BBX 16 16 0 -2
BITMAP 
0000
0004
3F24
2024
2024
3F24
043C
0424
1FE4
0024
0014
0410
0618
0A28
1144
1000
ENDCHAR
STARTCHAR U+B418
ENCODING 46104
SWIDTH 1000 0
DWIDTH 16 0
BBX 16 16 0 -2
BITMAP 
0000
0004
1FC4
1004
1004
1004
1004
1FC4
0204
0204
0204
0274
7D84
0004
0004
0004
ENDCHAR
STARTCHAR U+B41C
ENCODING 46108
SWIDTH 1000 0
DWIDTH 16 0
BBX 16 16 0 -2
BITMAP 
0000
0004
1FC4
1004
1004
1FC4
0204
0204
07F4
7804
0004
0804
0800
0800
0FFC
0000
ENDCHAR
STARTCHAR U+B420
ENCODING 46112
SWIDTH 1000 0
DWIDTH 16 0
BBX 16 16 0 -2
BITMAP 
0000
0004
1FC4
1004
1004
1FC4
0204
0214
7DE4
0000
0FFC
0004
0FFC
0800
0FFC
0000
ENDCHAR
STARTCHAR U+B428
ENCODING 46120
SWIDTH 1000 0
DWIDTH 16 0
BBX 16 16 0 -2
BITMAP 
0000
0004
1FC4
1004
1004
1FC4
0204
0204
7FF4
0004
0000
0FFC
0804
0804
0FFC
0804
ENDCHAR
STARTCHAR U+B429
ENCODING 46121
SWIDTH 1000 0
DWIDTH 16 0
BBX 16 16 0 -2
BITMAP 
0000
0004
1FC4
1004
1004
1FC4
0204
0204
7FE4
0004
0804
0804
0FFC
0804
0FFC
0804
ENDCHAR
STARTCHAR U+B42B
ENCODING 46123
SWIDTH 1000 0
DWIDTH 16 0
BBX 16 16 0 -2
BITMAP 
0000
0004
1FC4
1004
1004
1004
1FC4
0204
0204
7FF4
4004
0044
00C0
01A0
0318
0C04
ENDCHAR
STARTCHAR U+B434
ENCODING 46132
SWIDTH 1000 0
DWIDTH 16 0
BBX 16 16 0 -2
BITMAP 
0000
0000
0000
1FFC
1000
1000
1000
1000
1FFC
0420
0420
0420
0420
FFFF
0000
0000
ENDCHAR
STARTCHAR U+B450
ENCODING 46160
SWIDTH 1000 0
DWIDTH 16 0
BBX 16 16 0 -2
BITMAP 
0000
0000
1FFC
1000
1000
1000
1FFC
0000
0000
FFFE
0100
0100
0100
0100
0100
0100
ENDCHAR
STARTCHAR U+B451
ENCODING 46161
SWIDTH 1000 0
DWIDTH 16 0
BBX 16 16 0 -2
BITMAP 
0000
1FFC
1000
1000
1000
1FFC
0000
0000
FFFE
0100
0100
3FF8
0008
0008
0008
0008
ENDCHAR
STARTCHAR U+B454
ENCODING 46164
SWIDTH 1000 0
DWIDTH 16 0
BBX 16 16 0 -2
BITMAP 
0000
0000
1FFC
1000
1000
1FFC
0000
0000
7FFF
0080
0080
1080
1000
1000
1FFC
0000
ENDCHAR
STARTCHAR U+B458
ENCODING 46168
SWIDTH 1000 0
DWIDTH 16 0
BBX 16 16 0 -2
BITMAP 
0000
0000
1FFC
1000
1000
1FFC
0000
0000
FFFE
0100
3FF8
0008
1FF8
1000
1FFC
0000
ENDCHAR
STARTCHAR U+B460
ENCODING 46176
SWIDTH 1000 0
DWIDTH 16 0
BBX 16 16 0 -2
BITMAP 
0000
0000
1FFC
1000
1000
1FFC
0000
0000
FFFE
0100
0100
1FF8
1008
1008
1FF8
1008
ENDCHAR
STARTCHAR U+B461
ENCODING 46177
SWIDTH 1000 0
DWIDTH 16 0
BBX 16 16 0 -2
BITMAP 
0000
0000
1FFC
1000
1000
1FFC
0000
0000
FFFE
0100
1108
1008
1FF8
1008
1FF8
1008
ENDCHAR
STARTCHAR U+B463
ENCODING 46179
SWIDTH 1000 0
DWIDTH 16 0
BBX 16 16 0 -2
BITMAP 
0000
1FFC
1000
1000
1000
1FFC
0000
0000
7FFE
0100
0080
0180
0180
0660
381C
0000
ENDCHAR
STARTCHAR U+B465
ENCODING 46181
SWIDTH 1000 0
DWIDTH 16 0
BBX 16 16 0 -2
BITMAP 
0000
1FFC
1000
1000
1000
1FFC
0000
0000
FFFE
0100
1FF0
300C
2004
300C
0FF0
0000
ENDCHAR
STARTCHAR U+B46C
ENCODING 46188
SWIDTH 1000 0
DWIDTH 16 0
BBX 16 16 0 -2
BITMAP 
0000
0004
1FC4
1004
1004
1004
1FC4
0004
0004
7FE4
0204
023C
0204
0204
0204
0004
ENDCHAR
STARTCHAR U+B480
ENCODING 46208
SWIDTH 1000 0
DWIDTH 16 0
BBX 16 16 0 -2
BITMAP 
0000
0004
1FC4
1004
1004
1FE4
0004
7FF4
0204
023C
0004
0210
0210
0618
0924
10C2
ENDCHAR
STARTCHAR U+B488
ENCODING 46216
SWIDTH 1000 0
DWIDTH 16 0
BBX 16 16 0 -2
BITMAP 
0000
0004
0024
3F24
2024
2024
2024
3F24
0024
7FE4
0424
05E4
0424
0424
0424
0004
ENDCHAR
STARTCHAR U+B49D
ENCODING 46237
SWIDTH 1000 0
DWIDTH 16 0
BBX 16 16 0 -2
BITMAP 
0000
0024
3F24
2024
2024
3F24
0024
3F24
05E4
0424
03F8
0C06
0802
0802
071C
00E0
ENDCHAR
STARTCHAR U+B4A4
ENCODING 46244
SWIDTH 1000 0
DWIDTH 16 0
BBX 16 16 0 -2
BITMAP 
0000
0004
1FC4
1004
1004
1004
1FC4
0004
0004
7FF4
0204
0204
0204
0204
0204
0004
ENDCHAR
STARTCHAR U+B4A8
ENCODING 46248
SWIDTH 1000 0
DWIDTH 16 0
BBX 16 16 0 -2
BITMAP 
0000
0004
1FC4
1004
1004
1FE4
0004
000C
3FF4
0104
0104
0904
0800
0800
0FFC
0000
ENDCHAR
STARTCHAR U+B4AC
ENCODING 46252
SWIDTH 1000 0
DWIDTH 16 0
BBX 16 16 0 -2
BITMAP 
0000
0004
1FC4
1004
1FC4
0004
000C
3FF4
0104
0100
0FFC
0004
0FFC
0800
0FFC
0000
ENDCHAR
STARTCHAR U+B4B5
ENCODING 46261
SWIDTH 1000 0
DWIDTH 16 0
BBX 16 16 0 -2
BITMAP 
0000
0004
1FC4
1004
1004
1FE4
000C
3FF4
0104
0104
0804
0804
0FFC
0804
0FFC
0804
ENDCHAR
STARTCHAR U+B4B7
ENCODING 46263
SWIDTH 1000 0
DWIDTH 16 0
BBX 16 16 0 -2
BITMAP 
0000
0004
1FC4
1004
1004
1FE4
0004
0004
7FE4
0204
0204
0244
00C0
00A0
0310
1C0C
ENDCHAR
STARTCHAR U+B4B9
ENCODING 46265
SWIDTH 1000 0
DWIDTH 16 0
BBX 16 16 0 -2
BITMAP 
0000
0004
1FC4
1004
1004
1FE4
0004
3FF4
0104
0104
03F0
0C0C
0804
0804
0C0C
03F0
ENDCHAR
STARTCHAR U+B4C0
ENCODING 46272
SWIDTH 1000 0
DWIDTH 16 0
BBX 16 16 0 -2
BITMAP 
0000
0000
1FFC
1000
1000
1000
1FFC
0000
0000
7FFE
0420
0420
0420
0420
0420
0420
ENDCHAR
STARTCHAR U+B4C4
ENCODING 46276
SWIDTH 1000 0
DWIDTH 16 0
BBX 16 16 0 -2
BITMAP 
0000
1FFC
1000
1000
1000
1FFC
0000
0000
7FFE
0420
0420
1420
1420
1000
1FFC
0000
ENDCHAR
STARTCHAR U+B4C8
ENCODING 46280
SWIDTH 1000 0
DWIDTH 16 0
BBX 16 16 0 -2
BITMAP 
0000
0000
1FFC
1000
1000
1FFC
0000
0000
7FFF
0420
1FF8
0008
1FF8
1000
1FFC
0000
ENDCHAR
STARTCHAR U+B4D0
ENCODING 46288
SWIDTH 1000 0
DWIDTH 16 0
BBX 16 16 0 -2
BITMAP 
0000
0000
1FFC
1000
1000
1FFC
0000
7FFE
0420
0420
0420
1FF8
1008
1008
1FF8
1008
ENDCHAR
STARTCHAR U+B4D5
ENCODING 46293
SWIDTH 1000 0
DWIDTH 16 0
BBX 16 16 0 -2
BITMAP 
0000
1FFC
1000
1000
1000
1FFC
0000
7FFE
0420
0420
0FF0
3018
2008
2008
1FF0
0000
ENDCHAR
STARTCHAR U+B4DC
ENCODING 46300
SWIDTH 1000 0
DWIDTH 16 0
BBX 16 16 0 -2
BITMAP 
0000
0000
0000
1FF8
1000
1000
1000
1000
1FFC
0000
0000
0000
0000
7FFE
0000
0000
ENDCHAR
STARTCHAR U+B4DD
ENCODING 46301
SWIDTH 1000 0
DWIDTH 16 0
BBX 16 16 0 -2
BITMAP 
0000
0000
1FFC
1000
1000
1FFC
0000
0000
7FFE
0000
3FF8
0008
0008
0008
0008
0008
ENDCHAR
STARTCHAR U+B4E0
ENCODING 46304
SWIDTH 1000 0
DWIDTH 16 0
BBX 16 16 0 -2
BITMAP 
0000
0000
1FFC
1000
1000
1000
1FFC
0000
0000
7FFE
1000
1000
1000
1000
1FFC
0000
ENDCHAR
STARTCHAR U+B4E3
ENCODING 46307
SWIDTH 1000 0
DWIDTH 16 0
BBX 16 16 0 -2
BITMAP 
0000
1FFC
1000
1000
1000
1FFC
0000
0000
7FFE
0000
1FFC
1000
1000
1000
1FFC
0000
ENDCHAR
STARTCHAR U+B4E4
ENCODING 46308
SWIDTH 1000 0
DWIDTH 16 0
BBX 16 16 0 -2
BITMAP 
0000
1FFC
1000
1000
1000
1FFC
0000
7FFE
0000
0000
1FF8
0008
1FF8
1000
1FFC
0000
ENDCHAR
STARTCHAR U+B4E6
ENCODING 46310
SWIDTH 1000 0
DWIDTH 16 0
BBX 16 16 0 -2
BITMAP 
0000
1FFC
1000
1000
1000
1FFC
0000
7FFE
0000
0000
1EF8
0288
1E88
1088
17F8
0888
ENDCHAR
STARTCHAR U+B4EC
ENCODING 46316
SWIDTH 1000 0
DWIDTH 16 0
BBX 16 16 0 -2
BITMAP 
0000
0000
1FFC
1000
1000
1FFC
0000
0000
7FFE
0000
0000
1FF8
1008
1008
1FF8
1008
ENDCHAR
STARTCHAR U+B4ED
ENCODING 46317
SWIDTH 1000 0
DWIDTH 16 0
BBX 16 16 0 -2
BITMAP 
0000
0000
1FFC
1000
1000
1FFC
0000
0000
7FFE
0000
1008
1008
1FF8
1008
1FF8
1008
ENDCHAR
STARTCHAR U+B4EF
ENCODING 46319
SWIDTH 1000 0
DWIDTH 16 0
BBX 16 16 0 -2
BITMAP 
0000
1FFC
1000
1000
1000
1FFC
0000
0000
7FFE
0000
0000
0100
0180
0240
0C30
3018
ENDCHAR
STARTCHAR U+B4F1
ENCODING 46321
SWIDTH 1000 0
DWIDTH 16 0
BBX 16 16 0 -2
BITMAP 
0000
1FFC
1000
1000
1000
1FFC
0000
0000
7FFE
0000
0FF0
300C
2004
2004
1C38
03C0
ENDCHAR
STARTCHAR U+B4F8
ENCODING 46328
SWIDTH 1000 0
DWIDTH 16 0
BBX 16 16 0 -2
BITMAP 
0000
0004
1FC4
1004
1004
1004
1004
1FE4
0004
0004
0004
3FF4
0004
0004
0004
0004
ENDCHAR
STARTCHAR U+B514
ENCODING 46356
SWIDTH 1000 0
DWIDTH 16 0
BBX 16 16 0 -2
BITMAP 
0000
0004
0004
3F84
2004
2004
2004
2004
2004
2004
2004
2044
3F84
0004
0004
0004
ENDCHAR
STARTCHAR U+B515
ENCODING 46357
SWIDTH 1000 0
DWIDTH 16 0
BBX 16 16 0 -2
BITMAP 
0000
0004
3F84
2004
2004
2004
2004
23C4
3C04
0004
0000
1FFC
0004
0004
0004
0004
ENDCHAR
STARTCHAR U+B518
ENCODING 46360
SWIDTH 1000 0
DWIDTH 16 0
BBX 16 16 0 -2
BITMAP 
0000
0004
3F84
2004
2004
2004
2004
2004
3F84
0004
0004
1004
1000
1000
1FF8
0000
ENDCHAR
STARTCHAR U+B51B
ENCODING 46363
SWIDTH 1000 0
DWIDTH 16 0
BBX 16 16 0 -2
BITMAP 
0000
0004
3F84
2004
2004
2004
2004
21C4
3E04
0004
1FF8
1000
1000
1000
1FFC
0000
ENDCHAR
STARTCHAR U+B51C
ENCODING 46364
SWIDTH 1000 0
DWIDTH 16 0
BBX 16 16 0 -2
BITMAP 
0000
0004
3F84
2004
2004
2004
2004
2FC4
1004
0FFC
0004
0004
1FFC
1000
1FFC
0000
ENDCHAR
STARTCHAR U+B524
ENCODING 46372
SWIDTH 1000 0
DWIDTH 16 0
BBX 16 16 0 -2
BITMAP 
0000
0004
3F84
2004
2004
2004
2004
21C4
3E04
0004
1FFC
1004
1004
1004
1FFC
1004
ENDCHAR
STARTCHAR U+B525
ENCODING 46373
SWIDTH 1000 0
DWIDTH 16 0
BBX 16 16 0 -2
BITMAP 
0000
0004
3F84
2004
2004
2004
2004
21C4
3E04
0000
1004
1004
1FFC
1004
1FFC
1004
ENDCHAR
STARTCHAR U+B527
ENCODING 46375
SWIDTH 1000 0
DWIDTH 16 0
BBX 16 16 0 -2
BITMAP 
0000
0008
3F88
2008
2008
2008
2008
2008
3F88
0008
00C8
0080
00C0
0160
0210
0C0C
ENDCHAR
STARTCHAR U+B528
ENCODING 46376
SWIDTH 1000 0
DWIDTH 16 0
BBX 16 16 0 -2
BITMAP 
0000
0008
3F88
2008
2008
2008
2008
21C8
3E08
0008
0410
0410
0610
0A28
194C
0084
ENDCHAR
STARTCHAR U+B529
ENCODING 46377
SWIDTH 1000 0
DWIDTH 16 0
BBX 16 16 0 -2
BITMAP 
0000
0004
3F84
2004
2004
2004
2004
23C4
1C04
0004
07F0
180C
1004
1004
0808
07F0
ENDCHAR
STARTCHAR U+B52A
ENCODING 46378
SWIDTH 1000 0
DWIDTH 16 0
BBX 16 16 0 -2
BITMAP 
0000
0004
3F84
2004
2004
2004
2004
21C4
3E04
0000
0FFC
00C0
00C0
0120
0610
080C
ENDCHAR
STARTCHAR U+B530
ENCODING 46384
SWIDTH 1000 0
DWIDTH 16 0
BBX 16 16 0 -2
BITMAP 
0000
0010
0010
73D0
4210
4210
4210
4210
421E
4210
4210
4210
7390
0010
0010
0010
ENDCHAR
STARTCHAR U+B531
ENCODING 46385
SWIDTH 1000 0
DWIDTH 16 0
BBX 16 16 0 -2
BITMAP 
0000
0010
73D0
4210
4210
421E
4210
4210
7BD0
0000
0000
3FF0
0010
0010
0010
0010
ENDCHAR
STARTCHAR U+B534
ENCODING 46388
SWIDTH 1000 0
DWIDTH 16 0
BBX 16 16 0 -2
BITMAP 
0000
0010
7BD0
4210
4210
4210
421C
4210
7BD0
0010
2010
2010
2000
2000
3FF0
0000
ENDCHAR
STARTCHAR U+B538
ENCODING 46392
SWIDTH 1000 0
DWIDTH 16 0
BBX 16 16 0 -2
BITMAP 
0000
0010
7BD0
4210
4210
421E
4210
4210
7390
0000
3FF0
0010
3FF0
2000
3FF0
0000
ENDCHAR
STARTCHAR U+B540
ENCODING 46400
SWIDTH 1000 0
DWIDTH 16 0
BBX 16 16 0 -2
BITMAP 
0000
0010
7BD0
4210
4210
4210
421E
4210
7BD0
0010
3FF0
2010
2010
2010
3FF0
2010
ENDCHAR
STARTCHAR U+B541
ENCODING 46401
SWIDTH 1000 0
DWIDTH 16 0
BBX 16 16 0 -2
BITMAP 
0000
0010
7BD0
4210
4210
421E
4210
4210
7BD0
0000
2010
2010
3FF0
2010
3FF0
2010
ENDCHAR
STARTCHAR U+B543
ENCODING 46403
SWIDTH 1000 0
DWIDTH 16 0
BBX 16 16 0 -2
BITMAP 
0000
0010
7BD0
4210
4210
4210
421E
4210
7BD0
0010
0110
0100
0180
0240
0430
3808
ENDCHAR
STARTCHAR U+B544
ENCODING 46404
SWIDTH 1000 0
DWIDTH 16 0
BBX 16 16 0 -2
BITMAP 
0000
0010
7BD0
4210
4210
421C
4210
4210
7BD0
0000
0430
0420
0C30
0E30
1248
6080
ENDCHAR
STARTCHAR U+B545
ENCODING 46405
SWIDTH 1000 0
DWIDTH 16 0
BBX 16 16 0 -2
BITMAP 
0000
0010
7BD0
4210
4210
421E
4210
4210
7BD0
0010
0FE0
3018
2008
2008
3018
0FE0
ENDCHAR
STARTCHAR U+B54B
ENCODING 46411
SWIDTH 1000 0
DWIDTH 16 0
BBX 16 16 0 -2
BITMAP 
0000
0010
73D0
4210
4210
421E
4210
7BD0
0010
07C0
3FF8
0000
1FC0
2030
3030
1FE0
ENDCHAR
STARTCHAR U+B54C
ENCODING 46412
SWIDTH 1000 0
DWIDTH 16 0
BBX 16 16 0 -2
BITMAP 
0000
0024
0024
3BA4
2224
2224
2224
2224
223C
2224
2224
2224
33A4
0024
0024
0004
ENDCHAR
STARTCHAR U+B54D
ENCODING 46413
SWIDTH 1000 0
DWIDTH 16 0
BBX 16 16 0 -2
BITMAP 
0000
0024
3BA4
2224
2224
223C
2224
2224
3BA4
0024
0000
1FFC
0004
0004
0004
0004
ENDCHAR
STARTCHAR U+B550
ENCODING 46416
SWIDTH 1000 0
DWIDTH 16 0
BBX 16 16 0 -2
BITMAP 
0000
0004
3BA4
2224
2224
2224
2224
223C
3BE4
0024
0024
1024
1024
1000
1FFC
0000
ENDCHAR
STARTCHAR U+B554
ENCODING 46420
SWIDTH 1000 0
DWIDTH 16 0
BBX 16 16 0 -2
BITMAP 
0000
0004
3BA4
2224
2224
2224
223C
2264
33A4
0024
1FFC
0004
1FFC
1000
1FFC
0000
ENDCHAR
STARTCHAR U+B55C
ENCODING 46428
SWIDTH 1000 0
DWIDTH 16 0
BBX 16 16 0 -2
BITMAP 
0000
0024
3BA4
2224
2224
223C
2224
2224
3BA4
0004
0000
1FFC
1004
1004
1FFC
1004
ENDCHAR
STARTCHAR U+B55D
ENCODING 46429
SWIDTH 1000 0
DWIDTH 16 0
BBX 16 16 0 -2
BITMAP 
0000
0004
3BA4
2224
2224
2224
223C
2224
3BA4
0024
0000
1004
1FFC
1004
1FFC
1004
ENDCHAR
STARTCHAR U+B55F
ENCODING 46431
SWIDTH 1000 0
DWIDTH 16 0
BBX 16 16 0 -2
BITMAP 
0000
0004
3F24
2424
2424
2424
243C
2424
3FA4
0024
0004
0084
0080
0140
0230
1C0C
ENDCHAR
STARTCHAR U+B560
ENCODING 46432
SWIDTH 1000 0
DWIDTH 16 0
BBX 16 16 0 -2
BITMAP 
0000
0008
3F48
2448
2448
2448
2478
2448
3F48
0048
0420
0420
0430
0A50
1148
2080
ENDCHAR
STARTCHAR U+B561
ENCODING 46433
SWIDTH 1000 0
DWIDTH 16 0
BBX 16 16 0 -2
BITMAP 
0000
0024
3BA4
2224
2224
2224
223C
2224
3BE4
0024
0004
07F0
180C
1004
180C
07F0
ENDCHAR
STARTCHAR U+B5A0
ENCODING 46496
SWIDTH 1000 0
DWIDTH 16 0
BBX 16 16 0 -2
BITMAP 
0000
0004
0004
39C4
2104
2104
2104
213C
2104
2104
2104
2104
39E4
0004
0004
0004
ENDCHAR
STARTCHAR U+B5A1
ENCODING 46497
SWIDTH 1000 0
DWIDTH 16 0
BBX 16 16 0 -2
BITMAP 
0000
0004
39C4
2104
2104
213C
2104
2104
39C4
0004
0000
0FFC
0004
0004
0004
0004
ENDCHAR
STARTCHAR U+B5A4
ENCODING 46500
SWIDTH 1000 0
DWIDTH 16 0
BBX 16 16 0 -2
BITMAP 
0000
0004
39C4
2104
2104
2104
213C
2104
3DE4
0004
1004
1004
1004
1000
1FF8
0000
ENDCHAR
STARTCHAR U+B5A8
ENCODING 46504
SWIDTH 1000 0
DWIDTH 16 0
BBX 16 16 0 -2
BITMAP 
0000
0004
39C4
2104
2104
213C
2104
2524
39C4
0000
0FFC
0004
1FFC
1000
1FFC
0000
ENDCHAR
STARTCHAR U+B5AA
ENCODING 46506
SWIDTH 1000 0
DWIDTH 16 0
BBX 16 16 0 -2
BITMAP 
0000
0004
39E4
2104
2104
213C
2104
2524
39C4
0000
1F7C
0144
1F44
1044
1F7C
0044
ENDCHAR
STARTCHAR U+B5AB
ENCODING 46507
SWIDTH 1000 0
DWIDTH 16 0
BBX 16 16 0 -2
BITMAP 
0000
0004
39C4
2104
2104
213C
2104
2524
39C4
0004
1F44
017C
1F44
1044
117C
0E44
ENDCHAR
STARTCHAR U+B5B0
ENCODING 46512
SWIDTH 1000 0
DWIDTH 16 0
BBX 16 16 0 -2
BITMAP 
0000
0004
39E4
2104
2104
213C
2104
2104
39C4
0004
0000
1FFC
1004
1004
1FFC
1004
ENDCHAR
STARTCHAR U+B5B1
ENCODING 46513
SWIDTH 1000 0
DWIDTH 16 0
BBX 16 16 0 -2
BITMAP 
0000
0004
39C4
2104
2104
213C
2104
2104
39C4
0004
1004
1004
1FFC
1004
1FFC
1004
ENDCHAR
STARTCHAR U+B5B3
ENCODING 46515
SWIDTH 1000 0
DWIDTH 16 0
BBX 16 16 0 -2
BITMAP 
0000
0008
73C8
4208
4208
4278
4208
4208
7BC8
0008
0008
0080
0080
0140
0630
180C
ENDCHAR
STARTCHAR U+B5B4
ENCODING 46516
SWIDTH 1000 0
DWIDTH 16 0
BBX 16 16 0 -2
BITMAP 
0000
0008
7388
4208
4208
4278
4208
4208
7BC8
0008
0410
0410
0610
0B18
112C
0040
ENDCHAR
STARTCHAR U+B5B5
ENCODING 46517
SWIDTH 1000 0
DWIDTH 16 0
BBX 16 16 0 -2
BITMAP 
0000
0004
39C4
2104
2104
213C
2104
2104
3DE4
0004
07F0
1808
1004
1004
0808
07F0
ENDCHAR
STARTCHAR U+B5BB
ENCODING 46523
SWIDTH 1000 0
DWIDTH 16 0
BBX 16 16 0 -2
BITMAP 
0000
0004
39C4
2104
213C
2104
2104
3DE4
0004
03E0
1FFC
0000
07E0
181C
180C
0FF8
ENDCHAR
STARTCHAR U+B5BC
ENCODING 46524
SWIDTH 1000 0
DWIDTH 16 0
BBX 16 16 0 -2
BITMAP 
0000
0004
0024
3724
2424
2424
2424
25E4
2424
2424
2424
2424
3724
0024
0024
0004
ENDCHAR
STARTCHAR U+B5BD
ENCODING 46525
SWIDTH 1000 0
DWIDTH 16 0
BBX 16 16 0 -2
BITMAP 
0000
0024
3F24
2424
2424
24E4
2424
2424
3F24
0024
1FFC
0004
0004
0004
0004
0004
ENDCHAR
STARTCHAR U+B5C0
ENCODING 46528
SWIDTH 1000 0
DWIDTH 16 0
BBX 16 16 0 -2
BITMAP 
0000
0004
3F24
2424
2424
24E4
2424
2424
3F24
0024
0024
1024
1000
1000
1FFC
0000
ENDCHAR
STARTCHAR U+B5C4
ENCODING 46532
SWIDTH 1000 0
DWIDTH 16 0
BBX 16 16 0 -2
BITMAP 
0000
0024
3724
2424
2424
24E4
2424
2424
3724
0000
1FFC
0004
1FFC
1000
1FFC
0000
ENDCHAR
STARTCHAR U+B5CC
ENCODING 46540
SWIDTH 1000 0
DWIDTH 16 0
BBX 16 16 0 -2
BITMAP 
0000
0004
3F24
2424
2424
24E4
2424
2424
3F24
0024
0000
1FFC
1004
1004
1FFC
1004
ENDCHAR
STARTCHAR U+B5CD
ENCODING 46541
SWIDTH 1000 0
DWIDTH 16 0
BBX 16 16 0 -2
BITMAP 
0000
0004
33A4
2224
2224
22E4
2224
2224
3BA4
0024
1004
1004
1FFC
1004
1FFC
1004
ENDCHAR
STARTCHAR U+B5CF
ENCODING 46543
SWIDTH 1000 0
DWIDTH 16 0
BBX 16 16 0 -2
BITMAP 
0000
0004
6724
4424
4424
44E4
4424
4424
7724
0024
0004
0080
00C0
0160
0610
180C
ENDCHAR
STARTCHAR U+B5D0
ENCODING 46544
SWIDTH 1000 0
DWIDTH 16 0
BBX 16 16 0 -2
BITMAP 
0000
0004
6724
4424
4424
44E4
4424
4424
6724
0004
0610
0410
0610
0628
0964
3040
ENDCHAR
STARTCHAR U+B5D1
ENCODING 46545
SWIDTH 1000 0
DWIDTH 16 0
BBX 16 16 0 -2
BITMAP 
0000
0004
3F24
2424
2424
24E4
2424
2424
3F24
0024
0000
07F0
180C
1004
180C
07F0
ENDCHAR
STARTCHAR U+B5D8
ENCODING 46552
SWIDTH 1000 0
DWIDTH 16 0
BBX 16 16 0 -2
BITMAP 
0000
0004
0004
39C4
2104
213C
2104
2104
2104
213C
2104
2104
39C4
0004
0004
0004
ENDCHAR
STARTCHAR U+B5EC
ENCODING 46572
SWIDTH 1000 0
DWIDTH 16 0
BBX 16 16 0 -2
BITMAP 
0000
0008
7388
4208
4278
4208
4278
4208
7BC8
0008
0610
0410
0610
0628
0964
3040
ENDCHAR
STARTCHAR U+B610
ENCODING 46608
SWIDTH 1000 0
DWIDTH 16 0
BBX 16 16 0 -2
BITMAP 
0000
0000
0000
3E7C
2040
2040
2040
2040
2E7E
1100
0100
0100
0100
FFFE
0000
0000
ENDCHAR
STARTCHAR U+B611
ENCODING 46609
SWIDTH 1000 0
DWIDTH 16 0
BBX 16 16 0 -2
BITMAP 
0000
3E7C
2040
2040
2040
3E7C
0000
0100
7FFE
0000
0000
3FF8
0008
0008
0008
0008
ENDCHAR
STARTCHAR U+B614
ENCODING 46612
SWIDTH 1000 0
DWIDTH 16 0
BBX 16 16 0 -2
BITMAP 
0000
3E7C
2040
2040
2040
2040
3E7E
0080
0080
7FFF
1000
1000
1000
1000
1FFC
0000
ENDCHAR
STARTCHAR U+B618
ENCODING 46616
SWIDTH 1000 0
DWIDTH 16 0
BBX 16 16 0 -2
BITMAP 
0000
3E7C
2040
2040
2040
3C7E
0000
0000
7FFE
0000
3FF8
0008
1FF8
1000
1FFC
0000
ENDCHAR
STARTCHAR U+B625
ENCODING 46629
SWIDTH 1000 0
DWIDTH 16 0
BBX 16 16 0 -2
BITMAP 
0000
3EF8
2080
2080
2080
3EFC
0100
0100
FFFE
0000
0FE0
3018
2008
2008
1C30
03C0
ENDCHAR
STARTCHAR U+B62C
ENCODING 46636
SWIDTH 1000 0
DWIDTH 16 0
BBX 16 16 0 -2
BITMAP 
0000
0008
3FC8
2208
2208
2208
2208
3FC8
000F
0408
0408
0408
FFC8
0008
0008
0008
ENDCHAR
STARTCHAR U+B634
ENCODING 46644
SWIDTH 1000 0
DWIDTH 16 0
BBX 16 16 0 -2
BITMAP 
0000
0008
3FC8
2208
2208
3FC8
000F
0408
FFC8
0008
1FF8
0008
1FF8
1000
1FF8
0000
ENDCHAR
STARTCHAR U+B648
ENCODING 46664
SWIDTH 1000 0
DWIDTH 16 0
BBX 16 16 0 -2
BITMAP 
0000
0024
3BA4
2224
2224
2224
2224
3FE4
003C
0424
0424
0424
7FA4
0024
0024
0004
ENDCHAR
STARTCHAR U+B664
ENCODING 46692
SWIDTH 1000 0
DWIDTH 16 0
BBX 16 16 0 -2
BITMAP 
0000
0004
1FE4
1104
1104
1104
1104
1FE4
0004
0204
0204
02F4
7D04
0004
0004
0004
ENDCHAR
STARTCHAR U+B668
ENCODING 46696
SWIDTH 1000 0
DWIDTH 16 0
BBX 16 16 0 -2
BITMAP 
0000
0004
1FE4
1104
1104
1104
1FE4
0204
0204
7FE4
0004
0804
0800
0800
0FFC
0000
ENDCHAR
STARTCHAR U+B69C
ENCODING 46748
SWIDTH 1000 0
DWIDTH 16 0
BBX 16 16 0 -2
BITMAP 
0000
3E7C
2040
2040
2040
3E7E
0000
0000
FFFE
0100
0100
0100
0100
0100
0100
0100
ENDCHAR
STARTCHAR U+B69D
ENCODING 46749
SWIDTH 1000 0
DWIDTH 16 0
BBX 16 16 0 -2
BITMAP 
0000
3E7C
2040
2040
2040
3F7E
0000
7FFF
0080
0080
0080
1FF8
0008
0008
0008
0008
ENDCHAR
STARTCHAR U+B6A0
ENCODING 46752
SWIDTH 1000 0
DWIDTH 16 0
BBX 16 16 0 -2
BITMAP 
0000
3EF8
2080
2080
2080
3EFC
0000
0000
FFFE
0100
0100
1100
1100
1000
1FFC
0000
ENDCHAR
STARTCHAR U+B6A4
ENCODING 46756
SWIDTH 1000 0
DWIDTH 16 0
BBX 16 16 0 -2
BITMAP 
0000
3E7C
2040
2040
2040
3C7E
0000
FFFE
0100
0100
3FF8
0008
1FF8
1000
1FFC
0000
ENDCHAR
STARTCHAR U+B6AB
ENCODING 46763
SWIDTH 1000 0
DWIDTH 16 0
BBX 16 16 0 -2
BITMAP 
0000
3E7C
2040
2040
2040
3E7E
0000
FFFE
0100
0170
1E00
02FC
1E00
1078
1288
0CF8
ENDCHAR
STARTCHAR U+B6AC
ENCODING 46764
SWIDTH 1000 0
DWIDTH 16 0
BBX 16 16 0 -2
BITMAP 
0000
0000
3EF8
2080
2080
20FC
3C00
0000
7FFF
0080
0080
1FF8
1008
1008
1FF8
1008
ENDCHAR
STARTCHAR U+B6B1
ENCODING 46769
SWIDTH 1000 0
DWIDTH 16 0
BBX 16 16 0 -2
BITMAP 
0000
3E7C
2040
2040
2040
3E7C
0000
0000
FFFE
0100
0FF0
300C
2004
2004
1C38
03C0
ENDCHAR
STARTCHAR U+B6D4
ENCODING 46804
SWIDTH 1000 0
DWIDTH 16 0
BBX 16 16 0 -2
BITMAP 
0000
0014
3B94
2214
2214
2214
2214
3B94
0014
7F14
0414
0474
0414
0414
0414
0004
ENDCHAR
STARTCHAR U+B6F0
ENCODING 46832
SWIDTH 1000 0
DWIDTH 16 0
BBX 16 16 0 -2
BITMAP 
0000
0004
1FE4
1104
1104
1104
1DE4
0004
000C
3FF4
0104
0104
0104
0104
0104
0004
ENDCHAR
STARTCHAR U+B6F4
ENCODING 46836
SWIDTH 1000 0
DWIDTH 16 0
BBX 16 16 0 -2
BITMAP 
0000
0004
1CF4
1084
1084
1084
1EF4
0004
3FF4
0104
0104
0904
0800
0800
0FFC
0000
ENDCHAR
STARTCHAR U+B6F8
ENCODING 46840
SWIDTH 1000 0
DWIDTH 16 0
BBX 16 16 0 -2
BITMAP 
0000
0004
1EF4
1084
1084
1EF4
000C
3FF4
0104
0000
0FFC
0004
0FFC
0800
0FFC
0000
ENDCHAR
STARTCHAR U+B700
ENCODING 46848
SWIDTH 1000 0
DWIDTH 16 0
BBX 16 16 0 -2
BITMAP 
0000
0004
1EF4
1084
1084
12F4
0C04
3FFC
0104
0104
0000
0FFC
0804
0804
0FFC
0804
ENDCHAR
STARTCHAR U+B701
ENCODING 46849
SWIDTH 1000 0
DWIDTH 16 0
BBX 16 16 0 -2
BITMAP 
0000
0004
1EF4
1084
1084
12F4
0C04
0004
3FF4
0100
0904
0804
0FFC
0804
0FFC
0804
ENDCHAR
STARTCHAR U+B705
ENCODING 46853
SWIDTH 1000 0
DWIDTH 16 0
BBX 16 16 0 -2
BITMAP 
0000
0004
1CF4
1084
1084
1EF4
0004
0004
3FF4
0104
0104
03F0
0C0C
0804
0C0C
03F0
ENDCHAR
STARTCHAR U+B728
ENCODING 46888
SWIDTH 1000 0
DWIDTH 16 0
BBX 16 16 0 -2
BITMAP 
0000
0000
3E7C
2040
2040
2040
2040
3E7C
0000
0000
0000
0000
7FFE
0000
0000
0000
ENDCHAR
STARTCHAR U+B729
ENCODING 46889
SWIDTH 1000 0
DWIDTH 16 0
BBX 16 16 0 -2
BITMAP 
0000
3E7C
2040
2040
2040
2040
3E7E
0000
7FFE
0000
0000
3FF8
0008
0008
0008
0008
ENDCHAR
STARTCHAR U+B72C
ENCODING 46892
SWIDTH 1000 0
DWIDTH 16 0
BBX 16 16 0 -2
BITMAP 
0000
3E7C
2040
2040
2040
2040
3E7C
0000
0000
7FFE
1000
1000
1000
1000
1FFC
0000
ENDCHAR
STARTCHAR U+B72F
ENCODING 46895
SWIDTH 1000 0
DWIDTH 16 0
BBX 16 16 0 -2
BITMAP 
0000
3E7C
2040
2040
2040
3E7E
0000
0000
7FFE
0000
0000
1FFC
1000
1000
1FFC
0000
ENDCHAR
STARTCHAR U+B730
ENCODING 46896
SWIDTH 1000 0
DWIDTH 16 0
BBX 16 16 0 -2
BITMAP 
0000
3E7C
2040
2040
2040
3E7C
0000
0000
7FFE
0000
1FF8
0008
1FF8
1000
1FFC
0000
ENDCHAR
STARTCHAR U+B738
ENCODING 46904
SWIDTH 1000 0
DWIDTH 16 0
BBX 16 16 0 -2
BITMAP 
0000
0000
3E7C
2040
2040
207E
3C00
0000
7FFE
0000
0000
1FF8
1008
1008
1FF8
1008
ENDCHAR
STARTCHAR U+B739
ENCODING 46905
SWIDTH 1000 0
DWIDTH 16 0
BBX 16 16 0 -2
BITMAP 
0000
0000
3E7C
2040
2040
207E
3E00
0000
7FFE
0000
1008
1008
1FF8
1008
1FF8
1008
ENDCHAR
STARTCHAR U+B73B
ENCODING 46907
SWIDTH 1000 0
DWIDTH 16 0
BBX 16 16 0 -2
BITMAP 
0000
3E7C
2040
2040
2040
2240
1C7C
0000
7FFE
0000
0000
0080
0180
0240
0430
380C
ENDCHAR
STARTCHAR U+B744
ENCODING 46916
SWIDTH 1000 0
DWIDTH 16 0
BBX 16 16 0 -2
BITMAP 
0000
0004
1FE4
1104
1104
1104
1104
1304
1DE4
0004
0004
3FF4
0004
0004
0004
0004
ENDCHAR
STARTCHAR U+B748
ENCODING 46920
SWIDTH 1000 0
DWIDTH 16 0
BBX 16 16 0 -2
BITMAP 
0000
0004
1EF4
1084
1084
1084
1EF4
0004
0004
3FE4
0004
0804
0800
0800
0FFC
0000
ENDCHAR
STARTCHAR U+B74C
ENCODING 46924
SWIDTH 1000 0
DWIDTH 16 0
BBX 16 16 0 -2
BITMAP 
0000
0004
1EF4
1084
1084
1EF4
0004
00F4
1F04
0000
0FFC
0004
0FFC
0800
0FFC
0000
ENDCHAR
STARTCHAR U+B754
ENCODING 46932
SWIDTH 1000 0
DWIDTH 16 0
BBX 16 16 0 -2
BITMAP 
0000
0004
1EF4
1084
1084
1084
1CF4
0004
3FF4
0004
0000
0FFC
0804
0804
0FFC
0804
ENDCHAR
STARTCHAR U+B755
ENCODING 46933
SWIDTH 1000 0
DWIDTH 16 0
BBX 16 16 0 -2
BITMAP 
0000
0004
1CF4
1084
1084
10F4
1C04
0004
3FE4
0000
0804
0804
0FFC
0804
0FFC
0804
ENDCHAR
STARTCHAR U+B760
ENCODING 46944
SWIDTH 1000 0
DWIDTH 16 0
BBX 16 16 0 -2
BITMAP 
0000
0004
0004
3DE4
2104
2104
2104
2104
2104
2104
2104
2104
39E4
0004
0004
0004
ENDCHAR
STARTCHAR U+B764
ENCODING 46948
SWIDTH 1000 0
DWIDTH 16 0
BBX 16 16 0 -2
BITMAP 
0000
0004
39E4
2104
2104
2104
2104
2104
3DE4
0004
0004
0804
0800
0800
0FFC
0000
ENDCHAR
STARTCHAR U+B768
ENCODING 46952
SWIDTH 1000 0
DWIDTH 16 0
BBX 16 16 0 -2
BITMAP 
0000
0004
3DE4
2104
2104
2104
2104
2D64
1084
0000
0FFC
0004
0FFC
0800
0FFC
0000
ENDCHAR
STARTCHAR U+B770
ENCODING 46960
SWIDTH 1000 0
DWIDTH 16 0
BBX 16 16 0 -2
BITMAP 
0000
0004
39E4
2104
2104
2104
2104
2104
3DE4
0004
0000
0FFC
0804
0804
0FFC
0804
ENDCHAR
STARTCHAR U+B771
ENCODING 46961
SWIDTH 1000 0
DWIDTH 16 0
BBX 16 16 0 -2
BITMAP 
0000
0004
3DE4
2104
2104
2104
2104
2524
39C4
0000
0804
0804
0FFC
0804
0FFC
0804
ENDCHAR
STARTCHAR U+B773
ENCODING 46963
SWIDTH 1000 0
DWIDTH 16 0
BBX 16 16 0 -2
BITMAP 
0000
0008
3DE8
2108
2108
2108
2108
2108
3DE8
0008
0088
0080
0080
0140
0630
180C
ENDCHAR
STARTCHAR U+B775
ENCODING 46965
SWIDTH 1000 0
DWIDTH 16 0
BBX 16 16 0 -2
BITMAP 
0000
0004
3DE4
2104
2104
2104
2104
2104
3DE4
0004
07F0
080C
1004
1004
180C
07F0
ENDCHAR
STARTCHAR U+B77C
ENCODING 46972
SWIDTH 1000 0
DWIDTH 16 0
BBX 16 16 0 -2
BITMAP 
0000
0010
7F10
0110
0110
0110
0110
7F10
401E
4010
4010
4050
7F90
0010
0010
0010
ENDCHAR
STARTCHAR U+B77D
ENCODING 46973
SWIDTH 1000 0
DWIDTH 16 0
BBX 16 16 0 -2
BITMAP 
0000
0010
7F10
0110
0110
7F10
401E
4010
7FD0
0010
0000
3FF0
0010
0010
0010
0010
ENDCHAR
STARTCHAR U+B780
ENCODING 46976
SWIDTH 1000 0
DWIDTH 16 0
BBX 16 16 0 -2
BITMAP 
0000
0010
7F10
0110
0110
7F10
401E
4010
41D0
7E10
0010
2010
2000
2000
3FF0
0000
ENDCHAR
STARTCHAR U+B784
ENCODING 46980
SWIDTH 1000 0
DWIDTH 16 0
BBX 16 16 0 -2
BITMAP 
0000
0010
7F10
0110
7F10
401E
4010
7F90
0010
3FF0
0010
0010
3FF0
2000
3FF0
0000
ENDCHAR
STARTCHAR U+B78C
ENCODING 46988
SWIDTH 1000 0
DWIDTH 16 0
BBX 16 16 0 -2
BITMAP 
0000
0008
7F08
0108
0108
7F08
400E
4008
7FC8
0008
0000
3FF0
2010
2010
3FF0
2010
ENDCHAR
STARTCHAR U+B78D
ENCODING 46989
SWIDTH 1000 0
DWIDTH 16 0
BBX 16 16 0 -2
BITMAP 
0000
0010
7F10
0110
0110
7F1E
4010
4010
7F90
0000
2010
2010
3FF0
2010
3FF0
2010
ENDCHAR
STARTCHAR U+B78F
ENCODING 46991
SWIDTH 1000 0
DWIDTH 16 0
BBX 16 16 0 -2
BITMAP 
0000
0010
7F10
0110
0110
7F10
401E
4010
4FD0
3010
0010
0110
0180
0240
0C30
3008
ENDCHAR
STARTCHAR U+B790
ENCODING 46992
SWIDTH 1000 0
DWIDTH 16 0
BBX 16 16 0 -2
BITMAP 
0000
0010
7F10
0110
0110
7F10
401E
4010
47D0
3810
1000
1020
1860
2850
6498
0108
ENDCHAR
STARTCHAR U+B791
ENCODING 46993
SWIDTH 1000 0
DWIDTH 16 0
BBX 16 16 0 -2
BITMAP 
0000
0010
7F10
0110
0110
7F10
401C
4010
4FD0
3010
0010
1FE0
2010
2010
3030
0FC0
ENDCHAR
STARTCHAR U+B792
ENCODING 46994
SWIDTH 1000 0
DWIDTH 16 0
BBX 16 16 0 -2
BITMAP 
0000
0010
7F10
0110
0110
7F10
401E
4010
7FD0
0010
3FF0
0100
0300
0480
1860
2018
ENDCHAR
STARTCHAR U+B796
ENCODING 46998
SWIDTH 1000 0
DWIDTH 16 0
BBX 16 16 0 -2
BITMAP 
0000
0010
7F10
0110
0110
7F10
401E
4010
7FD0
0010
0000
3FF0
0440
0440
3FF8
0000
ENDCHAR
STARTCHAR U+B797
ENCODING 46999
SWIDTH 1000 0
DWIDTH 16 0
BBX 16 16 0 -2
BITMAP 
0000
0010
7F10
0110
7F10
401E
4010
7F90
0010
0780
3FF8
0000
0FE0
1010
1010
0FE0
ENDCHAR
STARTCHAR U+B798
ENCODING 47000
SWIDTH 1000 0
DWIDTH 16 0
BBX 16 16 0 -2
BITMAP 
0000
0004
0044
3E44
0244
0244
0244
3E44
207C
2044
2044
2144
3E44
0044
0044
0004
ENDCHAR
STARTCHAR U+B799
ENCODING 47001
SWIDTH 1000 0
DWIDTH 16 0
BBX 16 16 0 -2
BITMAP 
0000
0004
3E24
0224
0224
3E24
203C
2024
2724
1824
0000
1FFC
0004
0004
0004
0004
ENDCHAR
STARTCHAR U+B79C
ENCODING 47004
SWIDTH 1000 0
DWIDTH 16 0
BBX 16 16 0 -2
BITMAP 
0000
0044
3E44
0244
0244
0244
3E44
207C
2044
2044
3F44
1044
1044
1000
1FFC
0000
ENDCHAR
STARTCHAR U+B7A0
ENCODING 47008
SWIDTH 1000 0
DWIDTH 16 0
BBX 16 16 0 -2
BITMAP 
0000
0024
3E24
0224
3E24
203C
2024
3F24
0024
0000
1FFC
0004
1FFC
1000
1FFC
0000
ENDCHAR
STARTCHAR U+B7A8
ENCODING 47016
SWIDTH 1000 0
DWIDTH 16 0
BBX 16 16 0 -2
BITMAP 
0000
0004
3E24
0224
0224
3E24
203C
2024
3F24
0024
0000
1FFC
1004
1004
1FFC
1004
ENDCHAR
STARTCHAR U+B7A9
ENCODING 47017
SWIDTH 1000 0
DWIDTH 16 0
BBX 16 16 0 -2
BITMAP 
0000
0004
3E44
0244
0244
3E44
207C
2044
2F44
1044
1004
1004
1FFC
1004
1FFC
1004
ENDCHAR
STARTCHAR U+B7AB
ENCODING 47019
SWIDTH 1000 0
DWIDTH 16 0
BBX 16 16 0 -2
BITMAP 
0000
0008
3E48
0248
0248
0248
3E78
2048
2048
2348
3C08
0080
01C0
0120
0618
1804
ENDCHAR
STARTCHAR U+B7AC
ENCODING 47020
SWIDTH 1000 0
DWIDTH 16 0
BBX 16 16 0 -2
BITMAP 
0000
0008
3E48
0248
0248
3E48
2078
2048
2F48
1048
0410
0410
0430
0A28
1344
2080
ENDCHAR
STARTCHAR U+B7AD
ENCODING 47021
SWIDTH 1000 0
DWIDTH 16 0
BBX 16 16 0 -2
BITMAP 
0000
0004
3E24
0224
0224
3E24
203C
2024
2724
3824
0000
07F0
180C
1004
1C0C
07F8
ENDCHAR
STARTCHAR U+B7B4
ENCODING 47028
SWIDTH 1000 0
DWIDTH 16 0
BBX 16 16 0 -2
BITMAP 
0000
0010
7F10
0110
0110
0110
011E
7F10
4010
4010
401E
4050
7F90
0010
0010
0010
ENDCHAR
STARTCHAR U+B7B5
ENCODING 47029
SWIDTH 1000 0
DWIDTH 16 0
BBX 16 16 0 -2
BITMAP 
0000
0010
7F10
0110
011E
7F10
4010
401E
43D0
3C10
0000
3FF0
0010
0010
0010
0010
ENDCHAR
STARTCHAR U+B7B8
ENCODING 47032
SWIDTH 1000 0
DWIDTH 16 0
BBX 16 16 0 -2
BITMAP 
0000
0010
7F10
0110
011C
7F10
4010
4010
40DC
7F10
0010
2010
2010
2000
3FF0
0000
ENDCHAR
STARTCHAR U+B7C7
ENCODING 47047
SWIDTH 1000 0
DWIDTH 16 0
BBX 16 16 0 -2
BITMAP 
0000
0010
7F10
0110
011E
7F10
4010
401E
41D0
7E10
0090
0080
0180
0260
0430
1808
ENDCHAR
STARTCHAR U+B7C9
ENCODING 47049
SWIDTH 1000 0
DWIDTH 16 0
BBX 16 16 0 -2
BITMAP 
0000
0010
7F10
0110
011E
7F10
4010
401E
4010
7F90
0FE0
3018
2008
2008
3018
0FE0
ENDCHAR
STARTCHAR U+B7EC
ENCODING 47084
SWIDTH 1000 0
DWIDTH 16 0
BBX 16 16 0 -2
BITMAP 
0000
0004
3F04
0104
0104
0104
0104
3F3C
2004
2004
2004
2004
3F04
0004
0004
0004
ENDCHAR
STARTCHAR U+B7ED
ENCODING 47085
SWIDTH 1000 0
DWIDTH 16 0
BBX 16 16 0 -2
BITMAP 
0000
0004
3F04
0104
0104
3F3C
2004
2004
3F84
0004
0000
1FFC
0004
0004
0004
0004
ENDCHAR
STARTCHAR U+B7F0
ENCODING 47088
SWIDTH 1000 0
DWIDTH 16 0
BBX 16 16 0 -2
BITMAP 
0000
0004
3F04
0104
0104
3F04
203C
2004
2004
3F04
0004
1004
1004
1000
1FFC
0000
ENDCHAR
STARTCHAR U+B7F4
ENCODING 47092
SWIDTH 1000 0
DWIDTH 16 0
BBX 16 16 0 -2
BITMAP 
0000
0004
3F04
0104
0104
3F3C
2004
2004
3F84
0000
0FFC
0004
1FFC
1000
1FFC
0000
ENDCHAR
STARTCHAR U+B7FC
ENCODING 47100
SWIDTH 1000 0
DWIDTH 16 0
BBX 16 16 0 -2
BITMAP 
0000
0004
3F04
0104
0104
3F04
203C
2004
2004
3F04
0000
0FFC
0804
0804
0FFC
0804
ENDCHAR
STARTCHAR U+B7FD
ENCODING 47101
SWIDTH 1000 0
DWIDTH 16 0
BBX 16 16 0 -2
BITMAP 
0000
0004
3F04
0104
0104
3F04
203C
2004
2084
3F04
0804
0804
0FFC
0804
0FFC
0804
ENDCHAR
STARTCHAR U+B7FF
ENCODING 47103
SWIDTH 1000 0
DWIDTH 16 0
BBX 16 16 0 -2
BITMAP 
0000
0008
3F08
0108
0108
3F78
2008
2008
2F88
1008
0088
0080
0140
0220
0418
1804
ENDCHAR
STARTCHAR U+B800
ENCODING 47104
SWIDTH 1000 0
DWIDTH 16 0
BBX 16 16 0 -2
BITMAP 
0000
0008
3F08
0108
0108
3F78
2008
2008
2388
1C00
0210
0610
0618
0A28
1144
2040
ENDCHAR
STARTCHAR U+B801
ENCODING 47105
SWIDTH 1000 0
DWIDTH 16 0
BBX 16 16 0 -2
BITMAP 
0000
0004
3F04
0104
0104
3F3C
2004
2004
2084
3F04
0000
0FF8
1004
1004
1C0C
07F8
ENDCHAR
STARTCHAR U+B807
ENCODING 47111
SWIDTH 1000 0
DWIDTH 16 0
BBX 16 16 0 -2
BITMAP 
0000
0004
3F04
0104
0104
3F3C
2004
2004
3F84
03C0
1FF8
0000
07F0
1808
1818
0FF0
ENDCHAR
STARTCHAR U+B808
ENCODING 47112
SWIDTH 1000 0
DWIDTH 16 0
BBX 16 16 0 -2
BITMAP 
0000
0024
0024
3E24
0224
0224
0224
3EE4
2024
2024
2024
2124
3E24
0024
0024
0004
ENDCHAR
STARTCHAR U+B809
ENCODING 47113
SWIDTH 1000 0
DWIDTH 16 0
BBX 16 16 0 -2
BITMAP 
0000
0004
3E24
0224
0224
3EE4
2024
2024
3F24
0004
1FFC
0004
0004
0004
0004
0004
ENDCHAR
STARTCHAR U+B80C
ENCODING 47116
SWIDTH 1000 0
DWIDTH 16 0
BBX 16 16 0 -2
BITMAP 
0000
0024
3E24
0224
0224
3E24
20E4
2024
2024
3E24
0024
1024
1004
1000
1FFC
0000
ENDCHAR
STARTCHAR U+B810
ENCODING 47120
SWIDTH 1000 0
DWIDTH 16 0
BBX 16 16 0 -2
BITMAP 
0000
0024
3E24
0224
0224
3EE4
2024
2024
3F24
0000
1FFC
0004
1FFC
1000
1FFC
0000
ENDCHAR
STARTCHAR U+B818
ENCODING 47128
SWIDTH 1000 0
DWIDTH 16 0
BBX 16 16 0 -2
BITMAP 
0000
0004
3E24
0224
0224
3EE4
2024
2024
3F24
0024
0000
1FFC
1004
1004
1FFC
1004
ENDCHAR
STARTCHAR U+B819
ENCODING 47129
SWIDTH 1000 0
DWIDTH 16 0
BBX 16 16 0 -2
BITMAP 
0000
0004
3E24
0224
0224
3EE4
2024
2024
3F24
0024
1004
1004
1FFC
1004
1FFC
1004
ENDCHAR
STARTCHAR U+B81B
ENCODING 47131
SWIDTH 1000 0
DWIDTH 16 0
BBX 16 16 0 -2
BITMAP 
0000
0004
7E24
0224
0224
7EE4
4024
4024
4024
7C24
0004
00C4
00C0
0120
0618
0800
ENDCHAR
STARTCHAR U+B81D
ENCODING 47133
SWIDTH 1000 0
DWIDTH 16 0
BBX 16 16 0 -2
BITMAP 
0000
0004
3E24
0224
0224
3EE4
2024
2024
3F24
0024
07F0
180C
1004
1004
080C
07F0
ENDCHAR
STARTCHAR U+B824
ENCODING 47140
SWIDTH 1000 0
DWIDTH 16 0
BBX 16 16 0 -2
BITMAP 
0000
0004
3F04
0104
0104
013C
0104
3F04
2004
203C
2004
2004
3F04
0004
0004
0004
ENDCHAR
STARTCHAR U+B825
ENCODING 47141
SWIDTH 1000 0
DWIDTH 16 0
BBX 16 16 0 -2
BITMAP 
0000
0004
3F04
0104
013C
3F04
2004
203C
2784
1804
0000
1FFC
0004
0004
0004
0004
ENDCHAR
STARTCHAR U+B828
ENCODING 47144
SWIDTH 1000 0
DWIDTH 16 0
BBX 16 16 0 -2
BITMAP 
0000
0004
3F04
0104
013C
3F04
2004
203C
2004
3F84
0004
1004
1004
1000
1FFC
0000
ENDCHAR
STARTCHAR U+B82C
ENCODING 47148
SWIDTH 1000 0
DWIDTH 16 0
BBX 16 16 0 -2
BITMAP 
0000
0004
3F04
013C
0104
3F04
203C
2004
3F84
0000
0FFC
0004
1FFC
1000
1FFC
0000
ENDCHAR
STARTCHAR U+B834
ENCODING 47156
SWIDTH 1000 0
DWIDTH 16 0
BBX 16 16 0 -2
BITMAP 
0000
0004
3F04
013C
0104
3F04
2004
203C
2184
3E04
0000
0FFC
0804
0804
0FFC
0804
ENDCHAR
STARTCHAR U+B835
ENCODING 47157
SWIDTH 1000 0
DWIDTH 16 0
BBX 16 16 0 -2
BITMAP 
0000
0004
3F04
013C
0104
3F04
2004
203C
2384
1C04
1004
1004
1FFC
1004
1FFC
1004
ENDCHAR
STARTCHAR U+B837
ENCODING 47159
SWIDTH 1000 0
DWIDTH 16 0
BBX 16 16 0 -2
BITMAP 
0000
0008
3F08
0108
0178
3F08
2008
2078
2088
3F08
0008
0088
0140
0320
0418
1804
ENDCHAR
STARTCHAR U+B838
ENCODING 47160
SWIDTH 1000 0
DWIDTH 16 0
BBX 16 16 0 -2
BITMAP 
0000
0008
3F08
0178
0108
3F08
2078
2008
2388
1C00
0210
0610
0618
0A28
1144
2040
ENDCHAR
STARTCHAR U+B839
ENCODING 47161
SWIDTH 1000 0
DWIDTH 16 0
BBX 16 16 0 -2
BITMAP 
0000
0004
3F04
0104
013C
3F04
2004
203C
2084
3F04
0004
0FF8
1004
1004
1C0C
07F8
ENDCHAR
STARTCHAR U+B840
ENCODING 47168
SWIDTH 1000 0
DWIDTH 16 0
BBX 16 16 0 -2
BITMAP 
0000
0024
0024
3E24
0224
02E4
0224
3E24
2024
20E4
2024
2724
3824
0024
0024
0004
ENDCHAR
STARTCHAR U+B844
ENCODING 47172
SWIDTH 1000 0
DWIDTH 16 0
BBX 16 16 0 -2
BITMAP 
0000
0024
3E24
0224
02E4
3E24
2024
20E4
2124
3E24
0024
1024
1004
1000
1FFC
0000
ENDCHAR
STARTCHAR U+B851
ENCODING 47185
SWIDTH 1000 0
DWIDTH 16 0
BBX 16 16 0 -2
BITMAP 
0000
0004
3E24
02E4
0224
3E24
20E4
2024
3F24
0024
1004
1004
1FFC
1004
1FFC
1004
ENDCHAR
STARTCHAR U+B853
ENCODING 47187
SWIDTH 1000 0
DWIDTH 16 0
BBX 16 16 0 -2
BITMAP 
0000
0024
3E24
02E4
0224
3E24
20E4
2024
3F24
0024
0004
0080
01C0
0360
0410
180C
ENDCHAR
STARTCHAR U+B85C
ENCODING 47196
SWIDTH 1000 0
DWIDTH 16 0
BBX 16 16 0 -2
BITMAP 
0000
0000
3FF8
0008
0008
0008
1FF8
1000
1000
1FFC
0080
0080
0080
0080
7FFF
0000
ENDCHAR
STARTCHAR U+B85D
ENCODING 47197
SWIDTH 1000 0
DWIDTH 16 0
BBX 16 16 0 -2
BITMAP 
0000
0000
3FF8
0008
1FF8
1000
1FF8
0100
0100
FFFE
0000
3FF8
0008
0008
0008
0008
ENDCHAR
STARTCHAR U+B860
ENCODING 47200
SWIDTH 1000 0
DWIDTH 16 0
BBX 16 16 0 -2
BITMAP 
0000
0000
3FF8
0008
1FF8
1000
1000
1FF8
0100
FFFE
0000
1000
1000
1000
1FFC
0000
ENDCHAR
STARTCHAR U+B864
ENCODING 47204
SWIDTH 1000 0
DWIDTH 16 0
BBX 16 16 0 -2
BITMAP 
0000
1FF8
0008
1FF8
1000
1000
1FF8
0100
FFFE
0000
1FF8
0008
1FF8
1000
1FFC
0000
ENDCHAR
STARTCHAR U+B86C
ENCODING 47212
SWIDTH 1000 0
DWIDTH 16 0
BBX 16 16 0 -2
BITMAP 
0000
0000
1FF8
0008
1FF8
1000
1FF8
0100
FFFE
0000
1FF8
1008
1008
1008
1FF8
1008
ENDCHAR
STARTCHAR U+B86D
ENCODING 47213
SWIDTH 1000 0
DWIDTH 16 0
BBX 16 16 0 -2
BITMAP 
0000
0000
1FF8
0008
1FF8
1000
1FF8
0100
FFFE
0000
1008
1008
1FF8
1008
1FF8
1008
ENDCHAR
STARTCHAR U+B86F
ENCODING 47215
SWIDTH 1000 0
DWIDTH 16 0
BBX 16 16 0 -2
BITMAP 
0000
3FF8
0008
0008
1FF8
1000
1FFC
0080
0080
7FFF
0000
0100
0180
0240
0C30
300C
ENDCHAR
STARTCHAR U+B871
ENCODING 47217
SWIDTH 1000 0
DWIDTH 16 0
BBX 16 16 0 -2
BITMAP 
0000
3FF8
0008
0008
1FF8
1000
1FF8
0100
0100
FFFE
0000
0FC0
3030
2008
3018
1FE0
ENDCHAR
STARTCHAR U+B878
ENCODING 47224
SWIDTH 1000 0
DWIDTH 16 0
BBX 16 16 0 -2
BITMAP 
0000
0008
3FC8
0048
0048
3FC8
2008
2008
3FCF
0408
0408
0428
FFC8
0008
0008
0008
ENDCHAR
STARTCHAR U+B87C
ENCODING 47228
SWIDTH 1000 0
DWIDTH 16 0
BBX 16 16 0 -2
BITMAP 
0000
0008
3F88
0088
3F88
2008
3F88
040F
0428
7FC8
0008
1008
1008
1000
1FF8
0000
ENDCHAR
STARTCHAR U+B88D
ENCODING 47245
SWIDTH 1000 0
DWIDTH 16 0
BBX 16 16 0 -2
BITMAP 
0000
0008
3F88
0088
3F88
2008
3F8F
0408
0468
3B88
07E8
1818
1008
1008
1818
07E0
ENDCHAR
STARTCHAR U+B8A8
ENCODING 47272
SWIDTH 1000 0
DWIDTH 16 0
BBX 16 16 0 -2
BITMAP 
0000
0024
3F24
0124
3F24
2024
203C
3FA4
0424
1FA4
6008
0008
0618
0614
0926
1000
ENDCHAR
STARTCHAR U+B8B0
ENCODING 47280
SWIDTH 1000 0
DWIDTH 16 0
BBX 16 16 0 -2
BITMAP 
0000
0004
1FE4
0024
0024
1FE4
1004
1004
1FE4
0204
0204
0274
7D84
0004
0004
0004
ENDCHAR
STARTCHAR U+B8B4
ENCODING 47284
SWIDTH 1000 0
DWIDTH 16 0
BBX 16 16 0 -2
BITMAP 
0000
0004
1FC4
0044
1FC4
1004
1004
1FC4
0204
0204
7FE4
0804
0804
0800
0FFC
0000
ENDCHAR
STARTCHAR U+B8B8
ENCODING 47288
SWIDTH 1000 0
DWIDTH 16 0
BBX 16 16 0 -2
BITMAP 
0000
0004
1FC4
0044
1FC4
1004
1FC4
0204
0274
7D84
0FFC
0004
0FFC
0800
0FFC
0000
ENDCHAR
STARTCHAR U+B8C0
ENCODING 47296
SWIDTH 1000 0
DWIDTH 16 0
BBX 16 16 0 -2
BITMAP 
0000
0004
1FC4
0044
1FC4
1004
1FC4
0204
0204
7FE4
0000
0FFC
0804
0804
0FFC
0804
ENDCHAR
STARTCHAR U+B8C1
ENCODING 47297
SWIDTH 1000 0
DWIDTH 16 0
BBX 16 16 0 -2
BITMAP 
0000
0004
1FC4
0044
1FC4
1004
1FC4
0204
0234
7FC4
0000
0804
0FFC
0804
0FFC
0804
ENDCHAR
STARTCHAR U+B8C3
ENCODING 47299
SWIDTH 1000 0
DWIDTH 16 0
BBX 16 16 0 -2
BITMAP 
0000
0004
1FC4
0044
1FC4
1004
1FC4
0204
0204
7FE4
0004
0084
00C0
0120
0618
1804
ENDCHAR
STARTCHAR U+B8C5
ENCODING 47301
SWIDTH 1000 0
DWIDTH 16 0
BBX 16 16 0 -2
BITMAP 
0000
0004
1FC4
0044
1FC4
1004
1FC4
0204
0204
7FF4
03F0
0C0C
0804
0804
0C0C
03F0
ENDCHAR
STARTCHAR U+B8CC
ENCODING 47308
SWIDTH 1000 0
DWIDTH 16 0
BBX 16 16 0 -2
BITMAP 
0000
0000
3FF8
0008
0008
0008
1FF8
1000
1000
1FFC
0420
0420
0420
7FFE
0000
0000
ENDCHAR
STARTCHAR U+B8D0
ENCODING 47312
SWIDTH 1000 0
DWIDTH 16 0
BBX 16 16 0 -2
BITMAP 
0000
1FF8
0008
0008
1FF8
1000
1FFC
0420
0420
7FFF
0000
1000
1000
1000
1FFC
0000
ENDCHAR
STARTCHAR U+B8D4
ENCODING 47316
SWIDTH 1000 0
DWIDTH 16 0
BBX 16 16 0 -2
BITMAP 
0000
1FF8
0008
1FF8
1000
1000
1FFC
0420
7FFF
0000
1FF8
0008
1FF8
1000
1FFC
0000
ENDCHAR
STARTCHAR U+B8DD
ENCODING 47325
SWIDTH 1000 0
DWIDTH 16 0
BBX 16 16 0 -2
BITMAP 
0000
0000
1FF8
0008
1FF8
1000
1FFC
0420
7FFF
0000
1008
1008
1FF8
1008
1FF8
1008
ENDCHAR
STARTCHAR U+B8DF
ENCODING 47327
SWIDTH 1000 0
DWIDTH 16 0
BBX 16 16 0 -2
BITMAP 
0000
1FF8
0008
0008
1FF8
1000
1FFC
0420
0420
7FFF
0000
0180
0180
03C0
0420
381C
ENDCHAR
STARTCHAR U+B8E1
ENCODING 47329
SWIDTH 1000 0
DWIDTH 16 0
BBX 16 16 0 -2
BITMAP 
0000
1FF8
0008
0008
1FF8
1000
1FFC
0420
0420
7FFF
0000
07F8
1804
1004
080C
07F0
ENDCHAR
STARTCHAR U+B8E8
ENCODING 47336
SWIDTH 1000 0
DWIDTH 16 0
BBX 16 16 0 -2
BITMAP 
0000
0000
3FF8
0008
1FF8
1000
1000
1FFC
0000
FFFE
0100
0100
0100
0100
0100
0100
ENDCHAR
STARTCHAR U+B8E9
ENCODING 47337
SWIDTH 1000 0
DWIDTH 16 0
BBX 16 16 0 -2
BITMAP 
0000
1FF8
0008
0008
1FF8
1000
1FFC
0000
7FFF
0080
0080
1FF8
0008
0008
0008
0008
ENDCHAR
STARTCHAR U+B8EC
ENCODING 47340
SWIDTH 1000 0
DWIDTH 16 0
BBX 16 16 0 -2
BITMAP 
0000
1FF8
0008
0008
1FF8
1000
1FFC
0000
0000
FFFE
0100
1100
1100
1000
1FFC
0000
ENDCHAR
STARTCHAR U+B8F0
ENCODING 47344
SWIDTH 1000 0
DWIDTH 16 0
BBX 16 16 0 -2
BITMAP 
0000
1FF8
0008
1FF8
1000
1000
1FFC
0000
FFFE
0100
1FF8
0008
1FF8
1000
1FFC
0000
ENDCHAR
STARTCHAR U+B8F8
ENCODING 47352
SWIDTH 1000 0
DWIDTH 16 0
BBX 16 16 0 -2
BITMAP 
0000
0000
1FF8
0008
1FF8
1000
1FFC
0000
FFFE
0100
0100
1FF8
1008
1008
1FF8
1008
ENDCHAR
STARTCHAR U+B8F9
ENCODING 47353
SWIDTH 1000 0
DWIDTH 16 0
BBX 16 16 0 -2
BITMAP 
0000
0000
1FF8
0008
1FF8
1000
1FFC
0000
FFFE
0100
1108
1008
1FF8
1008
1FF8
1008
ENDCHAR
STARTCHAR U+B8FB
ENCODING 47355
SWIDTH 1000 0
DWIDTH 16 0
BBX 16 16 0 -2
BITMAP 
0000
3FF8
0008
1FF8
1000
1000
1FFC
0000
FFFE
0100
0100
0000
0180
03C0
0420
381C
ENDCHAR
STARTCHAR U+B8FD
ENCODING 47357
SWIDTH 1000 0
DWIDTH 16 0
BBX 16 16 0 -2
BITMAP 
0000
1FF8
0008
1FF8
1000
1000
1FFC
0000
7FFF
0080
0FF8
300C
2004
2004
1C38
03C0
ENDCHAR
STARTCHAR U+B904
ENCODING 47364
SWIDTH 1000 0
DWIDTH 16 0
BBX 16 16 0 -2
BITMAP 
0000
0004
3FC4
0044
1FC4
1004
1004
1FE4
0004
001C
3FE4
023C
0204
0204
0204
0004
ENDCHAR
STARTCHAR U+B918
ENCODING 47384
SWIDTH 1000 0
DWIDTH 16 0
BBX 16 16 0 -2
BITMAP 
0000
0004
3FC4
3FC4
2004
3F84
0004
0004
7FE4
023C
0204
0210
0618
061C
0926
1040
ENDCHAR
STARTCHAR U+B920
ENCODING 47392
SWIDTH 1000 0
DWIDTH 16 0
BBX 16 16 0 -2
BITMAP 
0000
0014
0014
3F94
0094
3F94
2014
3F14
0014
0014
7FD4
0414
04F4
0414
0414
0014
ENDCHAR
STARTCHAR U+B93C
ENCODING 47420
SWIDTH 1000 0
DWIDTH 16 0
BBX 16 16 0 -2
BITMAP 
0000
0004
1FC4
0044
1FC4
1004
1004
1FE4
0004
0004
3FF4
0204
0204
0204
0204
0204
ENDCHAR
STARTCHAR U+B93D
ENCODING 47421
SWIDTH 1000 0
DWIDTH 16 0
BBX 16 16 0 -2
BITMAP 
0000
0004
1FC4
1FC4
1004
1FC4
0004
3FE4
0204
0204
0000
0FFC
0004
0004
0004
0004
ENDCHAR
STARTCHAR U+B940
ENCODING 47424
SWIDTH 1000 0
DWIDTH 16 0
BBX 16 16 0 -2
BITMAP 
0000
0004
1FC4
0044
1FC4
1004
1FC4
0004
7FF4
0204
0204
0004
0804
0800
0800
0FFC
ENDCHAR
STARTCHAR U+B944
ENCODING 47428
SWIDTH 1000 0
DWIDTH 16 0
BBX 16 16 0 -2
BITMAP 
0000
0004
1FC4
1FC4
1004
1FC4
0004
7FF4
0204
0004
0FFC
0004
0FFC
0800
0FFC
0000
ENDCHAR
STARTCHAR U+B94C
ENCODING 47436
SWIDTH 1000 0
DWIDTH 16 0
BBX 16 16 0 -2
BITMAP 
0000
0004
1FC4
1FC4
1004
1FC4
0004
7FF4
0204
0204
0000
0FFC
0804
0804
0FFC
0804
ENDCHAR
STARTCHAR U+B94F
ENCODING 47439
SWIDTH 1000 0
DWIDTH 16 0
BBX 16 16 0 -2
BITMAP 
0000
0004
1FC4
0044
1FC4
1004
1FC4
0004
7FE4
0204
0204
0244
00C0
0130
0208
0C04
ENDCHAR
STARTCHAR U+B951
ENCODING 47441
SWIDTH 1000 0
DWIDTH 16 0
BBX 16 16 0 -2
BITMAP 
0000
0004
1FC4
1FC4
1004
1FC4
0004
3FE4
0204
0204
03F0
0C0C
0804
0804
0C0C
03F0
ENDCHAR
STARTCHAR U+B958
ENCODING 47448
SWIDTH 1000 0
DWIDTH 16 0
BBX 16 16 0 -2
BITMAP 
0000
0000
3FF8
0008
1FF8
1000
1000
1FFC
0000
7FFE
0420
0420
0420
0420
0420
0420
ENDCHAR
STARTCHAR U+B959
ENCODING 47449
SWIDTH 1000 0
DWIDTH 16 0
BBX 16 16 0 -2
BITMAP 
0000
0000
1FF8
0008
1FF8
1000
1FFC
0000
7FFE
0420
0420
1FF8
0008
0008
0008
0008
ENDCHAR
STARTCHAR U+B95C
ENCODING 47452
SWIDTH 1000 0
DWIDTH 16 0
BBX 16 16 0 -2
BITMAP 
0000
0000
3FF8
0008
1FF8
1000
1FFC
0000
FFFE
0420
0420
1420
1000
1000
1FFC
0000
ENDCHAR
STARTCHAR U+B960
ENCODING 47456
SWIDTH 1000 0
DWIDTH 16 0
BBX 16 16 0 -2
BITMAP 
0000
1FF8
0008
1FF8
1000
1000
1FFC
0000
7FFE
0420
1FF8
0008
1FF8
1000
1FFC
0000
ENDCHAR
STARTCHAR U+B968
ENCODING 47464
SWIDTH 1000 0
DWIDTH 16 0
BBX 16 16 0 -2
BITMAP 
0000
3FF8
0008
0008
1FF8
1000
1FFC
0000
7FFE
0420
1FF8
1008
1008
1008
1FF8
1008
ENDCHAR
STARTCHAR U+B969
ENCODING 47465
SWIDTH 1000 0
DWIDTH 16 0
BBX 16 16 0 -2
BITMAP 
0000
0000
1FF8
0008
1FF8
1000
1FFC
0000
7FFE
0420
1428
1008
1FF8
1008
1FF8
1008
ENDCHAR
STARTCHAR U+B96B
ENCODING 47467
SWIDTH 1000 0
DWIDTH 16 0
BBX 16 16 0 -2
BITMAP 
0000
3FF8
0008
1FF8
1000
1FFC
0000
0000
7FFE
0420
0420
04A0
0180
0340
0430
180C
ENDCHAR
STARTCHAR U+B96D
ENCODING 47469
SWIDTH 1000 0
DWIDTH 16 0
BBX 16 16 0 -2
BITMAP 
0000
3FF8
0008
1FF8
1000
1000
1FFC
0000
7FFE
0420
0420
1FF8
2004
2004
300C
0FF0
ENDCHAR
STARTCHAR U+B974
ENCODING 47476
SWIDTH 1000 0
DWIDTH 16 0
BBX 16 16 0 -2
BITMAP 
0000
0000
0000
3FF8
0008
0008
1FF8
1000
1000
1FFC
0000
0000
0000
7FFE
0000
0000
ENDCHAR
STARTCHAR U+B975
ENCODING 47477
SWIDTH 1000 0
DWIDTH 16 0
BBX 16 16 0 -2
BITMAP 
0000
0000
1FF8
0008
1FF8
1000
1FFC
0000
7FFE
0000
3FF8
0008
0008
0008
0008
0008
ENDCHAR
STARTCHAR U+B978
ENCODING 47480
SWIDTH 1000 0
DWIDTH 16 0
BBX 16 16 0 -2
BITMAP 
0000
0000
1FF8
0008
1FF8
1000
1000
1FFC
0000
7FFE
0000
1000
1000
1000
1FFC
0000
ENDCHAR
STARTCHAR U+B97C
ENCODING 47484
SWIDTH 1000 0
DWIDTH 16 0
BBX 16 16 0 -2
BITMAP 
0000
0000
1FF8
0008
1FF8
1000
1FFC
0000
7FFE
0000
1FF8
0008
1FF8
1000
1FFC
0000
ENDCHAR
STARTCHAR U+B984
ENCODING 47492
SWIDTH 1000 0
DWIDTH 16 0
BBX 16 16 0 -2
BITMAP 
0000
0000
1FF8
0008
1FF8
1000
1FFC
0000
7FFE
0000
1FF8
1008
1008
1008
1FF8
1008
ENDCHAR
STARTCHAR U+B985
ENCODING 47493
SWIDTH 1000 0
DWIDTH 16 0
BBX 16 16 0 -2
BITMAP 
0000
0000
1FF8
0008
1FF8
1000
1FFC
0000
7FFE
0000
1008
1008
1FF8
1008
1FF8
1008
ENDCHAR
STARTCHAR U+B987
ENCODING 47495
SWIDTH 1000 0
DWIDTH 16 0
BBX 16 16 0 -2
BITMAP 
0000
0000
1FF8
0008
1FF8
1000
1FFC
0000
0000
7FFE
0000
0180
0180
0240
0C30
300C
ENDCHAR
STARTCHAR U+B989
ENCODING 47497
SWIDTH 1000 0
DWIDTH 16 0
BBX 16 16 0 -2
BITMAP 
0000
0000
3FF8
0008
1FF8
1000
1FFC
0000
7FFE
0000
07C0
3FF8
2008
2008
1830
0000
ENDCHAR
STARTCHAR U+B98A
ENCODING 47498
SWIDTH 1000 0
DWIDTH 16 0
BBX 16 16 0 -2
BITMAP 
0000
3FF8
0008
1FF8
1000
1000
1FFC
0000
7FFE
0000
0000
1FF8
0180
0240
3C38
0000
ENDCHAR
STARTCHAR U+B98D
ENCODING 47501
SWIDTH 1000 0
DWIDTH 16 0
BBX 16 16 0 -2
BITMAP 
0000
1FF8
0008
1FF8
1000
1000
1FFC
0000
7FFE
0000
1FF8
1000
1FF8
1000
1FFC
0000
ENDCHAR
STARTCHAR U+B98E
ENCODING 47502
SWIDTH 1000 0
DWIDTH 16 0
BBX 16 16 0 -2
BITMAP 
0000
3FF8
0008
0008
1FF8
1000
1FFC
0000
7FFE
0000
0000
1FF8
0420
0420
0420
3FFC
ENDCHAR
STARTCHAR U+B9AC
ENCODING 47532
SWIDTH 1000 0
DWIDTH 16 0
BBX 16 16 0 -2
BITMAP 
0000
0004
3F84
0084
0084
0084
0084
3F84
2004
2004
2004
2004
3FC4
0004
0004
0004
ENDCHAR
STARTCHAR U+B9AD
ENCODING 47533
SWIDTH 1000 0
DWIDTH 16 0
BBX 16 16 0 -2
BITMAP 
0000
0004
3F84
0084
0084
3F84
2004
2004
2FE4
1004
0000
0FFC
0004
0004
0004
0004
ENDCHAR
STARTCHAR U+B9B0
ENCODING 47536
SWIDTH 1000 0
DWIDTH 16 0
BBX 16 16 0 -2
BITMAP 
0000
0004
3F84
0084
0084
3F84
2004
2004
2064
3F84
0004
0804
0804
0800
0FFC
0000
ENDCHAR
STARTCHAR U+B9B4
ENCODING 47540
SWIDTH 1000 0
DWIDTH 16 0
BBX 16 16 0 -2
BITMAP 
0000
0004
3F84
0084
3F84
2004
2004
3FC4
0004
0000
0FFC
0004
0FFC
0800
0FFC
0000
ENDCHAR
STARTCHAR U+B9BC
ENCODING 47548
SWIDTH 1000 0
DWIDTH 16 0
BBX 16 16 0 -2
BITMAP 
0000
0004
3F84
0084
0084
3F84
2004
2004
23E4
1C04
0000
0FFC
0804
0804
0FFC
0804
ENDCHAR
STARTCHAR U+B9BD
ENCODING 47549
SWIDTH 1000 0
DWIDTH 16 0
BBX 16 16 0 -2
BITMAP 
0000
0004
3F84
0084
0084
3F84
2004
2004
3FE4
0000
0804
0804
0FFC
0804
0FFC
0804
ENDCHAR
STARTCHAR U+B9BF
ENCODING 47551
SWIDTH 1000 0
DWIDTH 16 0
BBX 16 16 0 -2
BITMAP 
0000
0008
7F08
0108
0108
3F08
2008
2008
20E8
3F08
0008
0088
0140
0220
0418
1804
ENDCHAR
STARTCHAR U+B9C1
ENCODING 47553
SWIDTH 1000 0
DWIDTH 16 0
BBX 16 16 0 -2
BITMAP 
0000
0004
3F84
0084
0084
3F84
2004
2004
20E4
3F04
0000
07F8
180C
1004
180C
0FF8
ENDCHAR
STARTCHAR U+B9C8
ENCODING 47560
SWIDTH 1000 0
DWIDTH 16 0
BBX 16 16 0 -2
BITMAP 
0000
0010
0010
7F10
4110
4110
4110
4110
411C
4110
4110
7F10
0010
0010
0010
0010
ENDCHAR
STARTCHAR U+B9C9
ENCODING 47561
SWIDTH 1000 0
DWIDTH 16 0
BBX 16 16 0 -2
BITMAP 
0000
0010
7F10
4110
4110
411E
4110
7F10
0010
0000
3FF0
0010
0010
0010
0010
0010
ENDCHAR
STARTCHAR U+B9CC
ENCODING 47564
SWIDTH 1000 0
DWIDTH 16 0
BBX 16 16 0 -2
BITMAP 
0000
0010
7F10
4110
4110
4110
411E
4110
7F10
0010
0010
2010
2000
2000
3FF0
0000
ENDCHAR
STARTCHAR U+B9CE
ENCODING 47566
SWIDTH 1000 0
DWIDTH 16 0
BBX 16 16 0 -2
BITMAP 
0000
0010
7F10
4110
4110
411E
4110
7F10
0000
20E0
23F8
2000
20F0
2108
3D08
00F0
ENDCHAR
STARTCHAR U+B9CF
ENCODING 47567
SWIDTH 1000 0
DWIDTH 16 0
BBX 16 16 0 -2
BITMAP 
0000
0010
7F10
4110
4110
411E
4110
7F10
0010
0000
3FF0
2000
2000
2000
3FF0
0000
ENDCHAR
STARTCHAR U+B9D0
ENCODING 47568
SWIDTH 1000 0
DWIDTH 16 0
BBX 16 16 0 -2
BITMAP 
0000
0010
7F10
4110
4110
411E
4110
7F10
0010
0000
3FF0
0010
3FF0
2000
3FF0
0000
ENDCHAR
STARTCHAR U+B9D1
ENCODING 47569
SWIDTH 1000 0
DWIDTH 16 0
BBX 16 16 0 -2
BITMAP 
0000
0010
7F10
4110
4110
411E
4110
7F10
0010
3FF0
0210
0210
3E10
2010
2010
3E10
ENDCHAR
STARTCHAR U+B9D2
ENCODING 47570
SWIDTH 1000 0
DWIDTH 16 0
BBX 16 16 0 -2
BITMAP 
0000
0010
7F10
4110
4110
411E
4110
7F10
0010
0000
3EF0
0290
3E90
2090
3EF0
0090
ENDCHAR
STARTCHAR U+B9D8
ENCODING 47576
SWIDTH 1000 0
DWIDTH 16 0
BBX 16 16 0 -2
BITMAP 
0000
0010
7F10
4110
4110
411E
4110
7F10
0010
0010
3FF0
2010
2010
2010
3FF0
2010
ENDCHAR
STARTCHAR U+B9D9
ENCODING 47577
SWIDTH 1000 0
DWIDTH 16 0
BBX 16 16 0 -2
BITMAP 
0000
0010
7F10
4110
4110
411E
4110
7F10
0010
0000
2010
2010
3FF0
2010
3FF0
2010
ENDCHAR
STARTCHAR U+B9DB
ENCODING 47579
SWIDTH 1000 0
DWIDTH 16 0
BBX 16 16 0 -2
BITMAP 
0000
0010
7F10
4110
4110
4110
411E
4110
7F10
0010
0090
0180
0180
0240
0C30
1008
ENDCHAR
STARTCHAR U+B9DD
ENCODING 47581
SWIDTH 1000 0
DWIDTH 16 0
BBX 16 16 0 -2
BITMAP 
0000
0010
7F10
4110
4110
4110
411E
4110
7F10
0010
0FF0
3010
2008
2008
3018
0FE0
ENDCHAR
STARTCHAR U+B9DE
ENCODING 47582
SWIDTH 1000 0
DWIDTH 16 0
BBX 16 16 0 -2
BITMAP 
0000
0010
7F10
4110
4110
411E
4110
7F10
0010
0000
1FF0
0100
0380
02C0
0C60
3018
ENDCHAR
STARTCHAR U+B9E1
ENCODING 47585
SWIDTH 1000 0
DWIDTH 16 0
BBX 16 16 0 -2
BITMAP 
0000
0010
7F10
4110
4110
411C
4110
7F10
0010
0000
3FF0
2000
3FF0
2000
3FF0
0000
ENDCHAR
STARTCHAR U+B9E3
ENCODING 47587
SWIDTH 1000 0
DWIDTH 16 0
BBX 16 16 0 -2
BITMAP 
0000
0010
7F10
4110
4110
411E
4110
7F10
0010
07C0
3FF8
0000
0FE0
3010
3030
1FE0
ENDCHAR
STARTCHAR U+B9E4
ENCODING 47588
SWIDTH 1000 0
DWIDTH 16 0
BBX 16 16 0 -2
BITMAP 
0000
0024
0024
3E24
2224
2224
2224
2224
223C
2224
2224
3E24
0024
0024
0024
0004
ENDCHAR
STARTCHAR U+B9E5
ENCODING 47589
SWIDTH 1000 0
DWIDTH 16 0
BBX 16 16 0 -2
BITMAP 
0000
0024
3E24
2224
2224
2224
223C
3E24
0024
0024
1FFC
0004
0004
0004
0004
0004
ENDCHAR
STARTCHAR U+B9E8
ENCODING 47592
SWIDTH 1000 0
DWIDTH 16 0
BBX 16 16 0 -2
BITMAP 
0000
0004
3E24
2224
2224
2224
223C
2224
3E24
0024
0024
1024
1000
1000
1FFC
0000
ENDCHAR
STARTCHAR U+B9EC
ENCODING 47596
SWIDTH 1000 0
DWIDTH 16 0
BBX 16 16 0 -2
BITMAP 
0000
0004
3E24
2224
2224
223C
2224
3E24
0024
0000
1FFC
0004
1FFC
1000
1FFC
0000
ENDCHAR
STARTCHAR U+B9F4
ENCODING 47604
SWIDTH 1000 0
DWIDTH 16 0
BBX 16 16 0 -2
BITMAP 
0000
0004
3E24
2224
2224
223C
2224
3E24
0024
0000
1FFC
1004
1004
1004
1FFC
1004
ENDCHAR
STARTCHAR U+B9F5
ENCODING 47605
SWIDTH 1000 0
DWIDTH 16 0
BBX 16 16 0 -2
BITMAP 
0000
0024
3E24
2224
2224
223C
2224
3E24
0024
0000
1004
1004
1FFC
1004
1FFC
1004
ENDCHAR
STARTCHAR U+B9F7
ENCODING 47607
SWIDTH 1000 0
DWIDTH 16 0
BBX 16 16 0 -2
BITMAP 
0000
0044
3E44
2244
2244
2244
227C
2244
3E44
0044
0004
0080
00C0
0120
0618
1804
ENDCHAR
STARTCHAR U+B9F8
ENCODING 47608
SWIDTH 1000 0
DWIDTH 16 0
BBX 16 16 0 -2
BITMAP 
0000
0048
7E48
4248
4248
4248
4278
4248
7C48
0048
0410
0C10
0C30
1A28
32C4
6000
ENDCHAR
STARTCHAR U+B9F9
ENCODING 47609
SWIDTH 1000 0
DWIDTH 16 0
BBX 16 16 0 -2
BITMAP 
0000
0004
3E24
2224
2224
2224
223C
2224
3E24
0024
07F4
0808
1004
1004
080C
07F0
ENDCHAR
STARTCHAR U+B9FA
ENCODING 47610
SWIDTH 1000 0
DWIDTH 16 0
BBX 16 16 0 -2
BITMAP 
0000
0004
3E44
2244
2244
227C
2244
3E44
0044
0000
1FFC
0080
0140
0260
0410
180C
ENDCHAR
STARTCHAR U+BA00
ENCODING 47616
SWIDTH 1000 0
DWIDTH 16 0
BBX 16 16 0 -2
BITMAP 
0000
0010
0010
7F10
4110
411E
4110
4110
4110
4110
411E
7F10
0010
0010
0010
0010
ENDCHAR
STARTCHAR U+BA01
ENCODING 47617
SWIDTH 1000 0
DWIDTH 16 0
BBX 16 16 0 -2
BITMAP 
0000
0010
7F10
4110
411E
4110
4110
7F1E
0010
0010
0000
3FF0
0010
0010
0010
0010
ENDCHAR
STARTCHAR U+BA08
ENCODING 47624
SWIDTH 1000 0
DWIDTH 16 0
BBX 16 16 0 -2
BITMAP 
0000
0010
7F10
4110
411E
4110
4110
7F1E
0010
0010
3FF0
0010
3FF0
2000
3FF0
0000
ENDCHAR
STARTCHAR U+BA15
ENCODING 47637
SWIDTH 1000 0
DWIDTH 16 0
BBX 16 16 0 -2
BITMAP 
0000
0010
7F10
4110
411E
4110
4110
4110
7F1E
0010
0FF0
3018
2008
2008
1010
0FE0
ENDCHAR
STARTCHAR U+BA38
ENCODING 47672
SWIDTH 1000 0
DWIDTH 16 0
BBX 16 16 0 -2
BITMAP 
0000
0004
0004
3F84
2084
2084
2084
20BC
2084
2084
2084
3F84
0004
0004
0004
0004
ENDCHAR
STARTCHAR U+BA39
ENCODING 47673
SWIDTH 1000 0
DWIDTH 16 0
BBX 16 16 0 -2
BITMAP 
0000
0004
3F84
2084
2084
20BC
2084
3F84
0004
0004
1FFC
0004
0004
0004
0004
0004
ENDCHAR
STARTCHAR U+BA3C
ENCODING 47676
SWIDTH 1000 0
DWIDTH 16 0
BBX 16 16 0 -2
BITMAP 
0000
0004
3F84
2084
2084
20BC
2084
2084
3F84
0004
0004
1004
1000
1000
1FFC
0000
ENDCHAR
STARTCHAR U+BA40
ENCODING 47680
SWIDTH 1000 0
DWIDTH 16 0
BBX 16 16 0 -2
BITMAP 
0000
0004
3F84
2084
2084
20BC
2084
3F84
0004
0004
0FFC
0004
1FFC
1000
1FFC
0000
ENDCHAR
STARTCHAR U+BA42
ENCODING 47682
SWIDTH 1000 0
DWIDTH 16 0
BBX 16 16 0 -2
BITMAP 
0000
0004
3F84
2084
2084
20BC
2084
3F84
0004
1F7C
0144
0144
1F44
1044
1F7C
0044
ENDCHAR
STARTCHAR U+BA48
ENCODING 47688
SWIDTH 1000 0
DWIDTH 16 0
BBX 16 16 0 -2
BITMAP 
0000
0004
3F84
2084
2084
20BC
2084
3F84
0004
0004
0FFC
0804
0804
0804
0FFC
0804
ENDCHAR
STARTCHAR U+BA49
ENCODING 47689
SWIDTH 1000 0
DWIDTH 16 0
BBX 16 16 0 -2
BITMAP 
0000
0004
3F84
2084
20BC
2084
2084
3F84
0004
0000
1004
1004
1FFC
1004
1FFC
1004
ENDCHAR
STARTCHAR U+BA4B
ENCODING 47691
SWIDTH 1000 0
DWIDTH 16 0
BBX 16 16 0 -2
BITMAP 
0000
0008
3F08
2108
2108
2178
2108
2108
3F08
0008
0008
0080
00C0
0120
0618
1804
ENDCHAR
STARTCHAR U+BA4D
ENCODING 47693
SWIDTH 1000 0
DWIDTH 16 0
BBX 16 16 0 -2
BITMAP 
0000
0004
3F84
2084
2084
20BC
2084
2084
3F84
0004
0004
07F8
1804
1004
080C
07F0
ENDCHAR
STARTCHAR U+BA4E
ENCODING 47694
SWIDTH 1000 0
DWIDTH 16 0
BBX 16 16 0 -2
BITMAP 
0000
0004
3F84
2084
2084
20BC
2084
3F84
0004
0004
1FF8
0080
0180
0340
0630
180C
ENDCHAR
STARTCHAR U+BA53
ENCODING 47699
SWIDTH 1000 0
DWIDTH 16 0
BBX 16 16 0 -2
BITMAP 
0000
0004
3F84
2084
2084
20BC
2084
3F84
0004
03E0
1FFC
0000
0FF8
1004
180C
07F0
ENDCHAR
STARTCHAR U+BA54
ENCODING 47700
SWIDTH 1000 0
DWIDTH 16 0
BBX 16 16 0 -2
BITMAP 
0000
0004
0024
3E24
2224
2224
2224
23E4
2224
2224
2224
3E24
0024
0024
0024
0004
ENDCHAR
STARTCHAR U+BA55
ENCODING 47701
SWIDTH 1000 0
DWIDTH 16 0
BBX 16 16 0 -2
BITMAP 
0000
0024
3E24
2224
2224
23E4
2224
3E24
0024
0024
1FFC
0004
0004
0004
0004
0004
ENDCHAR
STARTCHAR U+BA58
ENCODING 47704
SWIDTH 1000 0
DWIDTH 16 0
BBX 16 16 0 -2
BITMAP 
0000
0024
3E24
2224
2224
23E4
2224
2224
3E24
0024
0024
1024
1000
1000
1FFC
0000
ENDCHAR
STARTCHAR U+BA5C
ENCODING 47708
SWIDTH 1000 0
DWIDTH 16 0
BBX 16 16 0 -2
BITMAP 
0000
0004
3E24
2224
2224
23E4
2224
3E24
0024
0000
1FFC
0004
1FFC
1000
1FFC
0000
ENDCHAR
STARTCHAR U+BA64
ENCODING 47716
SWIDTH 1000 0
DWIDTH 16 0
BBX 16 16 0 -2
BITMAP 
0000
0024
3E24
2224
2224
23E4
2224
3E24
0024
0024
1FFC
1004
1004
1004
1FFC
1004
ENDCHAR
STARTCHAR U+BA65
ENCODING 47717
SWIDTH 1000 0
DWIDTH 16 0
BBX 16 16 0 -2
BITMAP 
0000
0024
3E24
2224
2224
23E4
2224
3E24
0024
0000
1004
1004
1FFC
1004
1FFC
1004
ENDCHAR
STARTCHAR U+BA67
ENCODING 47719
SWIDTH 1000 0
DWIDTH 16 0
BBX 16 16 0 -2
BITMAP 
0000
0004
3E24
2224
2224
23E4
2224
2224
3E24
0004
0084
0080
00C0
0120
0618
1804
ENDCHAR
STARTCHAR U+BA68
ENCODING 47720
SWIDTH 1000 0
DWIDTH 16 0
BBX 16 16 0 -2
BITMAP 
0000
0008
7E48
4248
4248
43C8
4248
4248
7E48
0008
0410
0410
0630
0A28
1144
6080
ENDCHAR
STARTCHAR U+BA69
ENCODING 47721
SWIDTH 1000 0
DWIDTH 16 0
BBX 16 16 0 -2
BITMAP 
0000
0004
3E24
2224
2224
23E4
2224
2224
3E24
0024
07F0
0808
1004
1004
180C
07F0
ENDCHAR
STARTCHAR U+BA70
ENCODING 47728
SWIDTH 1000 0
DWIDTH 16 0
BBX 16 16 0 -2
BITMAP 
0000
0004
0004
3F84
2084
20BC
2084
2084
2084
20BC
2084
3F84
0004
0004
0004
0004
ENDCHAR
STARTCHAR U+BA71
ENCODING 47729
SWIDTH 1000 0
DWIDTH 16 0
BBX 16 16 0 -2
BITMAP 
0000
0004
3F84
2084
20BC
2084
20BC
3F84
0004
0000
1FFC
0004
0004
0004
0004
0004
ENDCHAR
STARTCHAR U+BA74
ENCODING 47732
SWIDTH 1000 0
DWIDTH 16 0
BBX 16 16 0 -2
BITMAP 
0000
0004
3F84
2084
20BC
2084
2084
20BC
3F84
0004
0004
1004
1000
1000
1FFC
0000
ENDCHAR
STARTCHAR U+BA78
ENCODING 47736
SWIDTH 1000 0
DWIDTH 16 0
BBX 16 16 0 -2
BITMAP 
0000
0004
3F84
20BC
2084
2084
20BC
3F84
0004
0000
1FFC
0004
1FFC
1000
1FFC
0000
ENDCHAR
STARTCHAR U+BA83
ENCODING 47747
SWIDTH 1000 0
DWIDTH 16 0
BBX 16 16 0 -2
BITMAP 
0000
0008
3F08
2108
2178
2108
2108
2178
3F08
0008
0088
0080
00C0
0120
0618
1804
ENDCHAR
STARTCHAR U+BA84
ENCODING 47748
SWIDTH 1000 0
DWIDTH 16 0
BBX 16 16 0 -2
BITMAP 
0000
0008
7F08
4108
4178
4108
4108
7F78
0008
0008
0010
0410
0430
0A28
1044
2080
ENDCHAR
STARTCHAR U+BA85
ENCODING 47749
SWIDTH 1000 0
DWIDTH 16 0
BBX 16 16 0 -2
BITMAP 
0000
0004
3F84
2084
20BC
2084
2084
20BC
3F84
0004
0000
07F8
1804
1004
080C
07F0
ENDCHAR
STARTCHAR U+BA87
ENCODING 47751
SWIDTH 1000 0
DWIDTH 16 0
BBX 16 16 0 -2
BITMAP 
0000
0004
3F84
20BC
2084
2084
20BC
3F84
0004
03E0
0000
0FFC
00C0
00C0
0330
1C0C
ENDCHAR
STARTCHAR U+BA8C
ENCODING 47756
SWIDTH 1000 0
DWIDTH 16 0
BBX 16 16 0 -2
BITMAP 
0000
0004
0024
3E24
2224
23E4
2224
2224
23E4
2224
2224
3E24
0024
0024
0024
0004
ENDCHAR
STARTCHAR U+BAA8
ENCODING 47784
SWIDTH 1000 0
DWIDTH 16 0
BBX 16 16 0 -2
BITMAP 
0000
0000
0000
1FF8
1008
1008
1008
1008
1FF8
0100
0100
0100
0100
FFFE
0000
0000
ENDCHAR
STARTCHAR U+BAA9
ENCODING 47785
SWIDTH 1000 0
DWIDTH 16 0
BBX 16 16 0 -2
BITMAP 
0000
0000
1FF8
1008
1008
1FF8
0080
0080
7FFF
0000
3FF8
0008
0008
0008
0008
0008
ENDCHAR
STARTCHAR U+BAAB
ENCODING 47787
SWIDTH 1000 0
DWIDTH 16 0
BBX 16 16 0 -2
BITMAP 
0000
0000
1FF8
1008
1008
1FF8
0100
0100
FFFE
0000
3E20
0220
0220
0250
0288
0200
ENDCHAR
STARTCHAR U+BAAC
ENCODING 47788
SWIDTH 1000 0
DWIDTH 16 0
BBX 16 16 0 -2
BITMAP 
0000
0000
1FF8
1008
1008
1008
1FF8
0100
0100
FFFE
1000
1000
1000
1000
1FFC
0000
ENDCHAR
STARTCHAR U+BAB0
ENCODING 47792
SWIDTH 1000 0
DWIDTH 16 0
BBX 16 16 0 -2
BITMAP 
0000
1FF8
1008
1008
1008
1FF8
0100
0100
FFFE
0000
1FF8
0008
1FF8
1000
1FFC
0000
ENDCHAR
STARTCHAR U+BAB2
ENCODING 47794
SWIDTH 1000 0
DWIDTH 16 0
BBX 16 16 0 -2
BITMAP 
0000
0000
1FF8
1008
1008
1FF8
0100
0100
FFFE
0000
1EF8
0288
1E88
1088
1FF8
0088
ENDCHAR
STARTCHAR U+BAB8
ENCODING 47800
SWIDTH 1000 0
DWIDTH 16 0
BBX 16 16 0 -2
BITMAP 
0000
0000
1FF8
1008
1008
1FF8
0080
0080
7FFF
0000
0000
1FF8
1008
1008
1FF8
1008
ENDCHAR
STARTCHAR U+BAB9
ENCODING 47801
SWIDTH 1000 0
DWIDTH 16 0
BBX 16 16 0 -2
BITMAP 
0000
1FF8
1008
1008
1008
1FF8
0100
0100
FFFE
0000
1008
1008
1FF8
1008
1FF8
1008
ENDCHAR
STARTCHAR U+BABB
ENCODING 47803
SWIDTH 1000 0
DWIDTH 16 0
BBX 16 16 0 -2
BITMAP 
0000
0000
1FF8
1008
1008
1008
1FF8
0100
0100
FFFE
0000
0180
0240
0420
381C
0000
ENDCHAR
STARTCHAR U+BABD
ENCODING 47805
SWIDTH 1000 0
DWIDTH 16 0
BBX 16 16 0 -2
BITMAP 
0000
1FF8
1008
1008
1008
1FF8
0100
0100
FFFE
0000
0380
1C70
2008
2008
1830
07C0
ENDCHAR
STARTCHAR U+BAC4
ENCODING 47812
SWIDTH 1000 0
DWIDTH 16 0
BBX 16 16 0 -2
BITMAP 
0000
0008
3F88
2088
2088
2088
2088
3F88
040F
0408
0408
04E8
7B08
0008
0008
0008
ENDCHAR
STARTCHAR U+BAC8
ENCODING 47816
SWIDTH 1000 0
DWIDTH 16 0
BBX 16 16 0 -2
BITMAP 
0000
0008
3F88
2088
2088
2088
3F88
040F
0408
FFE8
0008
1008
1008
1000
1FF8
0000
ENDCHAR
STARTCHAR U+BAD8
ENCODING 47832
SWIDTH 1000 0
DWIDTH 16 0
BBX 16 16 0 -2
BITMAP 
0000
0008
3F88
2088
2088
2088
3F8E
0408
0408
FFC8
0000
0410
0410
0A28
114C
2084
ENDCHAR
STARTCHAR U+BAD9
ENCODING 47833
SWIDTH 1000 0
DWIDTH 16 0
BBX 16 16 0 -2
BITMAP 
0000
0008
3F88
2088
2088
2088
3F8F
0408
FFE8
0008
07E8
0818
1008
1008
1818
07E0
ENDCHAR
STARTCHAR U+BAFC
ENCODING 47868
SWIDTH 1000 0
DWIDTH 16 0
BBX 16 16 0 -2
BITMAP 
0000
0004
1FC4
1044
1044
1044
1044
1FC4
0204
0204
0204
7FF4
0004
0004
0004
0004
ENDCHAR
STARTCHAR U+BB00
ENCODING 47872
SWIDTH 1000 0
DWIDTH 16 0
BBX 16 16 0 -2
BITMAP 
0000
0004
1FC4
1044
1044
1044
1FC4
0204
0204
3FF4
0004
0804
0800
0800
0FFC
0000
ENDCHAR
STARTCHAR U+BB04
ENCODING 47876
SWIDTH 1000 0
DWIDTH 16 0
BBX 16 16 0 -2
BITMAP 
0000
0004
1FC4
1044
1044
1FC4
0204
0204
7FF4
0000
0FFC
0004
0FFC
0800
0800
0FFC
ENDCHAR
STARTCHAR U+BB0D
ENCODING 47885
SWIDTH 1000 0
DWIDTH 16 0
BBX 16 16 0 -2
BITMAP 
0000
0004
1FC4
1044
1044
1FC4
0204
0204
3FF4
0000
0804
0804
0FFC
0804
0FFC
0804
ENDCHAR
STARTCHAR U+BB0F
ENCODING 47887
SWIDTH 1000 0
DWIDTH 16 0
BBX 16 16 0 -2
BITMAP 
0000
0004
1FC4
1044
1044
1044
1FC4
0204
0204
7FE4
0004
0040
00C0
01B0
0208
0C06
ENDCHAR
STARTCHAR U+BB11
ENCODING 47889
SWIDTH 1000 0
DWIDTH 16 0
BBX 16 16 0 -2
BITMAP 
0000
0004
1FC4
1044
1044
1044
1FC4
0204
0204
3FE4
03F0
0C0C
0804
0804
0408
03F0
ENDCHAR
STARTCHAR U+BB18
ENCODING 47896
SWIDTH 1000 0
DWIDTH 16 0
BBX 16 16 0 -2
BITMAP 
0000
0000
0000
1FF8
1008
1008
1008
1008
1FF8
0420
0420
0420
0420
7FFE
0000
0000
ENDCHAR
STARTCHAR U+BB1C
ENCODING 47900
SWIDTH 1000 0
DWIDTH 16 0
BBX 16 16 0 -2
BITMAP 
0000
0000
1FF8
1008
1008
1008
1FF8
0420
0420
7FFE
0000
1000
1000
1000
1FFC
0000
ENDCHAR
STARTCHAR U+BB20
ENCODING 47904
SWIDTH 1000 0
DWIDTH 16 0
BBX 16 16 0 -2
BITMAP 
0000
1FF8
1008
1008
1008
1FF8
0420
0420
FFFF
0000
1FF8
0008
1FF8
1000
1FFC
0000
ENDCHAR
STARTCHAR U+BB29
ENCODING 47913
SWIDTH 1000 0
DWIDTH 16 0
BBX 16 16 0 -2
BITMAP 
0000
0000
1FF8
1008
1008
1FF8
0420
0420
7FFE
0000
1008
1008
1FF8
1008
1FF8
1008
ENDCHAR
STARTCHAR U+BB2B
ENCODING 47915
SWIDTH 1000 0
DWIDTH 16 0
BBX 16 16 0 -2
BITMAP 
0000
1FF8
1008
1008
1008
1FF8
0000
0420
0420
7FFE
0000
0080
0180
0240
0430
180C
ENDCHAR
STARTCHAR U+BB34
ENCODING 47924
SWIDTH 1000 0
DWIDTH 16 0
BBX 16 16 0 -2
BITMAP 
0000
0000
1FF8
1008
1008
1008
1FF8
0000
0000
FFFE
0100
0100
0100
0100
0100
0100
ENDCHAR
STARTCHAR U+BB35
ENCODING 47925
SWIDTH 1000 0
DWIDTH 16 0
BBX 16 16 0 -2
BITMAP 
0000
0000
1FF8
1008
1008
1FF8
0000
0000
FFFE
0100
0100
3FF8
0008
0008
0008
0008
ENDCHAR
STARTCHAR U+BB36
ENCODING 47926
SWIDTH 1000 0
DWIDTH 16 0
BBX 16 16 0 -2
BITMAP 
0000
1FF8
1008
1008
1008
1FF8
0000
FFFE
0100
0100
0000
3EF8
0208
0208
0208
0208
ENDCHAR
STARTCHAR U+BB38
ENCODING 47928
SWIDTH 1000 0
DWIDTH 16 0
BBX 16 16 0 -2
BITMAP 
0000
0000
1FF8
1008
1008
1FF8
0000
0000
7FFF
0080
0080
1080
1000
1000
1FFC
0000
ENDCHAR
STARTCHAR U+BB3B
ENCODING 47931
SWIDTH 1000 0
DWIDTH 16 0
BBX 16 16 0 -2
BITMAP 
0000
1FF8
1008
1008
1008
1FF8
0000
0000
FFFE
0100
1FF8
1000
1000
1000
1FFC
0000
ENDCHAR
STARTCHAR U+BB3C
ENCODING 47932
SWIDTH 1000 0
DWIDTH 16 0
BBX 16 16 0 -2
BITMAP 
0000
1FF8
1008
1008
1008
1FF8
0000
FFFE
0100
0100
3FF8
0008
1FF8
1000
1FFC
0000
ENDCHAR
STARTCHAR U+BB3D
ENCODING 47933
SWIDTH 1000 0
DWIDTH 16 0
BBX 16 16 0 -2
BITMAP 
0000
1FF8
1008
1008
1008
1FF8
0000
7FFF
0080
0080
1FF8
0108
1F08
1008
1108
1E08
ENDCHAR
STARTCHAR U+BB3E
ENCODING 47934
SWIDTH 1000 0
DWIDTH 16 0
BBX 16 16 0 -2
BITMAP 
0000
0000
1FF8
1008
1008
1FF8
0000
FFFE
0100
0100
3E78
0248
1E48
1048
1F78
0048
ENDCHAR
STARTCHAR U+BB44
ENCODING 47940
SWIDTH 1000 0
DWIDTH 16 0
BBX 16 16 0 -2
BITMAP 
0000
1FF8
1008
1008
1008
1FF8
0000
0000
FFFE
0100
0100
1FF8
1008
1008
1FF8
1008
ENDCHAR
STARTCHAR U+BB45
ENCODING 47941
SWIDTH 1000 0
DWIDTH 16 0
BBX 16 16 0 -2
BITMAP 
0000
0000
1FF8
1008
1008
1FF8
0000
0000
7FFF
0080
1088
1008
1FF8
1008
1FF8
1008
ENDCHAR
STARTCHAR U+BB47
ENCODING 47943
SWIDTH 1000 0
DWIDTH 16 0
BBX 16 16 0 -2
BITMAP 
0000
1FF8
1008
1008
1008
1FF8
0000
0000
7FFE
0100
0000
0100
0100
0380
0460
3818
ENDCHAR
STARTCHAR U+BB49
ENCODING 47945
SWIDTH 1000 0
DWIDTH 16 0
BBX 16 16 0 -2
BITMAP 
0000
0000
1FF8
1008
1008
1FF8
0000
0000
FFFE
0100
01E0
1E10
2008
2008
3018
0FE0
ENDCHAR
STARTCHAR U+BB4D
ENCODING 47949
SWIDTH 1000 0
DWIDTH 16 0
BBX 16 16 0 -2
BITMAP 
0000
1FF8
1008
1008
1008
1FF8
0000
FFFE
0100
0100
1FF8
1000
1FF8
1000
1FFC
0000
ENDCHAR
STARTCHAR U+BB4F
ENCODING 47951
SWIDTH 1000 0
DWIDTH 16 0
BBX 16 16 0 -2
BITMAP 
0000
1FF8
1008
1008
1008
1FF8
7FFF
0080
0000
07E0
0000
3FFC
03C0
1C38
1008
0FF0
ENDCHAR
STARTCHAR U+BB50
ENCODING 47952
SWIDTH 1000 0
DWIDTH 16 0
BBX 16 16 0 -2
BITMAP 
0000
0004
1FC4
1044
1044
1044
1FC4
0004
0004
7FC4
0204
023C
0204
0204
0204
0004
ENDCHAR
STARTCHAR U+BB54
ENCODING 47956
SWIDTH 1000 0
DWIDTH 16 0
BBX 16 16 0 -2
BITMAP 
0000
0004
1FC4
1044
1044
1044
1FC4
0004
7FE4
0204
023C
0A04
0804
0800
0FFE
0000
ENDCHAR
STARTCHAR U+BB58
ENCODING 47960
SWIDTH 1000 0
DWIDTH 16 0
BBX 16 16 0 -2
BITMAP 
0000
0004
1FC4
1044
1044
1FC4
0004
7FC4
023C
0204
0FFC
0004
0FFC
0800
0FFE
0000
ENDCHAR
STARTCHAR U+BB61
ENCODING 47969
SWIDTH 1000 0
DWIDTH 16 0
BBX 16 16 0 -2
BITMAP 
0000
0004
1FC4
1044
1044
1FC4
0004
7FF4
023C
0204
0804
0804
0FFC
0804
0FFC
0804
ENDCHAR
STARTCHAR U+BB63
ENCODING 47971
SWIDTH 1000 0
DWIDTH 16 0
BBX 16 16 0 -2
BITMAP 
0000
0004
3FC4
2044
2044
2044
3FC4
0004
7FE4
023C
0204
0244
00C0
01B0
0208
0C06
ENDCHAR
STARTCHAR U+BB6C
ENCODING 47980
SWIDTH 1000 0
DWIDTH 16 0
BBX 16 16 0 -2
BITMAP 
0004
0014
0014
1F94
1094
1094
1F94
0014
0054
7F94
0414
04F4
0414
0414
0414
0004
ENDCHAR
STARTCHAR U+BB88
ENCODING 48008
SWIDTH 1000 0
DWIDTH 16 0
BBX 16 16 0 -2
BITMAP 
0000
0004
1FC4
1044
1044
1044
1FC4
0004
0004
7FE4
0204
0204
0204
0204
0204
0004
ENDCHAR
STARTCHAR U+BB8C
ENCODING 48012
SWIDTH 1000 0
DWIDTH 16 0
BBX 16 16 0 -2
BITMAP 
0000
0004
1FC4
1044
1044
1044
1FC4
0004
3FF4
0104
0104
0904
0800
0800
0FFC
0000
ENDCHAR
STARTCHAR U+BB90
ENCODING 48016
SWIDTH 1000 0
DWIDTH 16 0
BBX 16 16 0 -2
BITMAP 
0000
0004
1FC4
1044
1044
1FC4
0004
7FE4
0204
0204
0FFC
0004
0FFC
0800
0FFC
0000
ENDCHAR
STARTCHAR U+BBA4
ENCODING 48036
SWIDTH 1000 0
DWIDTH 16 0
BBX 16 16 0 -2
BITMAP 
0000
0000
1FF8
1008
1008
1008
1FF8
0000
0000
7FFE
0420
0420
0420
0420
0420
0420
ENDCHAR
STARTCHAR U+BBA8
ENCODING 48040
SWIDTH 1000 0
DWIDTH 16 0
BBX 16 16 0 -2
BITMAP 
0000
0000
1FF8
1008
1008
1FF8
0000
0000
FFFE
0420
0420
1420
1000
1000
1FFC
0000
ENDCHAR
STARTCHAR U+BBAC
ENCODING 48044
SWIDTH 1000 0
DWIDTH 16 0
BBX 16 16 0 -2
BITMAP 
0000
1FF8
1008
1008
1008
1FF8
0000
FFFF
0420
0420
1FF8
0008
1FF8
1000
1FFC
0000
ENDCHAR
STARTCHAR U+BBB4
ENCODING 48052
SWIDTH 1000 0
DWIDTH 16 0
BBX 16 16 0 -2
BITMAP 
0000
1FF8
1008
1008
1008
1FF8
0000
0000
FFFF
0420
0420
1FF8
1008
1008
1FF8
1008
ENDCHAR
STARTCHAR U+BBB7
ENCODING 48055
SWIDTH 1000 0
DWIDTH 16 0
BBX 16 16 0 -2
BITMAP 
0000
1FF8
1008
1008
1008
1FF8
0000
7FFE
0420
0420
0420
0100
0180
0240
0420
1818
ENDCHAR
STARTCHAR U+BBC0
ENCODING 48064
SWIDTH 1000 0
DWIDTH 16 0
BBX 16 16 0 -2
BITMAP 
0000
0000
0000
1FF8
1008
1008
1008
1008
1FF8
0000
0000
0000
0000
7FFE
0000
0000
ENDCHAR
STARTCHAR U+BBC4
ENCODING 48068
SWIDTH 1000 0
DWIDTH 16 0
BBX 16 16 0 -2
BITMAP 
0000
0000
1FF8
1008
1008
1FF8
0000
0000
7FFE
0000
0000
1000
1000
1000
1FFC
0000
ENDCHAR
STARTCHAR U+BBC8
ENCODING 48072
SWIDTH 1000 0
DWIDTH 16 0
BBX 16 16 0 -2
BITMAP 
0000
1FF8
1008
1008
1008
1FF8
0000
0000
7FFE
0000
1FF8
0008
1FF8
1000
1FFC
0000
ENDCHAR
STARTCHAR U+BBD0
ENCODING 48080
SWIDTH 1000 0
DWIDTH 16 0
BBX 16 16 0 -2
BITMAP 
0000
1FF8
1008
1008
1008
1FF8
0000
0000
7FFE
0000
1FF8
1008
1008
1008
1FF8
1008
ENDCHAR
STARTCHAR U+BBD3
ENCODING 48083
SWIDTH 1000 0
DWIDTH 16 0
BBX 16 16 0 -2
BITMAP 
0000
1FF8
1008
1008
1008
1FF8
0000
0000
7FFE
0000
0080
0180
0180
0660
381C
0000
ENDCHAR
STARTCHAR U+BBF8
ENCODING 48120
SWIDTH 1000 0
DWIDTH 16 0
BBX 16 16 0 -2
BITMAP 
0000
0004
0004
3F84
2084
2084
2084
2084
2084
2084
2084
3F84
0004
0004
0004
0004
ENDCHAR
STARTCHAR U+BBF9
ENCODING 48121
SWIDTH 1000 0
DWIDTH 16 0
BBX 16 16 0 -2
BITMAP 
0000
0004
3F84
2084
2084
2084
2084
3F84
0004
0004
0FFC
0004
0004
0004
0004
0004
ENDCHAR
STARTCHAR U+BBFC
ENCODING 48124
SWIDTH 1000 0
DWIDTH 16 0
BBX 16 16 0 -2
BITMAP 
0000
0004
3F84
2084
2084
2084
2084
2084
3F84
0004
0804
0804
0800
0800
0FFC
0000
ENDCHAR
STARTCHAR U+BBFF
ENCODING 48127
SWIDTH 1000 0
DWIDTH 16 0
BBX 16 16 0 -2
BITMAP 
0000
0004
3F84
2084
2084
2084
2084
3F84
0004
0004
0FFC
0800
0800
0800
0FFC
0000
ENDCHAR
STARTCHAR U+BC00
ENCODING 48128
SWIDTH 1000 0
DWIDTH 16 0
BBX 16 16 0 -2
BITMAP 
0000
0004
3F84
2084
2084
2084
2084
3F84
0004
0000
0FFC
0004
0FFC
0800
0FFC
0000
ENDCHAR
STARTCHAR U+BC02
ENCODING 48130
SWIDTH 1000 0
DWIDTH 16 0
BBX 16 16 0 -2
BITMAP 
0000
0004
3F84
2084
2084
2084
2084
3F84
0004
0000
1F7C
0144
1F44
1044
107C
1E44
ENDCHAR
STARTCHAR U+BC08
ENCODING 48136
SWIDTH 1000 0
DWIDTH 16 0
BBX 16 16 0 -2
BITMAP 
0000
0004
3F84
2084
2084
2084
2084
3F84
0004
0004
0FFC
0804
0804
0804
0FFC
0804
ENDCHAR
STARTCHAR U+BC09
ENCODING 48137
SWIDTH 1000 0
DWIDTH 16 0
BBX 16 16 0 -2
BITMAP 
0000
0004
3F84
2084
2084
2084
2084
3F84
0004
0000
0804
0804
0FFC
0804
0FFC
0804
ENDCHAR
STARTCHAR U+BC0B
ENCODING 48139
SWIDTH 1000 0
DWIDTH 16 0
BBX 16 16 0 -2
BITMAP 
0000
0008
3F08
2108
2108
2108
2108
2108
3F08
0008
0008
0080
00C0
0120
0218
1C04
ENDCHAR
STARTCHAR U+BC0C
ENCODING 48140
SWIDTH 1000 0
DWIDTH 16 0
BBX 16 16 0 -2
BITMAP 
0000
0008
7F08
4108
4108
4108
4108
7F08
0008
0008
0410
0410
0C10
0A28
114C
2084
ENDCHAR
STARTCHAR U+BC0D
ENCODING 48141
SWIDTH 1000 0
DWIDTH 16 0
BBX 16 16 0 -2
BITMAP 
0000
0004
3F84
2084
2084
2084
2084
2084
3F84
0004
07F0
080C
1004
1004
180C
07F0
ENDCHAR
STARTCHAR U+BC0F
ENCODING 48143
SWIDTH 1000 0
DWIDTH 16 0
BBX 16 16 0 -2
BITMAP 
0000
0008
3F88
2088
2088
2088
2088
3F88
0008
0308
00C0
1FF8
0080
0140
0620
181C
ENDCHAR
STARTCHAR U+BC11
ENCODING 48145
SWIDTH 1000 0
DWIDTH 16 0
BBX 16 16 0 -2
BITMAP 
0000
0004
3F84
2084
2084
2084
2084
3F84
0004
0000
0FFC
0800
0FFC
0800
0FFC
0000
ENDCHAR
STARTCHAR U+BC14
ENCODING 48148
SWIDTH 1000 0
DWIDTH 16 0
BBX 16 16 0 -2
BITMAP 
0000
0010
0010
4110
4110
4110
4110
7F10
411E
4110
4110
7F10
0010
0010
0010
0010
ENDCHAR
STARTCHAR U+BC15
ENCODING 48149
SWIDTH 1000 0
DWIDTH 16 0
BBX 16 16 0 -2
BITMAP 
0000
4110
4110
4110
7F10
411E
4110
4110
7F10
0000
3FF0
0010
0010
0010
0010
0010
ENDCHAR
STARTCHAR U+BC16
ENCODING 48150
SWIDTH 1000 0
DWIDTH 16 0
BBX 16 16 0 -2
BITMAP 
0000
4110
4110
4110
7F10
411E
4110
4110
7F10
0000
3FF0
0210
0210
0210
0210
0210
ENDCHAR
STARTCHAR U+BC17
ENCODING 48151
SWIDTH 1000 0
DWIDTH 16 0
BBX 16 16 0 -2
BITMAP 
0000
4110
4110
4110
7F10
411C
4110
4110
7F10
0000
3E20
0220
0250
0250
028C
0300
ENDCHAR
STARTCHAR U+BC18
ENCODING 48152
SWIDTH 1000 0
DWIDTH 16 0
BBX 16 16 0 -2
BITMAP 
0000
0010
4110
4110
4110
7F10
411E
4110
7F10
0010
2010
2010
2010
2000
3FF0
0000
ENDCHAR
STARTCHAR U+BC1B
ENCODING 48155
SWIDTH 1000 0
DWIDTH 16 0
BBX 16 16 0 -2
BITMAP 
0000
4110
4110
4110
7F10
411E
4110
4110
7F10
0000
3FF0
2000
2000
2000
3FF0
0000
ENDCHAR
STARTCHAR U+BC1C
ENCODING 48156
SWIDTH 1000 0
DWIDTH 16 0
BBX 16 16 0 -2
BITMAP 
0000
4110
4110
4110
7F10
411E
4110
7F10
0010
0000
3FF0
0010
3FF0
2000
3FF0
0000
ENDCHAR
STARTCHAR U+BC1D
ENCODING 48157
SWIDTH 1000 0
DWIDTH 16 0
BBX 16 16 0 -2
BITMAP 
0000
0010
4110
4110
7F10
411E
4110
4110
7F10
0000
3FF0
0210
3E10
2010
2010
3E10
ENDCHAR
STARTCHAR U+BC1E
ENCODING 48158
SWIDTH 1000 0
DWIDTH 16 0
BBX 16 16 0 -2
BITMAP 
0000
0010
4110
4110
7F10
411E
4110
7F10
0010
0000
3EF0
0290
3E90
2090
3EF0
0090
ENDCHAR
STARTCHAR U+BC1F
ENCODING 48159
SWIDTH 1000 0
DWIDTH 16 0
BBX 16 16 0 -2
BITMAP 
0000
0010
4110
4110
7F10
411E
4110
7F10
0010
3E00
0290
02F0
3E90
2090
20F0
3E90
ENDCHAR
STARTCHAR U+BC24
ENCODING 48164
SWIDTH 1000 0
DWIDTH 16 0
BBX 16 16 0 -2
BITMAP 
0000
4110
4110
4110
7F10
411E
4110
4110
7F10
0010
3FF0
2010
2010
2010
3FF0
2010
ENDCHAR
STARTCHAR U+BC25
ENCODING 48165
SWIDTH 1000 0
DWIDTH 16 0
BBX 16 16 0 -2
BITMAP 
0000
0010
4110
4110
7F10
411E
4110
7F10
0010
0000
2010
2010
3FF0
2010
3FF0
2010
ENDCHAR
STARTCHAR U+BC27
ENCODING 48167
SWIDTH 1000 0
DWIDTH 16 0
BBX 16 16 0 -2
BITMAP 
0000
4110
4110
4110
7F10
4110
411E
4110
7F10
0010
0010
0180
0180
0240
0430
1808
ENDCHAR
STARTCHAR U+BC29
ENCODING 48169
SWIDTH 1000 0
DWIDTH 16 0
BBX 16 16 0 -2
BITMAP 
0000
4110
4110
4110
7F10
411E
4110
4110
7F10
0010
1FC0
3030
2010
2010
1C60
0380
ENDCHAR
STARTCHAR U+BC2D
ENCODING 48173
SWIDTH 1000 0
DWIDTH 16 0
BBX 16 16 0 -2
BITMAP 
0000
4110
4110
4110
7F10
411E
4110
4110
7F10
0000
3FF0
2000
3FF0
2000
3FF0
0000
ENDCHAR
STARTCHAR U+BC30
ENCODING 48176
SWIDTH 1000 0
DWIDTH 16 0
BBX 16 16 0 -2
BITMAP 
0000
0004
0024
2224
2224
2224
2224
3E24
223C
2224
2224
3E24
0024
0024
0024
0004
ENDCHAR
STARTCHAR U+BC31
ENCODING 48177
SWIDTH 1000 0
DWIDTH 16 0
BBX 16 16 0 -2
BITMAP 
0000
0024
2224
2224
3E24
2224
223C
2224
3E24
0024
1FFC
0004
0004
0004
0004
0004
ENDCHAR
STARTCHAR U+BC34
ENCODING 48180
SWIDTH 1000 0
DWIDTH 16 0
BBX 16 16 0 -2
BITMAP 
0000
0004
2224
2224
2224
3E24
223C
2224
3E24
0024
1004
1000
1000
1000
1FF8
0000
ENDCHAR
STARTCHAR U+BC38
ENCODING 48184
SWIDTH 1000 0
DWIDTH 16 0
BBX 16 16 0 -2
BITMAP 
0000
0024
2224
2224
3E24
2224
223C
2224
3E24
0004
0FFC
0004
0FFC
0800
0FFC
0000
ENDCHAR
STARTCHAR U+BC40
ENCODING 48192
SWIDTH 1000 0
DWIDTH 16 0
BBX 16 16 0 -2
BITMAP 
0000
0024
2224
2224
3E24
2224
223C
2224
3E24
0024
1FFC
1004
1004
1004
1FFC
1004
ENDCHAR
STARTCHAR U+BC41
ENCODING 48193
SWIDTH 1000 0
DWIDTH 16 0
BBX 16 16 0 -2
BITMAP 
0000
2224
2224
2224
3E24
2224
223C
2224
3E24
0024
1004
1004
1FFC
1004
1FFC
1004
ENDCHAR
STARTCHAR U+BC43
ENCODING 48195
SWIDTH 1000 0
DWIDTH 16 0
BBX 16 16 0 -2
BITMAP 
0000
0004
2224
2224
2224
3E24
223C
2224
3E24
0024
0004
0080
0140
0320
0418
1804
ENDCHAR
STARTCHAR U+BC44
ENCODING 48196
SWIDTH 1000 0
DWIDTH 16 0
BBX 16 16 0 -2
BITMAP 
0000
2244
2244
2244
3E44
2244
227C
2244
3E44
0044
0000
0410
0410
0A28
1A44
2080
ENDCHAR
STARTCHAR U+BC45
ENCODING 48197
SWIDTH 1000 0
DWIDTH 16 0
BBX 16 16 0 -2
BITMAP 
0000
2204
2224
2224
3E24
2224
223C
2224
3E24
0024
0004
0FF8
1004
1004
180C
07F8
ENDCHAR
STARTCHAR U+BC49
ENCODING 48201
SWIDTH 1000 0
DWIDTH 16 0
BBX 16 16 0 -2
BITMAP 
0000
0024
2224
2224
3E24
2224
223C
2224
3E24
0004
1FFC
1000
1FF8
1000
1FFC
0000
ENDCHAR
STARTCHAR U+BC4C
ENCODING 48204
SWIDTH 1000 0
DWIDTH 16 0
BBX 16 16 0 -2
BITMAP 
0000
0010
0010
4110
4110
4110
7F1E
4110
4110
4110
411E
7F10
0010
0010
0010
0010
ENDCHAR
STARTCHAR U+BC4D
ENCODING 48205
SWIDTH 1000 0
DWIDTH 16 0
BBX 16 16 0 -2
BITMAP 
0000
4110
4110
4110
7F1E
4110
4110
411E
7F10
0010
3FF0
0010
0010
0010
0010
0010
ENDCHAR
STARTCHAR U+BC50
ENCODING 48208
SWIDTH 1000 0
DWIDTH 16 0
BBX 16 16 0 -2
BITMAP 
0000
0010
4110
4110
411E
7F10
4110
4110
7F1E
0010
2010
2010
2010
2000
3FF0
0000
ENDCHAR
STARTCHAR U+BC5D
ENCODING 48221
SWIDTH 1000 0
DWIDTH 16 0
BBX 16 16 0 -2
BITMAP 
0000
0110
4110
4110
7F1E
4110
4110
411E
7F10
0010
2010
2010
3FF0
2010
3FF0
2010
ENDCHAR
STARTCHAR U+BC84
ENCODING 48260
SWIDTH 1000 0
DWIDTH 16 0
BBX 16 16 0 -2
BITMAP 
0000
0004
0004
2084
2084
2084
2084
3FBC
2084
2084
2084
3F84
0004
0004
0004
0004
ENDCHAR
STARTCHAR U+BC85
ENCODING 48261
SWIDTH 1000 0
DWIDTH 16 0
BBX 16 16 0 -2
BITMAP 
0000
2084
2084
2084
3F84
20BC
2084
2084
3F84
0004
1FFC
0004
0004
0004
0004
0004
ENDCHAR
STARTCHAR U+BC88
ENCODING 48264
SWIDTH 1000 0
DWIDTH 16 0
BBX 16 16 0 -2
BITMAP 
0000
0004
2084
2084
2084
3F84
20BC
2084
3F84
0004
0004
1004
1004
1000
1FFC
0000
ENDCHAR
STARTCHAR U+BC8B
ENCODING 48267
SWIDTH 1000 0
DWIDTH 16 0
BBX 16 16 0 -2
BITMAP 
0000
2084
2084
2084
3F84
20BC
2084
2084
3F84
0004
1FF8
1000
1000
1000
1FFC
0000
ENDCHAR
STARTCHAR U+BC8C
ENCODING 48268
SWIDTH 1000 0
DWIDTH 16 0
BBX 16 16 0 -2
BITMAP 
0000
0004
2084
2084
3F84
20BC
2084
3F84
0004
0000
0FFC
0004
1FFC
1000
1FF8
0000
ENDCHAR
STARTCHAR U+BC8E
ENCODING 48270
SWIDTH 1000 0
DWIDTH 16 0
BBX 16 16 0 -2
BITMAP 
0000
0004
2084
2084
3F84
20BC
2084
3F84
0004
0000
1F7C
0144
1F44
1044
10FC
1F44
ENDCHAR
STARTCHAR U+BC94
ENCODING 48276
SWIDTH 1000 0
DWIDTH 16 0
BBX 16 16 0 -2
BITMAP 
0000
2084
2084
2084
3F84
20BC
2084
2084
3F84
0004
1FFC
1004
1004
1004
1FFC
1004
ENDCHAR
STARTCHAR U+BC95
ENCODING 48277
SWIDTH 1000 0
DWIDTH 16 0
BBX 16 16 0 -2
BITMAP 
0000
2084
2084
2084
3F84
20BC
2084
2084
3F84
0000
1004
1004
1FFC
1004
1FFC
1004
ENDCHAR
STARTCHAR U+BC97
ENCODING 48279
SWIDTH 1000 0
DWIDTH 16 0
BBX 16 16 0 -2
BITMAP 
0000
2108
2108
2108
3F08
2178
2108
2108
3F08
0008
0008
0080
0140
0220
0418
1804
ENDCHAR
STARTCHAR U+BC99
ENCODING 48281
SWIDTH 1000 0
DWIDTH 16 0
BBX 16 16 0 -2
BITMAP 
0000
2084
2084
2084
3F84
20BC
2084
2084
3F84
0004
07F0
180C
1004
1004
0C18
03E0
ENDCHAR
STARTCHAR U+BC9A
ENCODING 48282
SWIDTH 1000 0
DWIDTH 16 0
BBX 16 16 0 -2
BITMAP 
0000
0008
2108
2108
3F08
2178
2108
3F08
0008
0000
1FF8
0080
0140
0260
0C10
100C
ENDCHAR
STARTCHAR U+BCA0
ENCODING 48288
SWIDTH 1000 0
DWIDTH 16 0
BBX 16 16 0 -2
BITMAP 
0000
0004
0024
2224
2224
2224
2224
3E24
23E4
2224
2224
3E24
0024
0024
0024
0024
ENDCHAR
STARTCHAR U+BCA1
ENCODING 48289
SWIDTH 1000 0
DWIDTH 16 0
BBX 16 16 0 -2
BITMAP 
0000
2204
2224
2224
3E24
23E4
2224
2224
3E24
0004
1FFC
0004
0004
0004
0004
0004
ENDCHAR
STARTCHAR U+BCA4
ENCODING 48292
SWIDTH 1000 0
DWIDTH 16 0
BBX 16 16 0 -2
BITMAP 
0004
0024
2224
2224
2224
3E24
23E4
2224
3E24
0024
1024
1020
1000
1000
1FFC
0000
ENDCHAR
STARTCHAR U+BCA7
ENCODING 48295
SWIDTH 1000 0
DWIDTH 16 0
BBX 16 16 0 -2
BITMAP 
0004
2224
2224
2224
3E24
23E4
2224
2224
3E24
0000
1FFC
1000
1000
1000
1FFC
0000
ENDCHAR
STARTCHAR U+BCA8
ENCODING 48296
SWIDTH 1000 0
DWIDTH 16 0
BBX 16 16 0 -2
BITMAP 
0000
2204
2224
2224
3E24
2224
23E4
2224
3E24
0020
0FFC
0004
0FFC
0800
0FFC
0000
ENDCHAR
STARTCHAR U+BCB0
ENCODING 48304
SWIDTH 1000 0
DWIDTH 16 0
BBX 16 16 0 -2
BITMAP 
0000
2204
2224
2224
3E24
23E4
2224
2224
3E24
0004
1FFC
1004
1004
1004
1FFC
1004
ENDCHAR
STARTCHAR U+BCB1
ENCODING 48305
SWIDTH 1000 0
DWIDTH 16 0
BBX 16 16 0 -2
BITMAP 
0000
2204
2224
2224
3E24
23E4
2224
2224
3E24
0000
1004
1004
1FFC
1004
1FFC
1004
ENDCHAR
STARTCHAR U+BCB3
ENCODING 48307
SWIDTH 1000 0
DWIDTH 16 0
BBX 16 16 0 -2
BITMAP 
0000
0004
2224
2224
2224
3E24
23E4
2224
3E24
0024
0024
0084
00C0
0120
0618
1804
ENDCHAR
STARTCHAR U+BCB4
ENCODING 48308
SWIDTH 1000 0
DWIDTH 16 0
BBX 16 16 0 -2
BITMAP 
0000
4244
4244
4244
7E44
43C4
4244
4244
7E44
0004
0010
0410
0618
0A28
1944
1000
ENDCHAR
STARTCHAR U+BCB5
ENCODING 48309
SWIDTH 1000 0
DWIDTH 16 0
BBX 16 16 0 -2
BITMAP 
0000
0024
2224
2224
2224
3E24
23E4
2224
3E24
0024
07F4
180C
1004
1004
180C
07F0
ENDCHAR
STARTCHAR U+BCBC
ENCODING 48316
SWIDTH 1000 0
DWIDTH 16 0
BBX 16 16 0 -2
BITMAP 
0000
0004
0004
2084
2084
20BC
2084
3F84
2084
20BC
2084
3F84
0004
0004
0004
0004
ENDCHAR
STARTCHAR U+BCBD
ENCODING 48317
SWIDTH 1000 0
DWIDTH 16 0
BBX 16 16 0 -2
BITMAP 
0000
2084
2084
2084
3FBC
2084
2084
20BC
3F84
0004
1FFC
0004
0004
0004
0004
0004
ENDCHAR
STARTCHAR U+BCC0
ENCODING 48320
SWIDTH 1000 0
DWIDTH 16 0
BBX 16 16 0 -2
BITMAP 
0000
0004
2084
2084
20BC
3F84
2084
20BC
3F84
0004
0004
1004
1000
1000
1FFC
0000
ENDCHAR
STARTCHAR U+BCC4
ENCODING 48324
SWIDTH 1000 0
DWIDTH 16 0
BBX 16 16 0 -2
BITMAP 
0000
0004
2084
2084
3FBC
2084
2084
3FBC
0004
0000
0FFC
0004
1FFC
1000
1FFC
0000
ENDCHAR
STARTCHAR U+BCCD
ENCODING 48333
SWIDTH 1000 0
DWIDTH 16 0
BBX 16 16 0 -2
BITMAP 
0000
2084
2084
2084
3FBC
2084
20BC
2084
3F84
0000
1004
1004
1FFC
1004
1FFC
1004
ENDCHAR
STARTCHAR U+BCCF
ENCODING 48335
SWIDTH 1000 0
DWIDTH 16 0
BBX 16 16 0 -2
BITMAP 
0000
2108
2108
2108
3F78
2108
2108
2178
3F08
0008
0008
0188
0180
0240
0C30
1008
ENDCHAR
STARTCHAR U+BCD0
ENCODING 48336
SWIDTH 1000 0
DWIDTH 16 0
BBX 16 16 0 -2
BITMAP 
0000
2108
2108
2108
3F78
2108
2108
2178
3E08
0008
0410
0410
0630
0A28
1144
0000
ENDCHAR
STARTCHAR U+BCD1
ENCODING 48337
SWIDTH 1000 0
DWIDTH 16 0
BBX 16 16 0 -2
BITMAP 
0000
2084
2084
2084
3FBC
2084
2084
20BC
3F84
0004
01C0
0E38
1004
1004
0C08
03F0
ENDCHAR
STARTCHAR U+BCD5
ENCODING 48341
SWIDTH 1000 0
DWIDTH 16 0
BBX 16 16 0 -2
BITMAP 
0000
2084
2084
20BC
3F84
2084
2084
20BC
3F84
0004
1FF8
1000
1FF8
1000
1FFC
0000
ENDCHAR
STARTCHAR U+BCD8
ENCODING 48344
SWIDTH 1000 0
DWIDTH 16 0
BBX 16 16 0 -2
BITMAP 
0000
0004
0024
2224
2224
2224
23E4
3E24
2224
23E4
2224
2224
3E24
0024
0024
0004
ENDCHAR
STARTCHAR U+BCDC
ENCODING 48348
SWIDTH 1000 0
DWIDTH 16 0
BBX 16 16 0 -2
BITMAP 
0000
0024
2224
2224
22E4
3E24
2224
22E4
3E24
0024
0024
1024
1024
1000
1FFC
0000
ENDCHAR
STARTCHAR U+BCF4
ENCODING 48372
SWIDTH 1000 0
DWIDTH 16 0
BBX 16 16 0 -2
BITMAP 
0000
0000
1008
1008
1008
1FF8
1008
1008
1008
1FF8
0100
0100
0100
FFFE
0000
0000
ENDCHAR
ENDFONT
